SplineFontDB: 3.0
FontName: Vaigai-Italic
FullName: Vaigai Italic
FamilyName: Vaigai
Weight: Book
Copyright: Copyright (c) 1995-2015, NLCI (http://www.nlci.in/fonts/) Derived from SAU Vaigai Italic by ttfbuilder v0.33
Version: 1.0 Thu Aug 08 15:05:36 1996
ItalicAngle: 12
UnderlinePosition: -260
UnderlineWidth: 20
Ascent: 800
Descent: 200
InvalidEm: 0
sfntRevision: 0x00010000
LayerCount: 2
Layer: 0 1 "Back" 1
Layer: 1 1 "Fore" 0
XUID: [1021 78 760486606 10118609]
StyleMap: 0x0041
FSType: 0
OS2Version: 1
OS2_WeightWidthSlopeOnly: 0
OS2_UseTypoMetrics: 0
CreationTime: 1534550736
ModificationTime: 1534550776
PfmFamily: 17
TTFWeight: 400
TTFWidth: 5
LineGap: 0
VLineGap: 0
Panose: 2 0 0 3 0 0 0 0 0 0
OS2TypoAscent: 1068
OS2TypoAOffset: 0
OS2TypoDescent: -359
OS2TypoDOffset: 0
OS2TypoLinegap: 0
OS2WinAscent: 1068
OS2WinAOffset: 0
OS2WinDescent: 359
OS2WinDOffset: 0
HheadAscent: 1068
HheadAOffset: 0
HheadDescent: -359
HheadDOffset: 0
OS2SubXSize: 700
OS2SubYSize: 650
OS2SubXOff: 0
OS2SubYOff: 143
OS2SupXSize: 700
OS2SupYSize: 650
OS2SupXOff: 0
OS2SupYOff: 453
OS2StrikeYSize: 50
OS2StrikeYPos: 259
OS2Vendor: 'Alts'
OS2CodePages: 20000001.00000000
OS2UnicodeRanges: a01080ff.520021cb.08000028.00000000
Lookup: 260 0 0 "_holdAnchorsbase" { "_someAnchorsbase"  } []
DEI: 91125
ShortTable: maxp 16
  1
  0
  339
  199
  12
  303
  16
  1
  0
  0
  0
  0
  3
  0
  3
  2
EndShort

StartChar: .notdef
Encoding: 0 -1 0
Width: 500
Flags: W
LayerCount: 2
Fore
SplineSet
31 0 m 1,0,-1
 31 750 l 1,1,-1
 469 750 l 1,2,-1
 469 0 l 1,3,-1
 31 0 l 1,0,-1
438 31 m 1,4,-1
 438 719 l 1,5,-1
 62 719 l 1,6,-1
 62 31 l 1,7,-1
 438 31 l 1,4,-1
EndSplineSet
EndChar

StartChar: exclam
Encoding: 4 33 4
Width: 211
VWidth: 488
Flags: W
LayerCount: 2
Fore
SplineSet
130.37109375 193.84765625 m 0,0,1
 120.60546875 187.01171875 120.60546875 187.01171875 111.083984375 182.12890625 c 0,2,3
 101.5625 177.24609375 101.5625 177.24609375 89.35546875 173.33984375 c 0,4,-1
 77.63671875 183.59375 l 0,5,-1
 114.2578125 651.3671875 l 0,6,7
 122.0703125 656.73828125 122.0703125 656.73828125 134.27734375 664.0625 c 0,8,9
 146.484375 671.38671875 146.484375 671.38671875 159.912109375 678.7109375 c 0,10,11
 173.33984375 686.03515625 173.33984375 686.03515625 186.279296875 692.138671875 c 0,12,13
 199.21875 698.2421875 199.21875 698.2421875 209.47265625 701.171875 c 0,14,-1
 228.02734375 687.98828125 l 0,15,-1
 130.37109375 193.84765625 l 0,0,1
149.4140625 76.66015625 m 0,16,17
 149.4140625 61.03515625 149.4140625 61.03515625 144.04296875 44.921875 c 0,18,19
 138.671875 28.80859375 138.671875 28.80859375 128.41796875 15.380859375 c 0,20,21
 118.1640625 1.953125 118.1640625 1.953125 103.515625 -6.591796875 c 0,22,23
 88.8671875 -15.13671875 88.8671875 -15.13671875 70.80078125 -15.13671875 c 0,24,25
 47.36328125 -15.13671875 47.36328125 -15.13671875 35.64453125 -1.220703125 c 0,26,27
 23.92578125 12.6953125 23.92578125 12.6953125 23.92578125 35.64453125 c 0,28,29
 23.92578125 50.29296875 23.92578125 50.29296875 29.78515625 66.162109375 c 0,30,31
 35.64453125 82.03125 35.64453125 82.03125 46.142578125 94.970703125 c 0,32,33
 56.640625 107.91015625 56.640625 107.91015625 71.2890625 116.455078125 c 0,34,35
 85.9375 125 85.9375 125 103.02734375 125 c 0,36,37
 125 125 125 125 137.20703125 111.572265625 c 0,38,39
 149.4140625 98.14453125 149.4140625 98.14453125 149.4140625 76.66015625 c 0,16,17
EndSplineSet
EndChar

StartChar: quotedbl
Encoding: 5 34 5
Width: 402
VWidth: 488
Flags: W
LayerCount: 2
Fore
SplineSet
320.3125 423.828125 m 0,0,1
 312.5 419.43359375 312.5 419.43359375 301.26953125 417.48046875 c 0,2,3
 290.0390625 415.52734375 290.0390625 415.52734375 279.296875 415.52734375 c 0,4,-1
 289.55078125 669.921875 l 0,5,6
 295.41015625 672.8515625 295.41015625 672.8515625 305.6640625 677.24609375 c 0,7,8
 315.91796875 681.640625 315.91796875 681.640625 327.1484375 685.791015625 c 0,9,10
 338.37890625 689.94140625 338.37890625 689.94140625 348.388671875 693.359375 c 0,11,12
 358.3984375 696.77734375 358.3984375 696.77734375 363.28125 698.2421875 c 0,13,-1
 382.32421875 687.01171875 l 0,14,-1
 320.3125 423.828125 l 0,0,1
153.3203125 423.828125 m 0,15,16
 145.01953125 419.43359375 145.01953125 419.43359375 134.033203125 417.48046875 c 0,17,18
 123.046875 415.52734375 123.046875 415.52734375 112.3046875 415.52734375 c 0,19,-1
 122.55859375 669.921875 l 0,20,21
 128.41796875 672.8515625 128.41796875 672.8515625 138.671875 677.24609375 c 0,22,23
 148.92578125 681.640625 148.92578125 681.640625 160.15625 685.791015625 c 0,24,25
 171.38671875 689.94140625 171.38671875 689.94140625 181.396484375 693.359375 c 0,26,27
 191.40625 696.77734375 191.40625 696.77734375 196.2890625 698.2421875 c 0,28,-1
 215.8203125 687.01171875 l 0,29,-1
 153.3203125 423.828125 l 0,15,16
EndSplineSet
EndChar

StartChar: numbersign
Encoding: 6 35 6
Width: 419
VWidth: 488
Flags: W
LayerCount: 2
Fore
SplineSet
180.17578125 290.52734375 m 0,0,-1
 264.16015625 290.52734375 l 0,1,-1
 309.5703125 410.64453125 l 0,2,-1
 225.5859375 410.64453125 l 0,3,-1
 180.17578125 290.52734375 l 0,0,-1
387.6953125 471.6796875 m 0,4,-1
 456.54296875 471.6796875 l 0,5,-1
 466.30859375 459.47265625 l 0,6,7
 464.35546875 454.1015625 464.35546875 454.1015625 461.42578125 447.265625 c 0,8,9
 458.49609375 440.4296875 458.49609375 440.4296875 455.078125 433.59375 c 0,10,11
 451.66015625 426.7578125 451.66015625 426.7578125 448.486328125 420.654296875 c 0,12,13
 445.3125 414.55078125 445.3125 414.55078125 443.359375 410.64453125 c 0,14,-1
 364.2578125 410.64453125 l 0,15,-1
 318.84765625 290.52734375 l 0,16,-1
 389.6484375 290.52734375 l 0,17,-1
 398.92578125 277.34375 l 0,18,19
 396.97265625 272.4609375 396.97265625 272.4609375 394.04296875 266.11328125 c 0,20,21
 391.11328125 259.765625 391.11328125 259.765625 388.18359375 252.9296875 c 0,22,23
 385.25390625 246.09375 385.25390625 246.09375 382.080078125 239.990234375 c 0,24,25
 378.90625 233.88671875 378.90625 233.88671875 376.953125 229.4921875 c 0,26,-1
 295.41015625 229.4921875 l 0,27,-1
 240.234375 83.0078125 l 0,28,29
 231.4453125 76.171875 231.4453125 76.171875 218.017578125 71.2890625 c 0,30,31
 204.58984375 66.40625 204.58984375 66.40625 191.89453125 62.01171875 c 0,32,-1
 181.640625 71.77734375 l 0,33,-1
 241.2109375 229.4921875 l 0,34,-1
 157.2265625 229.4921875 l 0,35,-1
 102.05078125 83.0078125 l 0,36,37
 92.7734375 76.171875 92.7734375 76.171875 79.58984375 71.2890625 c 0,38,39
 66.40625 66.40625 66.40625 66.40625 53.7109375 62.01171875 c 0,40,-1
 42.48046875 71.77734375 l 0,41,-1
 102.05078125 229.4921875 l 0,42,-1
 33.69140625 229.4921875 l 0,43,-1
 24.90234375 241.69921875 l 0,44,45
 26.85546875 246.58203125 26.85546875 246.58203125 29.541015625 252.9296875 c 0,46,47
 32.2265625 259.27734375 32.2265625 259.27734375 35.15625 265.625 c 0,48,-1
 41.50390625 278.80859375 l 0,49,50
 44.921875 285.64453125 44.921875 285.64453125 47.8515625 290.52734375 c 0,51,-1
 125.48828125 290.52734375 l 0,52,-1
 170.8984375 410.64453125 l 0,53,-1
 101.07421875 410.64453125 l 0,54,-1
 91.796875 422.36328125 l 0,55,56
 95.703125 433.10546875 95.703125 433.10546875 102.5390625 447.509765625 c 0,57,58
 109.375 461.9140625 109.375 461.9140625 114.74609375 471.6796875 c 0,59,-1
 194.3359375 471.6796875 l 0,60,-1
 247.0703125 610.83984375 l 0,61,62
 257.32421875 618.65234375 257.32421875 618.65234375 270.5078125 622.55859375 c 0,63,64
 283.69140625 626.46484375 283.69140625 626.46484375 294.43359375 630.859375 c 0,65,-1
 305.17578125 620.1171875 l 0,66,-1
 249.0234375 471.6796875 l 0,67,-1
 332.51953125 471.6796875 l 0,68,-1
 385.25390625 610.83984375 l 0,69,70
 395.99609375 618.65234375 395.99609375 618.65234375 409.1796875 622.55859375 c 0,71,72
 422.36328125 626.46484375 422.36328125 626.46484375 432.6171875 630.859375 c 0,73,-1
 443.84765625 620.1171875 l 0,74,-1
 387.6953125 471.6796875 l 0,4,-1
EndSplineSet
EndChar

StartChar: dollar
Encoding: 7 36 7
Width: 419
VWidth: 488
Flags: W
LayerCount: 2
Fore
SplineSet
131.34765625 463.8671875 m 0,0,1
 131.34765625 454.1015625 131.34765625 454.1015625 134.27734375 444.091796875 c 0,2,3
 137.20703125 434.08203125 137.20703125 434.08203125 145.263671875 423.828125 c 0,4,5
 153.3203125 413.57421875 153.3203125 413.57421875 166.9921875 402.587890625 c 0,6,7
 180.6640625 391.6015625 180.6640625 391.6015625 202.63671875 379.39453125 c 0,8,-1
 226.5625 549.31640625 l 0,9,10
 205.078125 547.36328125 205.078125 547.36328125 187.5 539.306640625 c 0,11,12
 169.921875 531.25 169.921875 531.25 157.470703125 519.287109375 c 0,13,14
 145.01953125 507.32421875 145.01953125 507.32421875 138.18359375 492.919921875 c 0,15,16
 131.34765625 478.515625 131.34765625 478.515625 131.34765625 463.8671875 c 0,0,1
304.6875 167.48046875 m 0,17,18
 304.6875 196.77734375 304.6875 196.77734375 287.841796875 219.970703125 c 0,19,20
 270.99609375 243.1640625 270.99609375 243.1640625 231.4453125 266.6015625 c 0,21,-1
 200.68359375 50.29296875 l 0,22,23
 223.14453125 54.6875 223.14453125 54.6875 242.431640625 64.94140625 c 0,24,25
 261.71875 75.1953125 261.71875 75.1953125 275.390625 90.576171875 c 0,26,27
 289.0625 105.95703125 289.0625 105.95703125 296.875 125.48828125 c 0,28,29
 304.6875 145.01953125 304.6875 145.01953125 304.6875 167.48046875 c 0,17,18
405.76171875 558.59375 m 0,30,31
 408.69140625 556.640625 408.69140625 556.640625 403.076171875 545.166015625 c 0,32,33
 397.4609375 533.69140625 397.4609375 533.69140625 388.671875 520.263671875 c 0,34,35
 379.8828125 506.8359375 379.8828125 506.8359375 370.60546875 495.1171875 c 0,36,37
 361.328125 483.3984375 361.328125 483.3984375 356.93359375 480.46875 c 0,38,-1
 338.37890625 483.3984375 l 0,39,40
 328.125 502.9296875 328.125 502.9296875 310.791015625 519.53125 c 0,41,42
 293.45703125 536.1328125 293.45703125 536.1328125 270.5078125 543.9453125 c 0,43,-1
 244.140625 358.3984375 l 0,44,45
 278.3203125 341.30859375 278.3203125 341.30859375 303.466796875 324.951171875 c 0,46,47
 328.61328125 308.59375 328.61328125 308.59375 345.21484375 290.52734375 c 0,48,49
 361.81640625 272.4609375 361.81640625 272.4609375 369.873046875 251.46484375 c 0,50,51
 377.9296875 230.46875 377.9296875 230.46875 377.9296875 204.1015625 c 0,52,53
 377.9296875 166.50390625 377.9296875 166.50390625 364.501953125 132.080078125 c 0,54,55
 351.07421875 97.65625 351.07421875 97.65625 326.416015625 69.091796875 c 0,56,57
 301.7578125 40.52734375 301.7578125 40.52734375 267.578125 20.263671875 c 0,58,59
 233.3984375 0 233.3984375 0 192.3828125 -8.7890625 c 0,60,-1
 184.5703125 -66.40625 l 0,61,62
 175.78125 -73.73046875 175.78125 -73.73046875 168.701171875 -77.1484375 c 0,63,64
 161.62109375 -80.56640625 161.62109375 -80.56640625 149.90234375 -83.49609375 c 0,65,-1
 138.671875 -71.77734375 l 0,66,-1
 146.484375 -14.6484375 l 0,67,68
 144.04296875 -15.13671875 144.04296875 -15.13671875 141.11328125 -15.13671875 c 0,69,-1
 135.25390625 -15.13671875 l 0,70,71
 116.2109375 -15.13671875 116.2109375 -15.13671875 91.552734375 -8.544921875 c 0,72,73
 66.89453125 -1.953125 66.89453125 -1.953125 44.921875 8.30078125 c 0,74,75
 22.94921875 18.5546875 22.94921875 18.5546875 8.056640625 31.25 c 0,76,77
 -6.8359375 43.9453125 -6.8359375 43.9453125 -6.8359375 56.640625 c 0,78,79
 -6.8359375 62.98828125 -6.8359375 62.98828125 -0.732421875 75.68359375 c 0,80,81
 5.37109375 88.37890625 5.37109375 88.37890625 13.916015625 101.318359375 c 0,82,83
 22.4609375 114.2578125 22.4609375 114.2578125 31.982421875 124.0234375 c 0,84,85
 41.50390625 133.7890625 41.50390625 133.7890625 48.33984375 133.7890625 c 0,86,87
 53.7109375 133.7890625 53.7109375 133.7890625 61.5234375 122.0703125 c 0,88,89
 69.3359375 110.3515625 69.3359375 110.3515625 81.787109375 95.21484375 c 0,90,91
 94.23828125 80.078125 94.23828125 80.078125 112.060546875 66.40625 c 0,92,93
 129.8828125 52.734375 129.8828125 52.734375 155.76171875 48.828125 c 0,94,-1
 189.453125 288.57421875 l 0,95,-1
 175.78125 294.921875 l 0,96,97
 114.2578125 322.75390625 114.2578125 322.75390625 87.890625 357.421875 c 0,98,99
 61.5234375 392.08984375 61.5234375 392.08984375 61.5234375 431.15234375 c 0,100,101
 61.5234375 458.49609375 61.5234375 458.49609375 72.998046875 485.595703125 c 0,102,103
 84.47265625 512.6953125 84.47265625 512.6953125 106.4453125 535.400390625 c 0,104,105
 128.41796875 558.10546875 128.41796875 558.10546875 160.400390625 574.70703125 c 0,106,107
 192.3828125 591.30859375 192.3828125 591.30859375 233.3984375 597.65625 c 0,108,-1
 241.2109375 653.3203125 l 0,109,110
 247.55859375 657.2265625 247.55859375 657.2265625 251.220703125 659.66796875 c 0,111,112
 254.8828125 662.109375 254.8828125 662.109375 257.8125 663.818359375 c 0,113,114
 260.7421875 665.52734375 260.7421875 665.52734375 264.404296875 667.236328125 c 0,115,116
 268.06640625 668.9453125 268.06640625 668.9453125 274.4140625 670.8984375 c 0,117,-1
 286.62109375 658.69140625 l 0,118,-1
 278.3203125 601.07421875 l 0,119,-1
 279.296875 601.07421875 l 0,120,121
 316.40625 601.07421875 316.40625 601.07421875 349.365234375 588.37890625 c 0,122,123
 382.32421875 575.68359375 382.32421875 575.68359375 405.76171875 558.59375 c 0,30,31
EndSplineSet
EndChar

StartChar: percent
Encoding: 8 37 8
Width: 653
VWidth: 488
Flags: W
LayerCount: 2
Fore
SplineSet
321.77734375 475.09765625 m 0,0,1
 321.77734375 441.40625 321.77734375 441.40625 310.302734375 405.517578125 c 0,2,3
 298.828125 369.62890625 298.828125 369.62890625 277.099609375 339.84375 c 0,4,5
 255.37109375 310.05859375 255.37109375 310.05859375 224.609375 291.015625 c 0,6,7
 193.84765625 271.97265625 193.84765625 271.97265625 155.2734375 271.97265625 c 0,8,9
 130.859375 271.97265625 130.859375 271.97265625 111.328125 281.982421875 c 0,10,11
 91.796875 291.9921875 91.796875 291.9921875 77.880859375 309.5703125 c 0,12,13
 63.96484375 327.1484375 63.96484375 327.1484375 56.640625 350.830078125 c 0,14,15
 49.31640625 374.51171875 49.31640625 374.51171875 49.31640625 401.3671875 c 0,16,17
 49.31640625 423.828125 49.31640625 423.828125 54.6875 447.509765625 c 0,18,19
 60.05859375 471.19140625 60.05859375 471.19140625 70.068359375 493.65234375 c 0,20,21
 80.078125 516.11328125 80.078125 516.11328125 94.7265625 536.1328125 c 0,22,23
 109.375 556.15234375 109.375 556.15234375 127.9296875 571.044921875 c 0,24,25
 146.484375 585.9375 146.484375 585.9375 168.701171875 594.7265625 c 0,26,27
 190.91796875 603.515625 190.91796875 603.515625 216.796875 603.515625 c 0,28,29
 240.72265625 603.515625 240.72265625 603.515625 260.25390625 593.994140625 c 0,30,31
 279.78515625 584.47265625 279.78515625 584.47265625 293.45703125 567.138671875 c 0,32,33
 307.12890625 549.8046875 307.12890625 549.8046875 314.453125 526.3671875 c 0,34,35
 321.77734375 502.9296875 321.77734375 502.9296875 321.77734375 475.09765625 c 0,0,1
247.0703125 480.95703125 m 0,36,37
 247.0703125 524.90234375 247.0703125 524.90234375 233.154296875 544.677734375 c 0,38,39
 219.23828125 564.453125 219.23828125 564.453125 198.73046875 564.453125 c 0,40,41
 183.59375 564.453125 183.59375 564.453125 172.36328125 554.931640625 c 0,42,43
 161.1328125 545.41015625 161.1328125 545.41015625 153.076171875 530.029296875 c 0,44,45
 145.01953125 514.6484375 145.01953125 514.6484375 139.6484375 495.1171875 c 0,46,47
 134.27734375 475.5859375 134.27734375 475.5859375 130.859375 456.298828125 c 0,48,49
 127.44140625 437.01171875 127.44140625 437.01171875 126.220703125 419.189453125 c 0,50,51
 125 401.3671875 125 401.3671875 125 389.16015625 c 0,52,53
 125 348.6328125 125 348.6328125 138.18359375 329.833984375 c 0,54,55
 151.3671875 311.03515625 151.3671875 311.03515625 173.33984375 311.03515625 c 0,56,57
 187.01171875 311.03515625 187.01171875 311.03515625 197.75390625 319.82421875 c 0,58,59
 208.49609375 328.61328125 208.49609375 328.61328125 216.552734375 343.017578125 c 0,60,61
 224.609375 357.421875 224.609375 357.421875 230.46875 375.48828125 c 0,62,63
 236.328125 393.5546875 236.328125 393.5546875 239.990234375 412.59765625 c 0,64,65
 243.65234375 431.640625 243.65234375 431.640625 245.361328125 449.462890625 c 0,66,67
 247.0703125 467.28515625 247.0703125 467.28515625 247.0703125 480.95703125 c 0,36,37
126.953125 6.34765625 m 0,68,69
 121.58203125 2.9296875 121.58203125 2.9296875 113.037109375 -0.244140625 c 0,70,71
 104.4921875 -3.41796875 104.4921875 -3.41796875 94.7265625 -6.591796875 c 0,72,73
 84.9609375 -9.765625 84.9609375 -9.765625 75.68359375 -12.20703125 c 0,74,75
 66.40625 -14.6484375 66.40625 -14.6484375 60.546875 -16.6015625 c 0,76,-1
 51.26953125 0 l 0,77,-1
 529.78515625 582.03125 l 0,78,79
 536.1328125 585.44921875 536.1328125 585.44921875 544.677734375 588.623046875 c 0,80,81
 553.22265625 591.796875 553.22265625 591.796875 562.01171875 594.7265625 c 0,82,83
 570.80078125 597.65625 570.80078125 597.65625 579.345703125 600.09765625 c 0,84,85
 587.890625 602.5390625 587.890625 602.5390625 594.23828125 604.00390625 c 0,86,-1
 605.95703125 588.37890625 l 0,87,-1
 126.953125 6.34765625 l 0,68,69
607.421875 187.98828125 m 0,88,89
 607.421875 154.296875 607.421875 154.296875 595.703125 118.1640625 c 0,90,91
 583.984375 82.03125 583.984375 82.03125 562.5 52.490234375 c 0,92,93
 541.015625 22.94921875 541.015625 22.94921875 510.009765625 3.90625 c 0,94,95
 479.00390625 -15.13671875 479.00390625 -15.13671875 440.91796875 -15.13671875 c 0,96,97
 416.50390625 -15.13671875 416.50390625 -15.13671875 396.97265625 -5.126953125 c 0,98,99
 377.44140625 4.8828125 377.44140625 4.8828125 363.525390625 22.4609375 c 0,100,101
 349.609375 40.0390625 349.609375 40.0390625 342.041015625 63.720703125 c 0,102,103
 334.47265625 87.40234375 334.47265625 87.40234375 334.47265625 114.74609375 c 0,104,105
 334.47265625 148.4375 334.47265625 148.4375 346.19140625 184.08203125 c 0,106,107
 357.91015625 219.7265625 357.91015625 219.7265625 379.8828125 249.0234375 c 0,108,109
 401.85546875 278.3203125 401.85546875 278.3203125 432.861328125 297.36328125 c 0,110,111
 463.8671875 316.40625 463.8671875 316.40625 501.953125 316.40625 c 0,112,113
 525.87890625 316.40625 525.87890625 316.40625 545.41015625 306.884765625 c 0,114,115
 564.94140625 297.36328125 564.94140625 297.36328125 578.857421875 280.2734375 c 0,116,117
 592.7734375 263.18359375 592.7734375 263.18359375 600.09765625 239.501953125 c 0,118,119
 607.421875 215.8203125 607.421875 215.8203125 607.421875 187.98828125 c 0,88,89
531.73828125 193.84765625 m 0,120,121
 531.73828125 237.3046875 531.73828125 237.3046875 518.06640625 257.568359375 c 0,122,123
 504.39453125 277.83203125 504.39453125 277.83203125 484.86328125 277.83203125 c 0,124,125
 469.7265625 277.83203125 469.7265625 277.83203125 458.49609375 268.310546875 c 0,126,127
 447.265625 258.7890625 447.265625 258.7890625 438.96484375 243.1640625 c 0,128,129
 430.6640625 227.5390625 430.6640625 227.5390625 425.29296875 208.251953125 c 0,130,131
 419.921875 188.96484375 419.921875 188.96484375 416.748046875 169.43359375 c 0,132,133
 413.57421875 149.90234375 413.57421875 149.90234375 412.109375 132.080078125 c 0,134,135
 410.64453125 114.2578125 410.64453125 114.2578125 410.64453125 102.05078125 c 0,136,137
 410.64453125 62.01171875 410.64453125 62.01171875 423.33984375 42.96875 c 0,138,139
 436.03515625 23.92578125 436.03515625 23.92578125 458.49609375 23.92578125 c 0,140,141
 472.16796875 23.92578125 472.16796875 23.92578125 482.91015625 32.71484375 c 0,142,143
 493.65234375 41.50390625 493.65234375 41.50390625 501.708984375 55.908203125 c 0,144,145
 509.765625 70.3125 509.765625 70.3125 515.625 88.37890625 c 0,146,147
 521.484375 106.4453125 521.484375 106.4453125 524.90234375 125.48828125 c 0,148,149
 528.3203125 144.53125 528.3203125 144.53125 530.029296875 162.353515625 c 0,150,151
 531.73828125 180.17578125 531.73828125 180.17578125 531.73828125 193.84765625 c 0,120,121
EndSplineSet
EndChar

StartChar: ampersand
Encoding: 9 38 9
Width: 597
VWidth: 488
Flags: W
LayerCount: 2
Fore
SplineSet
637.6953125 365.234375 m 0,0,1
 625 350.09765625 625 350.09765625 611.083984375 337.158203125 c 0,2,3
 597.16796875 324.21875 597.16796875 324.21875 585.44921875 315.91796875 c 0,4,5
 569.82421875 324.21875 569.82421875 324.21875 549.560546875 330.078125 c 0,6,7
 529.296875 335.9375 529.296875 335.9375 513.671875 336.9140625 c 0,8,9
 520.5078125 320.80078125 520.5078125 320.80078125 521.240234375 303.22265625 c 0,10,11
 521.97265625 285.64453125 521.97265625 285.64453125 518.5546875 257.32421875 c 0,12,13
 513.671875 224.12109375 513.671875 224.12109375 495.60546875 187.5 c 0,14,15
 477.5390625 150.87890625 477.5390625 150.87890625 449.21875 115.72265625 c 0,16,17
 469.7265625 90.8203125 469.7265625 90.8203125 488.76953125 71.77734375 c 0,18,19
 520.99609375 37.59765625 520.99609375 37.59765625 572.265625 50.29296875 c 0,20,-1
 573.73046875 24.4140625 l 0,21,22
 553.22265625 15.13671875 553.22265625 15.13671875 534.1796875 7.8125 c 0,23,24
 515.13671875 0.48828125 515.13671875 0.48828125 499.755859375 -4.638671875 c 0,25,26
 484.375 -9.765625 484.375 -9.765625 473.14453125 -12.451171875 c 0,27,28
 461.9140625 -15.13671875 461.9140625 -15.13671875 457.03125 -15.13671875 c 0,29,30
 447.265625 -15.13671875 447.265625 -15.13671875 426.7578125 1.953125 c 0,31,32
 406.25 19.04296875 406.25 19.04296875 379.8828125 49.31640625 c 0,33,34
 341.30859375 20.01953125 341.30859375 20.01953125 296.142578125 2.44140625 c 0,35,36
 250.9765625 -15.13671875 250.9765625 -15.13671875 201.66015625 -15.13671875 c 0,37,38
 158.69140625 -15.13671875 158.69140625 -15.13671875 124.51171875 -2.44140625 c 0,39,40
 90.33203125 10.25390625 90.33203125 10.25390625 67.87109375 34.66796875 c 0,41,42
 45.41015625 59.08203125 45.41015625 59.08203125 36.1328125 94.482421875 c 0,43,44
 26.85546875 129.8828125 26.85546875 129.8828125 33.203125 175.78125 c 0,45,46
 40.0390625 229.98046875 40.0390625 229.98046875 82.275390625 283.447265625 c 0,47,48
 124.51171875 336.9140625 124.51171875 336.9140625 196.77734375 387.6953125 c 0,49,50
 188.4765625 422.8515625 188.4765625 422.8515625 185.302734375 457.275390625 c 0,51,52
 182.12890625 491.69921875 182.12890625 491.69921875 186.5234375 523.92578125 c 0,53,54
 191.89453125 563.4765625 191.89453125 563.4765625 208.740234375 597.16796875 c 0,55,56
 225.5859375 630.859375 225.5859375 630.859375 250.244140625 655.517578125 c 0,57,58
 274.90234375 680.17578125 274.90234375 680.17578125 305.17578125 694.091796875 c 0,59,60
 335.44921875 708.0078125 335.44921875 708.0078125 367.1875 708.0078125 c 0,61,62
 396.97265625 708.0078125 396.97265625 708.0078125 416.9921875 697.75390625 c 0,63,64
 437.01171875 687.5 437.01171875 687.5 448.2421875 670.41015625 c 0,65,66
 459.47265625 653.3203125 459.47265625 653.3203125 462.890625 630.859375 c 0,67,68
 466.30859375 608.3984375 466.30859375 608.3984375 462.890625 584.47265625 c 0,69,70
 458.984375 559.5703125 458.984375 559.5703125 446.044921875 535.15625 c 0,71,72
 433.10546875 510.7421875 433.10546875 510.7421875 413.330078125 487.79296875 c 0,73,74
 393.5546875 464.84375 393.5546875 464.84375 368.1640625 443.84765625 c 0,75,76
 342.7734375 422.8515625 342.7734375 422.8515625 314.453125 404.78515625 c 0,77,-1
 287.109375 387.20703125 l 0,78,79
 310.05859375 325.1953125 310.05859375 325.1953125 345.21484375 265.13671875 c 0,80,81
 380.37109375 205.078125 380.37109375 205.078125 417.96875 154.78515625 c 0,82,83
 446.2890625 196.77734375 446.2890625 196.77734375 453.125 237.3046875 c 0,84,85
 456.54296875 259.765625 456.54296875 259.765625 452.880859375 278.80859375 c 0,86,87
 449.21875 297.8515625 449.21875 297.8515625 441.162109375 311.767578125 c 0,88,89
 433.10546875 325.68359375 433.10546875 325.68359375 421.38671875 333.251953125 c 0,90,91
 409.66796875 340.8203125 409.66796875 340.8203125 396.484375 340.8203125 c 0,92,-1
 387.20703125 355.46875 l 0,93,94
 390.13671875 358.3984375 390.13671875 358.3984375 394.775390625 362.79296875 c 0,95,96
 399.4140625 367.1875 399.4140625 367.1875 404.78515625 371.337890625 c 0,97,98
 410.15625 375.48828125 410.15625 375.48828125 415.771484375 378.90625 c 0,99,100
 421.38671875 382.32421875 421.38671875 382.32421875 426.26953125 384.27734375 c 0,101,-1
 628.41796875 384.27734375 l 0,102,-1
 637.6953125 365.234375 l 0,0,1
227.5390625 45.8984375 m 0,103,104
 262.20703125 45.8984375 262.20703125 45.8984375 292.96875 56.640625 c 0,105,106
 323.73046875 67.3828125 323.73046875 67.3828125 350.09765625 85.9375 c 0,107,108
 331.54296875 110.3515625 331.54296875 110.3515625 312.5 138.916015625 c 0,109,110
 293.45703125 167.48046875 293.45703125 167.48046875 275.390625 199.21875 c 0,111,112
 257.32421875 230.95703125 257.32421875 230.95703125 241.455078125 264.6484375 c 0,113,114
 225.5859375 298.33984375 225.5859375 298.33984375 213.37890625 333.0078125 c 0,115,116
 168.45703125 294.921875 168.45703125 294.921875 147.216796875 260.009765625 c 0,117,118
 125.9765625 225.09765625 125.9765625 225.09765625 120.60546875 186.03515625 c 0,119,120
 116.2109375 151.85546875 116.2109375 151.85546875 123.779296875 125.732421875 c 0,121,122
 131.34765625 99.609375 131.34765625 99.609375 146.728515625 81.787109375 c 0,123,124
 162.109375 63.96484375 162.109375 63.96484375 183.349609375 54.931640625 c 0,125,126
 204.58984375 45.8984375 204.58984375 45.8984375 227.5390625 45.8984375 c 0,103,104
261.71875 551.7578125 m 0,127,128
 257.8125 524.4140625 257.8125 524.4140625 260.7421875 495.1171875 c 0,129,130
 263.671875 465.8203125 263.671875 465.8203125 271.97265625 434.5703125 c 0,131,132
 301.26953125 452.1484375 301.26953125 452.1484375 321.533203125 469.482421875 c 0,133,134
 341.796875 486.81640625 341.796875 486.81640625 354.736328125 503.662109375 c 0,135,136
 367.67578125 520.5078125 367.67578125 520.5078125 374.267578125 536.62109375 c 0,137,138
 380.859375 552.734375 380.859375 552.734375 383.30078125 568.359375 c 0,139,140
 386.71875 585.9375 386.71875 585.9375 385.498046875 601.318359375 c 0,141,142
 384.27734375 616.69921875 384.27734375 616.69921875 378.173828125 628.173828125 c 0,143,144
 372.0703125 639.6484375 372.0703125 639.6484375 361.328125 645.99609375 c 0,145,146
 350.5859375 652.34375 350.5859375 652.34375 334.9609375 652.34375 c 0,147,148
 318.84765625 652.34375 318.84765625 652.34375 306.396484375 643.798828125 c 0,149,150
 293.9453125 635.25390625 293.9453125 635.25390625 284.912109375 621.337890625 c 0,151,152
 275.87890625 607.421875 275.87890625 607.421875 270.01953125 589.111328125 c 0,153,154
 264.16015625 570.80078125 264.16015625 570.80078125 261.71875 551.7578125 c 0,127,128
EndSplineSet
EndChar

StartChar: quotesingle
Encoding: 10 39 10
Width: 211
VWidth: 488
Flags: W
LayerCount: 2
Fore
SplineSet
153.3203125 423.828125 m 0,0,1
 145.01953125 419.43359375 145.01953125 419.43359375 134.033203125 417.48046875 c 0,2,3
 123.046875 415.52734375 123.046875 415.52734375 112.3046875 415.52734375 c 0,4,-1
 122.55859375 669.921875 l 0,5,6
 128.41796875 672.8515625 128.41796875 672.8515625 138.671875 677.24609375 c 0,7,8
 148.92578125 681.640625 148.92578125 681.640625 159.912109375 685.791015625 c 0,9,10
 170.8984375 689.94140625 170.8984375 689.94140625 180.908203125 693.359375 c 0,11,12
 190.91796875 696.77734375 190.91796875 696.77734375 196.2890625 698.2421875 c 0,13,-1
 215.8203125 687.01171875 l 0,14,-1
 153.3203125 423.828125 l 0,0,1
EndSplineSet
EndChar

StartChar: parenleft
Encoding: 11 40 11
Width: 299
VWidth: 488
Flags: W
LayerCount: 2
Fore
SplineSet
351.07421875 756.34765625 m 0,0,1
 317.87109375 731.4453125 317.87109375 731.4453125 286.62109375 691.162109375 c 0,2,3
 255.37109375 650.87890625 255.37109375 650.87890625 228.759765625 596.6796875 c 0,4,5
 202.1484375 542.48046875 202.1484375 542.48046875 181.884765625 475.09765625 c 0,6,7
 161.62109375 407.71484375 161.62109375 407.71484375 150.87890625 329.58984375 c 0,8,9
 140.625 258.30078125 140.625 258.30078125 140.625 190.4296875 c 0,10,11
 140.625 122.55859375 140.625 122.55859375 150.390625 63.232421875 c 0,12,13
 160.15625 3.90625 160.15625 3.90625 179.443359375 -44.921875 c 0,14,15
 198.73046875 -93.75 198.73046875 -93.75 227.5390625 -126.953125 c 0,16,-1
 205.56640625 -153.80859375 l 0,17,18
 158.69140625 -127.9296875 158.69140625 -127.9296875 125.732421875 -80.56640625 c 0,19,20
 92.7734375 -33.203125 92.7734375 -33.203125 73.974609375 28.564453125 c 0,21,22
 55.17578125 90.33203125 55.17578125 90.33203125 51.025390625 163.57421875 c 0,23,24
 46.875 236.81640625 46.875 236.81640625 58.10546875 314.453125 c 0,25,26
 69.3359375 394.53125 69.3359375 394.53125 94.7265625 468.26171875 c 0,27,28
 120.1171875 541.9921875 120.1171875 541.9921875 156.25 603.515625 c 0,29,30
 192.3828125 665.0390625 192.3828125 665.0390625 238.525390625 711.42578125 c 0,31,32
 284.66796875 757.8125 284.66796875 757.8125 337.40234375 783.203125 c 0,33,-1
 351.07421875 756.34765625 l 0,0,1
EndSplineSet
EndChar

StartChar: parenright
Encoding: 12 41 12
Width: 299
VWidth: 488
Flags: W
LayerCount: 2
Fore
SplineSet
251.46484375 307.6171875 m 0,0,1
 240.234375 227.05078125 240.234375 227.05078125 214.84375 154.541015625 c 0,2,3
 189.453125 82.03125 189.453125 82.03125 153.076171875 21.97265625 c 0,4,5
 116.69921875 -38.0859375 116.69921875 -38.0859375 70.80078125 -83.251953125 c 0,6,7
 24.90234375 -128.41796875 24.90234375 -128.41796875 -27.83203125 -153.80859375 c 0,8,-1
 -42.48046875 -126.953125 l 0,9,10
 -9.27734375 -102.05078125 -9.27734375 -102.05078125 21.97265625 -62.744140625 c 0,11,12
 53.22265625 -23.4375 53.22265625 -23.4375 80.078125 29.541015625 c 0,13,14
 106.93359375 82.51953125 106.93359375 82.51953125 127.197265625 148.4375 c 0,15,16
 147.4609375 214.35546875 147.4609375 214.35546875 158.69140625 292.96875 c 0,17,18
 168.45703125 363.76953125 168.45703125 363.76953125 168.45703125 432.6171875 c 0,19,20
 168.45703125 501.46484375 168.45703125 501.46484375 158.935546875 562.255859375 c 0,21,22
 149.4140625 623.046875 149.4140625 623.046875 130.126953125 673.095703125 c 0,23,24
 110.83984375 723.14453125 110.83984375 723.14453125 82.03125 756.34765625 c 0,25,-1
 104.00390625 783.203125 l 0,26,27
 150.87890625 756.8359375 150.87890625 756.8359375 183.59375 708.49609375 c 0,28,29
 216.30859375 660.15625 216.30859375 660.15625 235.107421875 596.923828125 c 0,30,31
 253.90625 533.69140625 253.90625 533.69140625 258.056640625 459.47265625 c 0,32,33
 262.20703125 385.25390625 262.20703125 385.25390625 251.46484375 307.6171875 c 0,0,1
EndSplineSet
EndChar

StartChar: asterisk
Encoding: 13 42 13
Width: 356
VWidth: 488
Flags: W
LayerCount: 2
Fore
SplineSet
207.51953125 585.44921875 m 0,0,-1
 332.51953125 679.19921875 l 0,1,2
 336.9140625 675.78125 336.9140625 675.78125 343.017578125 670.8984375 c 0,3,4
 349.12109375 666.015625 349.12109375 666.015625 355.46875 660.400390625 c 0,5,6
 361.81640625 654.78515625 361.81640625 654.78515625 367.431640625 649.4140625 c 0,7,8
 373.046875 644.04296875 373.046875 644.04296875 375.48828125 640.13671875 c 0,9,-1
 372.0703125 617.67578125 l 0,10,-1
 220.21484375 554.19921875 l 0,11,-1
 343.75 496.58203125 l 0,12,13
 342.7734375 490.72265625 342.7734375 490.72265625 340.8203125 481.93359375 c 0,14,15
 338.8671875 473.14453125 338.8671875 473.14453125 336.669921875 463.623046875 c 0,16,17
 334.47265625 454.1015625 334.47265625 454.1015625 332.03125 445.556640625 c 0,18,19
 329.58984375 437.01171875 329.58984375 437.01171875 327.63671875 431.640625 c 0,20,-1
 307.12890625 420.8984375 l 0,21,-1
 199.70703125 522.4609375 l 0,22,-1
 197.75390625 371.58203125 l 0,23,24
 192.3828125 368.65234375 192.3828125 368.65234375 184.326171875 364.501953125 c 0,25,26
 176.26953125 360.3515625 176.26953125 360.3515625 167.724609375 356.689453125 c 0,27,28
 159.1796875 353.02734375 159.1796875 353.02734375 151.123046875 350.09765625 c 0,29,30
 143.06640625 347.16796875 143.06640625 347.16796875 138.18359375 346.19140625 c 0,31,-1
 122.55859375 357.421875 l 0,32,-1
 165.52734375 521.97265625 l 0,33,-1
 40.52734375 428.22265625 l 0,34,35
 36.1328125 431.640625 36.1328125 431.640625 29.78515625 436.767578125 c 0,36,37
 23.4375 441.89453125 23.4375 441.89453125 17.08984375 447.265625 c 0,38,39
 10.7421875 452.63671875 10.7421875 452.63671875 5.37109375 458.0078125 c 0,40,41
 0 463.37890625 0 463.37890625 -2.9296875 467.28515625 c 0,42,-1
 1.953125 490.234375 l 0,43,-1
 152.83203125 553.22265625 l 0,44,-1
 28.80859375 610.83984375 l 0,45,46
 30.2734375 616.69921875 30.2734375 616.69921875 32.2265625 625.732421875 c 0,47,48
 34.1796875 634.765625 34.1796875 634.765625 36.376953125 644.04296875 c 0,49,50
 38.57421875 653.3203125 38.57421875 653.3203125 40.771484375 661.865234375 c 0,51,52
 42.96875 670.41015625 42.96875 670.41015625 45.41015625 675.29296875 c 0,53,-1
 65.91796875 686.03515625 l 0,54,-1
 172.8515625 584.9609375 l 0,55,-1
 175.29296875 736.328125 l 0,56,57
 180.17578125 739.2578125 180.17578125 739.2578125 188.232421875 743.1640625 c 0,58,59
 196.2890625 747.0703125 196.2890625 747.0703125 204.833984375 750.732421875 c 0,60,61
 213.37890625 754.39453125 213.37890625 754.39453125 221.435546875 757.568359375 c 0,62,63
 229.4921875 760.7421875 229.4921875 760.7421875 234.86328125 762.20703125 c 0,64,-1
 251.46484375 749.51171875 l 0,65,-1
 207.51953125 585.44921875 l 0,0,-1
EndSplineSet
EndChar

StartChar: plus
Encoding: 14 43 14
Width: 383
VWidth: 488
Flags: W
LayerCount: 2
Fore
SplineSet
359.375 292.48046875 m 0,0,1
 357.91015625 287.109375 357.91015625 287.109375 355.224609375 280.517578125 c 0,2,3
 352.5390625 273.92578125 352.5390625 273.92578125 349.12109375 267.08984375 c 0,4,5
 345.703125 260.25390625 345.703125 260.25390625 342.529296875 254.150390625 c 0,6,7
 339.35546875 248.046875 339.35546875 248.046875 337.40234375 244.140625 c 0,8,-1
 224.12109375 244.140625 l 0,9,-1
 205.56640625 113.28125 l 0,10,11
 201.171875 110.83984375 201.171875 110.83984375 194.82421875 108.3984375 c 0,12,13
 188.4765625 105.95703125 188.4765625 105.95703125 181.640625 103.759765625 c 0,14,15
 174.8046875 101.5625 174.8046875 101.5625 168.212890625 99.853515625 c 0,16,17
 161.62109375 98.14453125 161.62109375 98.14453125 156.73828125 97.16796875 c 0,18,-1
 145.99609375 108.88671875 l 0,19,-1
 165.0390625 244.140625 l 0,20,-1
 44.43359375 244.140625 l 0,21,-1
 34.1796875 257.32421875 l 0,22,23
 36.1328125 262.20703125 36.1328125 262.20703125 38.818359375 268.5546875 c 0,24,25
 41.50390625 274.90234375 41.50390625 274.90234375 44.677734375 281.494140625 c 0,26,27
 47.8515625 288.0859375 47.8515625 288.0859375 51.025390625 294.189453125 c 0,28,29
 54.19921875 300.29296875 54.19921875 300.29296875 56.640625 305.17578125 c 0,30,-1
 173.33984375 305.17578125 l 0,31,-1
 192.3828125 437.01171875 l 0,32,33
 196.2890625 438.4765625 196.2890625 438.4765625 202.63671875 440.4296875 c 0,34,35
 208.984375 442.3828125 208.984375 442.3828125 216.064453125 444.580078125 c 0,36,37
 223.14453125 446.77734375 223.14453125 446.77734375 229.736328125 448.73046875 c 0,38,39
 236.328125 450.68359375 236.328125 450.68359375 241.2109375 452.1484375 c 0,40,-1
 251.953125 439.94140625 l 0,41,-1
 232.91015625 305.17578125 l 0,42,-1
 349.609375 305.17578125 l 0,43,-1
 359.375 292.48046875 l 0,0,1
EndSplineSet
EndChar

StartChar: comma
Encoding: 15 44 15
Width: 211
VWidth: 488
Flags: W
LayerCount: 2
Fore
SplineSet
159.66796875 52.24609375 m 0,0,1
 159.66796875 37.109375 159.66796875 37.109375 153.564453125 18.5546875 c 0,2,3
 147.4609375 0 147.4609375 0 136.71875 -20.263671875 c 0,4,5
 125.9765625 -40.52734375 125.9765625 -40.52734375 111.81640625 -61.03515625 c 0,6,7
 97.65625 -81.54296875 97.65625 -81.54296875 81.298828125 -100.09765625 c 0,8,9
 64.94140625 -118.65234375 64.94140625 -118.65234375 47.36328125 -134.27734375 c 0,10,11
 29.78515625 -149.90234375 29.78515625 -149.90234375 12.6953125 -160.15625 c 0,12,-1
 -7.8125 -140.625 l 0,13,14
 29.78515625 -101.07421875 29.78515625 -101.07421875 48.33984375 -66.162109375 c 0,15,16
 66.89453125 -31.25 66.89453125 -31.25 66.89453125 -3.90625 c 0,17,18
 66.89453125 5.37109375 66.89453125 5.37109375 64.208984375 13.916015625 c 0,19,20
 61.5234375 22.4609375 61.5234375 22.4609375 55.17578125 28.80859375 c 0,21,22
 48.828125 35.15625 48.828125 35.15625 38.57421875 38.330078125 c 0,23,24
 28.3203125 41.50390625 28.3203125 41.50390625 13.671875 39.55078125 c 0,25,-1
 9.765625 66.89453125 l 0,26,27
 16.11328125 72.75390625 16.11328125 72.75390625 31.73828125 81.54296875 c 0,28,29
 47.36328125 90.33203125 47.36328125 90.33203125 65.673828125 98.14453125 c 0,30,31
 83.984375 105.95703125 83.984375 105.95703125 101.07421875 111.328125 c 0,32,33
 118.1640625 116.69921875 118.1640625 116.69921875 126.953125 116.69921875 c 0,34,35
 135.7421875 111.81640625 135.7421875 111.81640625 141.845703125 106.93359375 c 0,36,37
 147.94921875 102.05078125 147.94921875 102.05078125 151.85546875 94.7265625 c 0,38,39
 155.76171875 87.40234375 155.76171875 87.40234375 157.71484375 77.392578125 c 0,40,41
 159.66796875 67.3828125 159.66796875 67.3828125 159.66796875 52.24609375 c 0,0,1
EndSplineSet
EndChar

StartChar: hyphen
Encoding: 16 45 16
Width: 319
Flags: W
LayerCount: 2
Fore
SplineSet
270 207 m 1,0,-1
 30 207 l 1,1,-1
 43 274 l 1,2,-1
 283 274 l 1,3,-1
 270 207 l 1,0,-1
EndSplineSet
Refer: 356 727 N 1 0 0 1 0 0 2
EndChar

StartChar: period
Encoding: 17 46 17
Width: 211
VWidth: 488
Flags: W
LayerCount: 2
Fore
SplineSet
149.4140625 76.66015625 m 0,0,1
 149.4140625 61.03515625 149.4140625 61.03515625 144.04296875 44.921875 c 0,2,3
 138.671875 28.80859375 138.671875 28.80859375 128.41796875 15.380859375 c 0,4,5
 118.1640625 1.953125 118.1640625 1.953125 103.515625 -6.591796875 c 0,6,7
 88.8671875 -15.13671875 88.8671875 -15.13671875 70.80078125 -15.13671875 c 0,8,9
 47.36328125 -15.13671875 47.36328125 -15.13671875 35.64453125 -1.220703125 c 0,10,11
 23.92578125 12.6953125 23.92578125 12.6953125 23.92578125 35.64453125 c 0,12,13
 23.92578125 50.29296875 23.92578125 50.29296875 29.78515625 66.162109375 c 0,14,15
 35.64453125 82.03125 35.64453125 82.03125 46.142578125 94.970703125 c 0,16,17
 56.640625 107.91015625 56.640625 107.91015625 71.2890625 116.455078125 c 0,18,19
 85.9375 125 85.9375 125 103.02734375 125 c 0,20,21
 125 125 125 125 137.20703125 111.572265625 c 0,22,23
 149.4140625 98.14453125 149.4140625 98.14453125 149.4140625 76.66015625 c 0,0,1
EndSplineSet
EndChar

StartChar: slash
Encoding: 18 47 18
Width: 411
VWidth: 488
Flags: W
LayerCount: 2
Fore
SplineSet
30.76171875 -136.71875 m 0,0,1
 25.87890625 -140.13671875 25.87890625 -140.13671875 16.6015625 -144.04296875 c 0,2,3
 7.32421875 -147.94921875 7.32421875 -147.94921875 -2.9296875 -151.85546875 c 0,4,5
 -13.18359375 -155.76171875 -13.18359375 -155.76171875 -23.193359375 -158.935546875 c 0,6,7
 -33.203125 -162.109375 -33.203125 -162.109375 -39.0625 -164.0625 c 0,8,-1
 -54.19921875 -150.87890625 l 0,9,-1
 386.23046875 754.39453125 l 0,10,11
 392.578125 758.7890625 392.578125 758.7890625 401.3671875 762.6953125 c 0,12,13
 410.15625 766.6015625 410.15625 766.6015625 419.189453125 770.01953125 c 0,14,15
 428.22265625 773.4375 428.22265625 773.4375 437.01171875 776.123046875 c 0,16,17
 445.80078125 778.80859375 445.80078125 778.80859375 453.125 780.76171875 c 0,18,-1
 469.7265625 769.04296875 l 0,19,-1
 30.76171875 -136.71875 l 0,0,1
EndSplineSet
EndChar

StartChar: zero
Encoding: 19 48 19
Width: 419
VWidth: 488
Flags: W
LayerCount: 2
Fore
SplineSet
407.2265625 382.8125 m 0,0,1
 407.2265625 351.07421875 407.2265625 351.07421875 404.052734375 317.138671875 c 0,2,3
 400.87890625 283.203125 400.87890625 283.203125 393.5546875 248.779296875 c 0,4,5
 386.23046875 214.35546875 386.23046875 214.35546875 373.779296875 180.419921875 c 0,6,7
 361.328125 146.484375 361.328125 146.484375 342.7734375 115.234375 c 0,8,9
 326.66015625 87.890625 326.66015625 87.890625 307.6171875 64.208984375 c 0,10,11
 288.57421875 40.52734375 288.57421875 40.52734375 266.357421875 22.94921875 c 0,12,13
 244.140625 5.37109375 244.140625 5.37109375 218.26171875 -4.8828125 c 0,14,15
 192.3828125 -15.13671875 192.3828125 -15.13671875 162.59765625 -15.13671875 c 0,16,17
 127.44140625 -15.13671875 127.44140625 -15.13671875 101.07421875 1.953125 c 0,18,19
 74.70703125 19.04296875 74.70703125 19.04296875 56.640625 49.072265625 c 0,20,21
 38.57421875 79.1015625 38.57421875 79.1015625 29.541015625 119.384765625 c 0,22,23
 20.5078125 159.66796875 20.5078125 159.66796875 20.5078125 206.0546875 c 0,24,25
 20.5078125 270.01953125 20.5078125 270.01953125 34.1796875 336.9140625 c 0,26,27
 47.8515625 403.80859375 47.8515625 403.80859375 82.51953125 469.23828125 c 0,28,29
 97.65625 497.0703125 97.65625 497.0703125 116.69921875 521.484375 c 0,30,31
 135.7421875 545.8984375 135.7421875 545.8984375 158.447265625 563.96484375 c 0,32,33
 181.15234375 582.03125 181.15234375 582.03125 207.51953125 592.529296875 c 0,34,35
 233.88671875 603.02734375 233.88671875 603.02734375 264.6484375 603.02734375 c 0,36,37
 298.828125 603.02734375 298.828125 603.02734375 325.439453125 586.9140625 c 0,38,39
 352.05078125 570.80078125 352.05078125 570.80078125 370.1171875 541.50390625 c 0,40,41
 388.18359375 512.20703125 388.18359375 512.20703125 397.705078125 471.6796875 c 0,42,43
 407.2265625 431.15234375 407.2265625 431.15234375 407.2265625 382.8125 c 0,0,1
318.359375 387.6953125 m 0,44,45
 318.359375 427.24609375 318.359375 427.24609375 312.255859375 456.787109375 c 0,46,47
 306.15234375 486.328125 306.15234375 486.328125 295.41015625 505.859375 c 0,48,49
 284.66796875 525.390625 284.66796875 525.390625 270.263671875 534.912109375 c 0,50,51
 255.859375 544.43359375 255.859375 544.43359375 239.74609375 544.43359375 c 0,52,53
 212.890625 544.43359375 212.890625 544.43359375 192.87109375 525.87890625 c 0,54,55
 172.8515625 507.32421875 172.8515625 507.32421875 158.203125 477.5390625 c 0,56,57
 143.5546875 447.75390625 143.5546875 447.75390625 134.033203125 410.400390625 c 0,58,59
 124.51171875 373.046875 124.51171875 373.046875 118.896484375 335.44921875 c 0,60,61
 113.28125 297.8515625 113.28125 297.8515625 111.083984375 264.16015625 c 0,62,63
 108.88671875 230.46875 108.88671875 230.46875 108.88671875 207.51953125 c 0,64,65
 108.88671875 125.48828125 108.88671875 125.48828125 129.8828125 84.9609375 c 0,66,67
 150.87890625 44.43359375 150.87890625 44.43359375 188.96484375 44.43359375 c 0,68,69
 215.33203125 44.43359375 215.33203125 44.43359375 235.107421875 62.744140625 c 0,70,71
 254.8828125 81.0546875 254.8828125 81.0546875 269.287109375 110.3515625 c 0,72,73
 283.69140625 139.6484375 283.69140625 139.6484375 293.212890625 177.001953125 c 0,74,75
 302.734375 214.35546875 302.734375 214.35546875 308.349609375 252.44140625 c 0,76,77
 313.96484375 290.52734375 313.96484375 290.52734375 316.162109375 326.171875 c 0,78,79
 318.359375 361.81640625 318.359375 361.81640625 318.359375 387.6953125 c 0,44,45
EndSplineSet
EndChar

StartChar: one
Encoding: 20 49 20
Width: 419
VWidth: 488
Flags: W
LayerCount: 2
Fore
SplineSet
342.28515625 0 m 0,0,-1
 31.73828125 0 l 0,1,-1
 35.64453125 30.76171875 l 0,2,3
 71.2890625 35.15625 71.2890625 35.15625 95.21484375 40.771484375 c 0,4,5
 119.140625 46.38671875 119.140625 46.38671875 133.7890625 52.24609375 c 0,6,7
 148.4375 58.10546875 148.4375 58.10546875 154.78515625 63.720703125 c 0,8,9
 161.1328125 69.3359375 161.1328125 69.3359375 162.109375 74.70703125 c 0,10,-1
 213.37890625 454.1015625 l 0,11,12
 216.30859375 473.6328125 216.30859375 473.6328125 216.552734375 484.375 c 0,13,14
 216.796875 495.1171875 216.796875 495.1171875 212.40234375 501.953125 c 0,15,16
 209.9609375 504.8828125 209.9609375 504.8828125 202.880859375 506.8359375 c 0,17,18
 195.80078125 508.7890625 195.80078125 508.7890625 182.12890625 508.30078125 c 0,19,20
 168.45703125 507.8125 168.45703125 507.8125 147.4609375 504.8828125 c 0,21,22
 126.46484375 501.953125 126.46484375 501.953125 96.6796875 495.1171875 c 0,23,-1
 89.84375 524.90234375 l 0,24,25
 108.88671875 530.2734375 108.88671875 530.2734375 137.6953125 540.52734375 c 0,26,27
 166.50390625 550.78125 166.50390625 550.78125 196.533203125 562.98828125 c 0,28,29
 226.5625 575.1953125 226.5625 575.1953125 253.90625 587.158203125 c 0,30,31
 281.25 599.12109375 281.25 599.12109375 297.36328125 607.91015625 c 0,32,-1
 312.01171875 589.84375 l 0,33,-1
 242.1875 74.70703125 l 0,34,35
 241.2109375 69.82421875 241.2109375 69.82421875 245.361328125 64.208984375 c 0,36,37
 249.51171875 58.59375 249.51171875 58.59375 260.986328125 52.734375 c 0,38,39
 272.4609375 46.875 272.4609375 46.875 293.212890625 41.015625 c 0,40,41
 313.96484375 35.15625 313.96484375 35.15625 346.6796875 30.76171875 c 0,42,-1
 342.28515625 0 l 0,0,-1
EndSplineSet
EndChar

StartChar: two
Encoding: 21 50 21
Width: 419
VWidth: 488
Flags: W
LayerCount: 2
Fore
SplineSet
399.4140625 493.65234375 m 0,0,1
 399.4140625 473.14453125 399.4140625 473.14453125 393.798828125 450.927734375 c 0,2,3
 388.18359375 428.7109375 388.18359375 428.7109375 374.51171875 401.611328125 c 0,4,5
 360.83984375 374.51171875 360.83984375 374.51171875 338.37890625 341.796875 c 0,6,7
 315.91796875 309.08203125 315.91796875 309.08203125 282.2265625 268.310546875 c 0,8,9
 248.53515625 227.5390625 248.53515625 227.5390625 202.1484375 177.24609375 c 0,10,11
 155.76171875 126.953125 155.76171875 126.953125 95.21484375 65.4296875 c 0,12,-1
 275.87890625 65.4296875 l 0,13,14
 283.203125 65.4296875 283.203125 65.4296875 289.55078125 69.3359375 c 0,15,16
 295.8984375 73.2421875 295.8984375 73.2421875 301.513671875 79.833984375 c 0,17,18
 307.12890625 86.42578125 307.12890625 86.42578125 311.5234375 94.7265625 c 0,19,20
 315.91796875 103.02734375 315.91796875 103.02734375 319.82421875 111.81640625 c 0,21,22
 328.61328125 131.8359375 328.61328125 131.8359375 333.984375 158.203125 c 0,23,-1
 359.86328125 151.3671875 l 0,24,-1
 333.0078125 0 l 0,25,-1
 5.859375 0 l 0,26,-1
 -1.46484375 36.1328125 l 0,27,28
 86.9140625 124.51171875 86.9140625 124.51171875 147.216796875 192.87109375 c 0,29,30
 207.51953125 261.23046875 207.51953125 261.23046875 244.62890625 314.208984375 c 0,31,32
 281.73828125 367.1875 281.73828125 367.1875 297.8515625 406.73828125 c 0,33,34
 313.96484375 446.2890625 313.96484375 446.2890625 313.96484375 477.05078125 c 0,35,36
 313.96484375 512.20703125 313.96484375 512.20703125 293.9453125 532.958984375 c 0,37,38
 273.92578125 553.7109375 273.92578125 553.7109375 236.81640625 553.7109375 c 0,39,40
 218.75 553.7109375 218.75 553.7109375 204.58984375 544.43359375 c 0,41,42
 190.4296875 535.15625 190.4296875 535.15625 180.419921875 520.751953125 c 0,43,44
 170.41015625 506.34765625 170.41015625 506.34765625 164.55078125 488.525390625 c 0,45,46
 158.69140625 470.703125 158.69140625 470.703125 157.2265625 453.61328125 c 0,47,48
 141.6015625 444.3359375 141.6015625 444.3359375 122.55859375 437.01171875 c 0,49,50
 103.515625 429.6875 103.515625 429.6875 83.0078125 427.24609375 c 0,51,-1
 72.265625 448.2421875 l 0,52,53
 75.68359375 473.6328125 75.68359375 473.6328125 93.994140625 500.9765625 c 0,54,55
 112.3046875 528.3203125 112.3046875 528.3203125 140.13671875 551.025390625 c 0,56,57
 167.96875 573.73046875 167.96875 573.73046875 202.880859375 588.37890625 c 0,58,59
 237.79296875 603.02734375 237.79296875 603.02734375 274.4140625 603.02734375 c 0,60,61
 299.8046875 603.02734375 299.8046875 603.02734375 322.509765625 596.923828125 c 0,62,63
 345.21484375 590.8203125 345.21484375 590.8203125 362.3046875 577.63671875 c 0,64,65
 379.39453125 564.453125 379.39453125 564.453125 389.404296875 543.701171875 c 0,66,67
 399.4140625 522.94921875 399.4140625 522.94921875 399.4140625 493.65234375 c 0,0,1
EndSplineSet
EndChar

StartChar: three
Encoding: 22 51 22
Width: 419
VWidth: 488
Flags: W
LayerCount: 2
Fore
SplineSet
375 488.76953125 m 0,0,1
 375 462.40234375 375 462.40234375 366.455078125 439.697265625 c 0,2,3
 357.91015625 416.9921875 357.91015625 416.9921875 342.7734375 398.193359375 c 0,4,5
 327.63671875 379.39453125 327.63671875 379.39453125 307.12890625 364.990234375 c 0,6,7
 286.62109375 350.5859375 286.62109375 350.5859375 263.18359375 340.8203125 c 0,8,9
 286.1328125 337.890625 286.1328125 337.890625 304.6875 326.171875 c 0,10,11
 323.2421875 314.453125 323.2421875 314.453125 336.181640625 296.38671875 c 0,12,13
 349.12109375 278.3203125 349.12109375 278.3203125 356.201171875 255.859375 c 0,14,15
 363.28125 233.3984375 363.28125 233.3984375 363.28125 208.984375 c 0,16,17
 363.28125 163.0859375 363.28125 163.0859375 347.16796875 122.314453125 c 0,18,19
 331.0546875 81.54296875 331.0546875 81.54296875 301.7578125 51.025390625 c 0,20,21
 272.4609375 20.5078125 272.4609375 20.5078125 231.689453125 2.685546875 c 0,22,23
 190.91796875 -15.13671875 190.91796875 -15.13671875 141.6015625 -15.13671875 c 0,24,25
 106.93359375 -15.13671875 106.93359375 -15.13671875 69.82421875 3.41796875 c 0,26,27
 32.71484375 21.97265625 32.71484375 21.97265625 -3.41796875 60.546875 c 0,28,-1
 18.06640625 98.14453125 l 0,29,30
 36.62109375 81.54296875 36.62109375 81.54296875 52.24609375 70.80078125 c 0,31,32
 67.87109375 60.05859375 67.87109375 60.05859375 82.51953125 53.466796875 c 0,33,34
 97.16796875 46.875 97.16796875 46.875 111.81640625 44.189453125 c 0,35,36
 126.46484375 41.50390625 126.46484375 41.50390625 143.5546875 41.50390625 c 0,37,38
 174.8046875 41.50390625 174.8046875 41.50390625 199.462890625 53.7109375 c 0,39,40
 224.12109375 65.91796875 224.12109375 65.91796875 241.2109375 87.158203125 c 0,41,42
 258.30078125 108.3984375 258.30078125 108.3984375 267.08984375 136.23046875 c 0,43,44
 275.87890625 164.0625 275.87890625 164.0625 275.87890625 195.80078125 c 0,45,46
 275.87890625 223.14453125 275.87890625 223.14453125 268.06640625 242.919921875 c 0,47,48
 260.25390625 262.6953125 260.25390625 262.6953125 247.314453125 275.634765625 c 0,49,50
 234.375 288.57421875 234.375 288.57421875 217.529296875 294.677734375 c 0,51,52
 200.68359375 300.78125 200.68359375 300.78125 183.10546875 300.78125 c 0,53,-1
 173.828125 300.78125 l 0,54,55
 170.8984375 300.78125 170.8984375 300.78125 168.212890625 300.29296875 c 0,56,57
 165.52734375 299.8046875 165.52734375 299.8046875 162.109375 299.31640625 c 0,58,59
 158.69140625 298.828125 158.69140625 298.828125 151.85546875 297.36328125 c 0,60,-1
 148.92578125 331.54296875 l 0,61,62
 178.22265625 339.84375 178.22265625 339.84375 204.1015625 351.806640625 c 0,63,64
 229.98046875 363.76953125 229.98046875 363.76953125 249.0234375 381.103515625 c 0,65,66
 268.06640625 398.4375 268.06640625 398.4375 279.052734375 422.119140625 c 0,67,68
 290.0390625 445.80078125 290.0390625 445.80078125 290.0390625 477.05078125 c 0,69,70
 290.0390625 492.1875 290.0390625 492.1875 286.376953125 506.103515625 c 0,71,72
 282.71484375 520.01953125 282.71484375 520.01953125 274.658203125 530.76171875 c 0,73,74
 266.6015625 541.50390625 266.6015625 541.50390625 254.39453125 547.607421875 c 0,75,76
 242.1875 553.7109375 242.1875 553.7109375 224.609375 553.7109375 c 0,77,78
 208.984375 553.7109375 208.984375 553.7109375 195.80078125 547.36328125 c 0,79,80
 182.6171875 541.015625 182.6171875 541.015625 173.583984375 530.029296875 c 0,81,82
 164.55078125 519.04296875 164.55078125 519.04296875 159.66796875 504.39453125 c 0,83,84
 154.78515625 489.74609375 154.78515625 489.74609375 155.2734375 472.65625 c 0,85,86
 138.18359375 463.37890625 138.18359375 463.37890625 118.1640625 456.787109375 c 0,87,88
 98.14453125 450.1953125 98.14453125 450.1953125 78.125 448.73046875 c 0,89,-1
 67.3828125 468.75 l 0,90,91
 70.3125 489.2578125 70.3125 489.2578125 86.9140625 512.6953125 c 0,92,93
 103.515625 536.1328125 103.515625 536.1328125 128.90625 556.396484375 c 0,94,95
 154.296875 576.66015625 154.296875 576.66015625 186.279296875 589.84375 c 0,96,97
 218.26171875 603.02734375 218.26171875 603.02734375 251.953125 603.02734375 c 0,98,99
 284.66796875 603.02734375 284.66796875 603.02734375 308.10546875 593.505859375 c 0,100,101
 331.54296875 583.984375 331.54296875 583.984375 346.435546875 568.115234375 c 0,102,103
 361.328125 552.24609375 361.328125 552.24609375 368.1640625 531.494140625 c 0,104,105
 375 510.7421875 375 510.7421875 375 488.76953125 c 0,0,1
EndSplineSet
EndChar

StartChar: four
Encoding: 23 52 23
Width: 419
VWidth: 488
Flags: W
LayerCount: 2
Fore
SplineSet
388.18359375 210.9375 m 0,0,1
 375.9765625 195.80078125 375.9765625 195.80078125 365.234375 186.279296875 c 0,2,3
 354.4921875 176.7578125 354.4921875 176.7578125 343.75 168.45703125 c 0,4,-1
 313.4765625 168.45703125 l 0,5,-1
 298.33984375 55.6640625 l 0,6,7
 297.36328125 51.7578125 297.36328125 51.7578125 299.8046875 48.583984375 c 0,8,9
 302.24609375 45.41015625 302.24609375 45.41015625 308.837890625 41.748046875 c 0,10,11
 315.4296875 38.0859375 315.4296875 38.0859375 326.904296875 34.1796875 c 0,12,13
 338.37890625 30.2734375 338.37890625 30.2734375 355.95703125 25.87890625 c 0,14,-1
 352.5390625 0 l 0,15,-1
 122.0703125 0 l 0,16,-1
 125.48828125 25.87890625 l 0,17,18
 154.78515625 31.25 154.78515625 31.25 173.583984375 35.888671875 c 0,19,20
 192.3828125 40.52734375 192.3828125 40.52734375 203.125 44.677734375 c 0,21,22
 213.8671875 48.828125 213.8671875 48.828125 218.26171875 52.734375 c 0,23,24
 222.65625 56.640625 222.65625 56.640625 223.6328125 61.03515625 c 0,25,-1
 237.3046875 168.45703125 l 0,26,-1
 21.97265625 168.45703125 l 0,27,-1
 7.8125 186.03515625 l 0,28,-1
 277.34375 572.265625 l 0,29,30
 298.828125 580.56640625 298.828125 580.56640625 319.82421875 590.33203125 c 0,31,32
 340.8203125 600.09765625 340.8203125 600.09765625 356.4453125 607.91015625 c 0,33,-1
 370.60546875 589.84375 l 0,34,-1
 321.2890625 226.07421875 l 0,35,-1
 377.44140625 226.07421875 l 0,36,-1
 388.18359375 210.9375 l 0,0,1
90.33203125 225.5859375 m 0,37,-1
 246.09375 225.5859375 l 0,38,-1
 283.69140625 498.046875 l 0,39,-1
 90.33203125 225.5859375 l 0,37,-1
EndSplineSet
EndChar

StartChar: five
Encoding: 24 53 24
Width: 419
VWidth: 488
Flags: W
LayerCount: 2
Fore
SplineSet
408.203125 582.03125 m 0,0,1
 402.34375 573.73046875 402.34375 573.73046875 394.287109375 564.453125 c 0,2,3
 386.23046875 555.17578125 386.23046875 555.17578125 377.685546875 546.142578125 c 0,4,5
 369.140625 537.109375 369.140625 537.109375 361.328125 529.541015625 c 0,6,7
 353.515625 521.97265625 353.515625 521.97265625 347.65625 517.578125 c 0,8,-1
 169.921875 517.578125 l 0,9,10
 166.9921875 503.41796875 166.9921875 503.41796875 161.62109375 482.177734375 c 0,11,12
 156.25 460.9375 156.25 460.9375 150.390625 439.208984375 c 0,13,14
 144.53125 417.48046875 144.53125 417.48046875 139.16015625 398.193359375 c 0,15,16
 133.7890625 378.90625 133.7890625 378.90625 130.37109375 368.1640625 c 0,17,18
 148.4375 375 148.4375 375 173.33984375 379.150390625 c 0,19,20
 198.2421875 383.30078125 198.2421875 383.30078125 222.65625 383.30078125 c 0,21,22
 258.7890625 383.30078125 258.7890625 383.30078125 286.376953125 370.60546875 c 0,23,24
 313.96484375 357.91015625 313.96484375 357.91015625 332.51953125 336.9140625 c 0,25,26
 351.07421875 315.91796875 351.07421875 315.91796875 360.595703125 288.818359375 c 0,27,28
 370.1171875 261.71875 370.1171875 261.71875 370.1171875 232.91015625 c 0,29,30
 370.1171875 203.61328125 370.1171875 203.61328125 363.76953125 174.072265625 c 0,31,32
 357.421875 144.53125 357.421875 144.53125 344.970703125 116.943359375 c 0,33,34
 332.51953125 89.35546875 332.51953125 89.35546875 314.208984375 65.185546875 c 0,35,36
 295.8984375 41.015625 295.8984375 41.015625 271.97265625 23.193359375 c 0,37,38
 248.046875 5.37109375 248.046875 5.37109375 218.75 -4.8828125 c 0,39,40
 189.453125 -15.13671875 189.453125 -15.13671875 155.2734375 -15.13671875 c 0,41,42
 113.76953125 -15.13671875 113.76953125 -15.13671875 74.21875 3.173828125 c 0,43,44
 34.66796875 21.484375 34.66796875 21.484375 -0.48828125 60.05859375 c 0,45,-1
 22.4609375 96.19140625 l 0,46,47
 44.43359375 79.1015625 44.43359375 79.1015625 62.744140625 68.115234375 c 0,48,49
 81.0546875 57.12890625 81.0546875 57.12890625 96.435546875 50.78125 c 0,50,51
 111.81640625 44.43359375 111.81640625 44.43359375 125.48828125 42.236328125 c 0,52,53
 139.16015625 40.0390625 139.16015625 40.0390625 152.34375 40.0390625 c 0,54,55
 185.546875 40.0390625 185.546875 40.0390625 210.44921875 55.17578125 c 0,56,57
 235.3515625 70.3125 235.3515625 70.3125 251.708984375 94.970703125 c 0,58,59
 268.06640625 119.62890625 268.06640625 119.62890625 276.123046875 150.87890625 c 0,60,61
 284.1796875 182.12890625 284.1796875 182.12890625 284.1796875 214.35546875 c 0,62,63
 284.1796875 238.28125 284.1796875 238.28125 277.587890625 258.30078125 c 0,64,65
 270.99609375 278.3203125 270.99609375 278.3203125 258.056640625 292.96875 c 0,66,67
 245.1171875 307.6171875 245.1171875 307.6171875 226.806640625 315.673828125 c 0,68,69
 208.49609375 323.73046875 208.49609375 323.73046875 185.05859375 323.73046875 c 0,70,71
 156.25 323.73046875 156.25 323.73046875 129.8828125 313.232421875 c 0,72,73
 103.515625 302.734375 103.515625 302.734375 77.1484375 283.203125 c 0,74,-1
 58.59375 299.31640625 l 0,75,76
 63.96484375 316.89453125 63.96484375 316.89453125 70.80078125 340.33203125 c 0,77,78
 77.63671875 363.76953125 77.63671875 363.76953125 84.9609375 390.13671875 c 0,79,80
 92.28515625 416.50390625 92.28515625 416.50390625 99.853515625 444.3359375 c 0,81,82
 107.421875 472.16796875 107.421875 472.16796875 114.013671875 498.291015625 c 0,83,84
 120.60546875 524.4140625 120.60546875 524.4140625 126.220703125 547.607421875 c 0,85,86
 131.8359375 570.80078125 131.8359375 570.80078125 134.765625 587.890625 c 0,87,-1
 342.28515625 587.890625 l 0,88,89
 354.4921875 587.890625 354.4921875 587.890625 364.501953125 589.111328125 c 0,90,91
 374.51171875 590.33203125 374.51171875 590.33203125 381.34765625 592.28515625 c 0,92,93
 389.6484375 594.23828125 389.6484375 594.23828125 395.99609375 597.16796875 c 0,94,-1
 408.203125 582.03125 l 0,0,1
EndSplineSet
EndChar

StartChar: six
Encoding: 25 54 25
Width: 419
VWidth: 488
Flags: W
LayerCount: 2
Fore
SplineSet
402.34375 576.171875 m 0,0,1
 348.14453125 564.94140625 348.14453125 564.94140625 305.17578125 541.50390625 c 0,2,3
 262.20703125 518.06640625 262.20703125 518.06640625 229.4921875 485.107421875 c 0,4,5
 196.77734375 452.1484375 196.77734375 452.1484375 173.828125 411.1328125 c 0,6,7
 150.87890625 370.1171875 150.87890625 370.1171875 137.6953125 324.21875 c 0,8,9
 170.41015625 353.515625 170.41015625 353.515625 200.927734375 365.966796875 c 0,10,11
 231.4453125 378.41796875 231.4453125 378.41796875 257.8125 378.41796875 c 0,12,13
 289.0625 378.41796875 289.0625 378.41796875 313.4765625 368.408203125 c 0,14,15
 337.890625 358.3984375 337.890625 358.3984375 354.736328125 339.84375 c 0,16,17
 371.58203125 321.2890625 371.58203125 321.2890625 380.126953125 294.921875 c 0,18,19
 388.671875 268.5546875 388.671875 268.5546875 388.671875 235.83984375 c 0,20,21
 388.671875 209.47265625 388.671875 209.47265625 382.32421875 180.419921875 c 0,22,23
 375.9765625 151.3671875 375.9765625 151.3671875 363.76953125 123.53515625 c 0,24,25
 351.5625 95.703125 351.5625 95.703125 333.740234375 70.556640625 c 0,26,27
 315.91796875 45.41015625 315.91796875 45.41015625 292.96875 26.3671875 c 0,28,29
 270.01953125 7.32421875 270.01953125 7.32421875 242.67578125 -3.90625 c 0,30,31
 215.33203125 -15.13671875 215.33203125 -15.13671875 183.59375 -15.13671875 c 0,32,33
 150.87890625 -15.13671875 150.87890625 -15.13671875 123.046875 -1.220703125 c 0,34,35
 95.21484375 12.6953125 95.21484375 12.6953125 74.70703125 37.841796875 c 0,36,37
 54.19921875 62.98828125 54.19921875 62.98828125 42.724609375 98.14453125 c 0,38,39
 31.25 133.30078125 31.25 133.30078125 31.25 175.78125 c 0,40,41
 31.25 228.515625 31.25 228.515625 42.48046875 279.052734375 c 0,42,43
 53.7109375 329.58984375 53.7109375 329.58984375 75.439453125 375.244140625 c 0,44,45
 97.16796875 420.8984375 97.16796875 420.8984375 128.662109375 460.44921875 c 0,46,47
 160.15625 500 160.15625 500 200.927734375 530.76171875 c 0,48,49
 241.69921875 561.5234375 241.69921875 561.5234375 291.259765625 582.03125 c 0,50,51
 340.8203125 602.5390625 340.8203125 602.5390625 397.94921875 609.86328125 c 0,52,-1
 402.34375 576.171875 l 0,0,1
227.05078125 319.3359375 m 0,53,54
 201.66015625 319.3359375 201.66015625 319.3359375 176.025390625 305.6640625 c 0,55,56
 150.390625 291.9921875 150.390625 291.9921875 124.0234375 262.6953125 c 0,57,58
 120.60546875 242.67578125 120.60546875 242.67578125 119.384765625 222.65625 c 0,59,60
 118.1640625 202.63671875 118.1640625 202.63671875 118.1640625 182.12890625 c 0,61,62
 118.1640625 145.5078125 118.1640625 145.5078125 124.51171875 118.896484375 c 0,63,64
 130.859375 92.28515625 130.859375 92.28515625 142.578125 74.951171875 c 0,65,66
 154.296875 57.6171875 154.296875 57.6171875 170.8984375 49.31640625 c 0,67,68
 187.5 41.015625 187.5 41.015625 208.0078125 41.015625 c 0,69,70
 226.5625 41.015625 226.5625 41.015625 240.72265625 49.072265625 c 0,71,72
 254.8828125 57.12890625 254.8828125 57.12890625 265.625 70.80078125 c 0,73,74
 276.3671875 84.47265625 276.3671875 84.47265625 283.935546875 102.05078125 c 0,75,76
 291.50390625 119.62890625 291.50390625 119.62890625 296.142578125 138.18359375 c 0,77,78
 300.78125 156.73828125 300.78125 156.73828125 302.734375 175.537109375 c 0,79,80
 304.6875 194.3359375 304.6875 194.3359375 304.6875 209.9609375 c 0,81,82
 304.6875 243.1640625 304.6875 243.1640625 297.607421875 264.404296875 c 0,83,84
 290.52734375 285.64453125 290.52734375 285.64453125 279.296875 297.8515625 c 0,85,86
 268.06640625 310.05859375 268.06640625 310.05859375 254.39453125 314.697265625 c 0,87,88
 240.72265625 319.3359375 240.72265625 319.3359375 227.05078125 319.3359375 c 0,53,54
EndSplineSet
EndChar

StartChar: seven
Encoding: 26 55 26
Width: 419
VWidth: 488
Flags: W
LayerCount: 2
Fore
SplineSet
439.94140625 569.82421875 m 0,0,1
 412.109375 517.08984375 412.109375 517.08984375 384.27734375 463.37890625 c 0,2,3
 356.4453125 409.66796875 356.4453125 409.66796875 330.078125 357.666015625 c 0,4,5
 303.7109375 305.6640625 303.7109375 305.6640625 279.296875 256.34765625 c 0,6,7
 254.8828125 207.03125 254.8828125 207.03125 233.88671875 163.818359375 c 0,8,9
 212.890625 120.60546875 212.890625 120.60546875 196.044921875 84.47265625 c 0,10,11
 179.19921875 48.33984375 179.19921875 48.33984375 167.96875 22.4609375 c 0,12,13
 150.87890625 10.25390625 150.87890625 10.25390625 127.685546875 0.732421875 c 0,14,15
 104.4921875 -8.7890625 104.4921875 -8.7890625 82.03125 -15.13671875 c 0,16,-1
 64.94140625 2.44140625 l 0,17,18
 113.28125 77.1484375 113.28125 77.1484375 152.83203125 143.798828125 c 0,19,20
 192.3828125 210.44921875 192.3828125 210.44921875 226.806640625 272.94921875 c 0,21,22
 261.23046875 335.44921875 261.23046875 335.44921875 292.96875 395.751953125 c 0,23,24
 324.70703125 456.0546875 324.70703125 456.0546875 357.91015625 518.06640625 c 0,25,-1
 155.76171875 518.06640625 l 0,26,27
 149.4140625 518.06640625 149.4140625 518.06640625 142.578125 517.08984375 c 0,28,29
 135.7421875 516.11328125 135.7421875 516.11328125 127.197265625 509.033203125 c 0,30,31
 118.65234375 501.953125 118.65234375 501.953125 108.3984375 486.81640625 c 0,32,33
 98.14453125 471.6796875 98.14453125 471.6796875 84.47265625 443.359375 c 0,34,-1
 62.98828125 453.125 l 0,35,36
 65.91796875 464.35546875 65.91796875 464.35546875 70.80078125 482.91015625 c 0,37,38
 75.68359375 501.46484375 75.68359375 501.46484375 81.0546875 521.240234375 c 0,39,40
 86.42578125 541.015625 86.42578125 541.015625 91.796875 559.08203125 c 0,41,42
 97.16796875 577.1484375 97.16796875 577.1484375 101.5625 587.890625 c 0,43,-1
 427.734375 587.890625 l 0,44,-1
 439.94140625 569.82421875 l 0,0,1
EndSplineSet
EndChar

StartChar: eight
Encoding: 27 56 27
Width: 419
VWidth: 488
Flags: W
LayerCount: 2
Fore
SplineSet
398.92578125 488.76953125 m 0,0,1
 398.92578125 462.40234375 398.92578125 462.40234375 389.16015625 440.4296875 c 0,2,3
 379.39453125 418.45703125 379.39453125 418.45703125 363.76953125 400.146484375 c 0,4,5
 348.14453125 381.8359375 348.14453125 381.8359375 328.125 366.455078125 c 0,6,7
 308.10546875 351.07421875 308.10546875 351.07421875 287.59765625 337.890625 c 0,8,9
 306.15234375 326.66015625 306.15234375 326.66015625 322.998046875 313.4765625 c 0,10,11
 339.84375 300.29296875 339.84375 300.29296875 352.783203125 282.958984375 c 0,12,13
 365.72265625 265.625 365.72265625 265.625 373.291015625 243.896484375 c 0,14,15
 380.859375 222.16796875 380.859375 222.16796875 380.859375 193.84765625 c 0,16,17
 380.859375 152.34375 380.859375 152.34375 363.037109375 114.501953125 c 0,18,19
 345.21484375 76.66015625 345.21484375 76.66015625 315.185546875 47.8515625 c 0,20,21
 285.15625 19.04296875 285.15625 19.04296875 245.849609375 1.953125 c 0,22,23
 206.54296875 -15.13671875 206.54296875 -15.13671875 164.0625 -15.13671875 c 0,24,25
 126.46484375 -15.13671875 126.46484375 -15.13671875 98.876953125 -3.90625 c 0,26,27
 71.2890625 7.32421875 71.2890625 7.32421875 52.734375 26.3671875 c 0,28,29
 34.1796875 45.41015625 34.1796875 45.41015625 25.146484375 70.068359375 c 0,30,31
 16.11328125 94.7265625 16.11328125 94.7265625 16.11328125 122.0703125 c 0,32,33
 16.11328125 154.78515625 16.11328125 154.78515625 28.564453125 183.349609375 c 0,34,35
 41.015625 211.9140625 41.015625 211.9140625 61.279296875 235.83984375 c 0,36,37
 81.54296875 259.765625 81.54296875 259.765625 107.666015625 279.296875 c 0,38,39
 133.7890625 298.828125 133.7890625 298.828125 161.1328125 313.4765625 c 0,40,41
 145.01953125 323.2421875 145.01953125 323.2421875 130.37109375 334.228515625 c 0,42,43
 115.72265625 345.21484375 115.72265625 345.21484375 104.736328125 359.619140625 c 0,44,45
 93.75 374.0234375 93.75 374.0234375 87.158203125 392.08984375 c 0,46,47
 80.56640625 410.15625 80.56640625 410.15625 80.56640625 434.08203125 c 0,48,49
 80.56640625 469.7265625 80.56640625 469.7265625 96.19140625 500.732421875 c 0,50,51
 111.81640625 531.73828125 111.81640625 531.73828125 137.939453125 554.443359375 c 0,52,53
 164.0625 577.1484375 164.0625 577.1484375 197.998046875 590.087890625 c 0,54,55
 231.93359375 603.02734375 231.93359375 603.02734375 269.04296875 603.02734375 c 0,56,57
 301.7578125 603.02734375 301.7578125 603.02734375 326.171875 594.482421875 c 0,58,59
 350.5859375 585.9375 350.5859375 585.9375 366.69921875 570.80078125 c 0,60,61
 382.8125 555.6640625 382.8125 555.6640625 390.869140625 534.66796875 c 0,62,63
 398.92578125 513.671875 398.92578125 513.671875 398.92578125 488.76953125 c 0,0,1
292.96875 166.9921875 m 0,64,65
 292.96875 192.87109375 292.96875 192.87109375 284.66796875 212.158203125 c 0,66,67
 276.3671875 231.4453125 276.3671875 231.4453125 262.939453125 246.09375 c 0,68,69
 249.51171875 260.7421875 249.51171875 260.7421875 231.93359375 272.216796875 c 0,70,71
 214.35546875 283.69140625 214.35546875 283.69140625 195.80078125 293.9453125 c 0,72,73
 174.31640625 278.3203125 174.31640625 278.3203125 157.2265625 261.71875 c 0,74,75
 140.13671875 245.1171875 140.13671875 245.1171875 128.173828125 226.07421875 c 0,76,77
 116.2109375 207.03125 116.2109375 207.03125 109.619140625 184.326171875 c 0,78,79
 103.02734375 161.62109375 103.02734375 161.62109375 103.02734375 133.7890625 c 0,80,81
 103.02734375 112.79296875 103.02734375 112.79296875 109.130859375 95.21484375 c 0,82,83
 115.234375 77.63671875 115.234375 77.63671875 126.708984375 64.94140625 c 0,84,85
 138.18359375 52.24609375 138.18359375 52.24609375 154.052734375 45.166015625 c 0,86,87
 169.921875 38.0859375 169.921875 38.0859375 189.453125 38.0859375 c 0,88,89
 214.35546875 38.0859375 214.35546875 38.0859375 233.642578125 49.560546875 c 0,90,91
 252.9296875 61.03515625 252.9296875 61.03515625 266.11328125 79.345703125 c 0,92,93
 279.296875 97.65625 279.296875 97.65625 286.1328125 120.849609375 c 0,94,95
 292.96875 144.04296875 292.96875 144.04296875 292.96875 166.9921875 c 0,64,65
156.25 458.984375 m 0,96,97
 156.25 440.4296875 156.25 440.4296875 164.0625 426.26953125 c 0,98,99
 171.875 412.109375 171.875 412.109375 185.05859375 400.390625 c 0,100,101
 198.2421875 388.671875 198.2421875 388.671875 215.33203125 378.41796875 c 0,102,103
 232.421875 368.1640625 232.421875 368.1640625 251.46484375 357.91015625 c 0,104,105
 265.625 368.65234375 265.625 368.65234375 277.83203125 380.859375 c 0,106,107
 290.0390625 393.06640625 290.0390625 393.06640625 298.828125 407.470703125 c 0,108,109
 307.6171875 421.875 307.6171875 421.875 312.744140625 438.720703125 c 0,110,111
 317.87109375 455.56640625 317.87109375 455.56640625 317.87109375 476.07421875 c 0,112,113
 317.87109375 514.16015625 317.87109375 514.16015625 296.875 533.935546875 c 0,114,115
 275.87890625 553.7109375 275.87890625 553.7109375 240.234375 553.7109375 c 0,116,117
 222.16796875 553.7109375 222.16796875 553.7109375 206.787109375 545.654296875 c 0,118,119
 191.40625 537.59765625 191.40625 537.59765625 180.17578125 524.169921875 c 0,120,121
 168.9453125 510.7421875 168.9453125 510.7421875 162.59765625 493.65234375 c 0,122,123
 156.25 476.5625 156.25 476.5625 156.25 458.984375 c 0,96,97
EndSplineSet
EndChar

StartChar: nine
Encoding: 28 57 28
Width: 419
VWidth: 488
Flags: W
LayerCount: 2
Fore
SplineSet
409.1796875 420.8984375 m 0,0,1
 409.1796875 337.40234375 409.1796875 337.40234375 385.25390625 262.20703125 c 0,2,3
 361.328125 187.01171875 361.328125 187.01171875 314.453125 127.685546875 c 0,4,5
 267.578125 68.359375 267.578125 68.359375 198.73046875 29.296875 c 0,6,7
 129.8828125 -9.765625 129.8828125 -9.765625 40.0390625 -20.99609375 c 0,8,-1
 35.64453125 12.6953125 l 0,9,10
 93.75 25.87890625 93.75 25.87890625 138.671875 49.8046875 c 0,11,12
 183.59375 73.73046875 183.59375 73.73046875 216.796875 106.93359375 c 0,13,14
 250 140.13671875 250 140.13671875 271.97265625 181.884765625 c 0,15,16
 293.9453125 223.6328125 293.9453125 223.6328125 305.6640625 272.94921875 c 0,17,18
 280.2734375 246.58203125 280.2734375 246.58203125 248.779296875 229.98046875 c 0,19,20
 217.28515625 213.37890625 217.28515625 213.37890625 181.15234375 213.37890625 c 0,21,22
 149.90234375 213.37890625 149.90234375 213.37890625 125.732421875 224.12109375 c 0,23,24
 101.5625 234.86328125 101.5625 234.86328125 84.716796875 253.90625 c 0,25,26
 67.87109375 272.94921875 67.87109375 272.94921875 59.08203125 298.583984375 c 0,27,28
 50.29296875 324.21875 50.29296875 324.21875 50.29296875 354.00390625 c 0,29,30
 50.29296875 381.8359375 50.29296875 381.8359375 57.861328125 411.376953125 c 0,31,32
 65.4296875 440.91796875 65.4296875 440.91796875 79.345703125 468.505859375 c 0,33,34
 93.26171875 496.09375 93.26171875 496.09375 112.79296875 520.5078125 c 0,35,36
 132.32421875 544.921875 132.32421875 544.921875 156.494140625 563.232421875 c 0,37,38
 180.6640625 581.54296875 180.6640625 581.54296875 208.740234375 592.28515625 c 0,39,40
 236.81640625 603.02734375 236.81640625 603.02734375 268.06640625 603.02734375 c 0,41,42
 297.8515625 603.02734375 297.8515625 603.02734375 323.486328125 592.041015625 c 0,43,44
 349.12109375 581.0546875 349.12109375 581.0546875 368.1640625 558.59375 c 0,45,46
 387.20703125 536.1328125 387.20703125 536.1328125 398.193359375 501.708984375 c 0,47,48
 409.1796875 467.28515625 409.1796875 467.28515625 409.1796875 420.8984375 c 0,0,1
211.9140625 273.4375 m 0,49,50
 244.62890625 273.4375 244.62890625 273.4375 270.263671875 290.52734375 c 0,51,52
 295.8984375 307.6171875 295.8984375 307.6171875 316.40625 334.47265625 c 0,53,54
 320.80078125 371.09375 320.80078125 371.09375 320.80078125 410.64453125 c 0,55,56
 320.80078125 449.21875 320.80078125 449.21875 314.208984375 475.5859375 c 0,57,58
 307.6171875 501.953125 307.6171875 501.953125 296.875 518.06640625 c 0,59,60
 286.1328125 534.1796875 286.1328125 534.1796875 272.216796875 541.259765625 c 0,61,62
 258.30078125 548.33984375 258.30078125 548.33984375 243.65234375 548.33984375 c 0,63,64
 211.9140625 548.33984375 211.9140625 548.33984375 190.91796875 531.494140625 c 0,65,66
 169.921875 514.6484375 169.921875 514.6484375 157.2265625 489.2578125 c 0,67,68
 144.53125 463.8671875 144.53125 463.8671875 139.16015625 433.349609375 c 0,69,70
 133.7890625 402.83203125 133.7890625 402.83203125 133.7890625 375.9765625 c 0,71,72
 133.7890625 345.703125 133.7890625 345.703125 141.357421875 325.927734375 c 0,73,74
 148.92578125 306.15234375 148.92578125 306.15234375 160.64453125 294.43359375 c 0,75,76
 172.36328125 282.71484375 172.36328125 282.71484375 186.03515625 278.076171875 c 0,77,78
 199.70703125 273.4375 199.70703125 273.4375 211.9140625 273.4375 c 0,49,50
EndSplineSet
EndChar

StartChar: colon
Encoding: 29 58 29
Width: 211
VWidth: 488
Flags: W
LayerCount: 2
Fore
SplineSet
149.4140625 76.66015625 m 0,0,1
 149.4140625 61.03515625 149.4140625 61.03515625 144.04296875 44.921875 c 0,2,3
 138.671875 28.80859375 138.671875 28.80859375 128.41796875 15.380859375 c 0,4,5
 118.1640625 1.953125 118.1640625 1.953125 103.515625 -6.591796875 c 0,6,7
 88.8671875 -15.13671875 88.8671875 -15.13671875 70.80078125 -15.13671875 c 0,8,9
 47.36328125 -15.13671875 47.36328125 -15.13671875 35.64453125 -1.220703125 c 0,10,11
 23.92578125 12.6953125 23.92578125 12.6953125 23.92578125 35.64453125 c 0,12,13
 23.92578125 50.29296875 23.92578125 50.29296875 29.78515625 66.162109375 c 0,14,15
 35.64453125 82.03125 35.64453125 82.03125 46.142578125 94.970703125 c 0,16,17
 56.640625 107.91015625 56.640625 107.91015625 71.2890625 116.455078125 c 0,18,19
 85.9375 125 85.9375 125 103.02734375 125 c 0,20,21
 125 125 125 125 137.20703125 111.572265625 c 0,22,23
 149.4140625 98.14453125 149.4140625 98.14453125 149.4140625 76.66015625 c 0,0,1
197.265625 420.41015625 m 0,24,25
 197.265625 405.2734375 197.265625 405.2734375 191.89453125 389.16015625 c 0,26,27
 186.5234375 373.046875 186.5234375 373.046875 176.513671875 359.86328125 c 0,28,29
 166.50390625 346.6796875 166.50390625 346.6796875 151.85546875 338.37890625 c 0,30,31
 137.20703125 330.078125 137.20703125 330.078125 119.140625 330.078125 c 0,32,33
 95.703125 330.078125 95.703125 330.078125 83.984375 343.75 c 0,34,35
 72.265625 357.421875 72.265625 357.421875 72.265625 380.37109375 c 0,36,37
 72.265625 395.01953125 72.265625 395.01953125 78.125 410.64453125 c 0,38,39
 83.984375 426.26953125 83.984375 426.26953125 94.482421875 439.208984375 c 0,40,41
 104.98046875 452.1484375 104.98046875 452.1484375 119.384765625 460.693359375 c 0,42,43
 133.7890625 469.23828125 133.7890625 469.23828125 150.87890625 469.23828125 c 0,44,45
 172.8515625 469.23828125 172.8515625 469.23828125 185.05859375 455.810546875 c 0,46,47
 197.265625 442.3828125 197.265625 442.3828125 197.265625 420.41015625 c 0,24,25
EndSplineSet
EndChar

StartChar: semicolon
Encoding: 30 59 30
Width: 211
VWidth: 488
Flags: W
LayerCount: 2
Fore
SplineSet
159.66796875 52.24609375 m 0,0,1
 159.66796875 37.109375 159.66796875 37.109375 153.564453125 18.5546875 c 0,2,3
 147.4609375 0 147.4609375 0 136.71875 -20.263671875 c 0,4,5
 125.9765625 -40.52734375 125.9765625 -40.52734375 111.81640625 -61.03515625 c 0,6,7
 97.65625 -81.54296875 97.65625 -81.54296875 81.298828125 -100.09765625 c 0,8,9
 64.94140625 -118.65234375 64.94140625 -118.65234375 47.36328125 -134.27734375 c 0,10,11
 29.78515625 -149.90234375 29.78515625 -149.90234375 12.6953125 -160.15625 c 0,12,-1
 -7.8125 -140.625 l 0,13,14
 29.78515625 -101.07421875 29.78515625 -101.07421875 48.33984375 -66.162109375 c 0,15,16
 66.89453125 -31.25 66.89453125 -31.25 66.89453125 -3.90625 c 0,17,18
 66.89453125 5.37109375 66.89453125 5.37109375 64.208984375 13.916015625 c 0,19,20
 61.5234375 22.4609375 61.5234375 22.4609375 55.17578125 28.80859375 c 0,21,22
 48.828125 35.15625 48.828125 35.15625 38.57421875 38.330078125 c 0,23,24
 28.3203125 41.50390625 28.3203125 41.50390625 13.671875 39.55078125 c 0,25,-1
 9.765625 66.89453125 l 0,26,27
 16.11328125 72.75390625 16.11328125 72.75390625 31.73828125 81.54296875 c 0,28,29
 47.36328125 90.33203125 47.36328125 90.33203125 65.673828125 98.14453125 c 0,30,31
 83.984375 105.95703125 83.984375 105.95703125 101.07421875 111.328125 c 0,32,33
 118.1640625 116.69921875 118.1640625 116.69921875 126.953125 116.69921875 c 0,34,35
 135.7421875 111.81640625 135.7421875 111.81640625 141.845703125 106.93359375 c 0,36,37
 147.94921875 102.05078125 147.94921875 102.05078125 151.85546875 94.7265625 c 0,38,39
 155.76171875 87.40234375 155.76171875 87.40234375 157.71484375 77.392578125 c 0,40,41
 159.66796875 67.3828125 159.66796875 67.3828125 159.66796875 52.24609375 c 0,0,1
197.265625 420.41015625 m 0,42,43
 197.265625 405.2734375 197.265625 405.2734375 191.89453125 389.16015625 c 0,44,45
 186.5234375 373.046875 186.5234375 373.046875 176.7578125 359.86328125 c 0,46,47
 166.9921875 346.6796875 166.9921875 346.6796875 152.34375 338.37890625 c 0,48,49
 137.6953125 330.078125 137.6953125 330.078125 119.62890625 330.078125 c 0,50,51
 96.19140625 330.078125 96.19140625 330.078125 84.228515625 343.75 c 0,52,53
 72.265625 357.421875 72.265625 357.421875 72.265625 380.37109375 c 0,54,55
 72.265625 395.01953125 72.265625 395.01953125 78.125 410.64453125 c 0,56,57
 83.984375 426.26953125 83.984375 426.26953125 94.482421875 439.208984375 c 0,58,59
 104.98046875 452.1484375 104.98046875 452.1484375 119.62890625 460.693359375 c 0,60,61
 134.27734375 469.23828125 134.27734375 469.23828125 151.3671875 469.23828125 c 0,62,63
 173.33984375 469.23828125 173.33984375 469.23828125 185.302734375 455.810546875 c 0,64,65
 197.265625 442.3828125 197.265625 442.3828125 197.265625 420.41015625 c 0,42,43
EndSplineSet
EndChar

StartChar: less
Encoding: 31 60 31
Width: 417
VWidth: 488
Flags: W
LayerCount: 2
Fore
SplineSet
400.87890625 429.19921875 m 0,0,1
 398.92578125 424.31640625 398.92578125 424.31640625 396.240234375 416.9921875 c 0,2,3
 393.5546875 409.66796875 393.5546875 409.66796875 390.869140625 401.85546875 c 0,4,5
 388.18359375 394.04296875 388.18359375 394.04296875 385.25390625 386.71875 c 0,6,7
 382.32421875 379.39453125 382.32421875 379.39453125 380.37109375 375 c 0,8,-1
 122.55859375 275.87890625 l 0,9,-1
 354.98046875 176.26953125 l 0,10,-1
 361.328125 157.2265625 l 0,11,12
 350.09765625 147.4609375 350.09765625 147.4609375 341.064453125 139.6484375 c 0,13,14
 332.03125 131.8359375 332.03125 131.8359375 316.89453125 122.55859375 c 0,15,-1
 36.62109375 243.1640625 l 0,16,-1
 25.87890625 258.30078125 l 0,17,18
 27.34375 264.16015625 27.34375 264.16015625 30.029296875 270.99609375 c 0,19,20
 32.71484375 277.83203125 32.71484375 277.83203125 35.64453125 284.66796875 c 0,21,22
 38.57421875 291.50390625 38.57421875 291.50390625 41.259765625 297.8515625 c 0,23,24
 43.9453125 304.19921875 43.9453125 304.19921875 46.38671875 308.59375 c 0,25,-1
 390.13671875 442.3828125 l 0,26,-1
 400.87890625 429.19921875 l 0,0,1
EndSplineSet
EndChar

StartChar: equal
Encoding: 32 61 32
Width: 417
VWidth: 488
Flags: W
LayerCount: 2
Fore
SplineSet
378.90625 219.23828125 m 0,0,1
 377.44140625 213.8671875 377.44140625 213.8671875 374.51171875 207.275390625 c 0,2,3
 371.58203125 200.68359375 371.58203125 200.68359375 368.408203125 193.84765625 c 0,4,5
 365.234375 187.01171875 365.234375 187.01171875 362.060546875 180.908203125 c 0,6,7
 358.88671875 174.8046875 358.88671875 174.8046875 356.93359375 170.8984375 c 0,8,-1
 33.203125 170.8984375 l 0,9,-1
 23.4375 184.08203125 l 0,10,11
 25.390625 188.96484375 25.390625 188.96484375 28.076171875 195.3125 c 0,12,13
 30.76171875 201.66015625 30.76171875 201.66015625 33.935546875 208.251953125 c 0,14,15
 37.109375 214.84375 37.109375 214.84375 40.283203125 220.947265625 c 0,16,17
 43.45703125 227.05078125 43.45703125 227.05078125 45.8984375 231.93359375 c 0,18,-1
 369.140625 231.93359375 l 0,19,-1
 378.90625 219.23828125 l 0,0,1
398.4375 365.72265625 m 0,20,21
 396.97265625 360.3515625 396.97265625 360.3515625 394.287109375 353.759765625 c 0,22,23
 391.6015625 347.16796875 391.6015625 347.16796875 388.18359375 340.33203125 c 0,24,25
 384.765625 333.49609375 384.765625 333.49609375 381.591796875 327.392578125 c 0,26,27
 378.41796875 321.2890625 378.41796875 321.2890625 376.46484375 317.3828125 c 0,28,-1
 53.22265625 317.3828125 l 0,29,-1
 42.96875 330.56640625 l 0,30,31
 44.921875 335.44921875 44.921875 335.44921875 47.607421875 341.796875 c 0,32,33
 50.29296875 348.14453125 50.29296875 348.14453125 53.466796875 354.736328125 c 0,34,35
 56.640625 361.328125 56.640625 361.328125 59.814453125 367.431640625 c 0,36,37
 62.98828125 373.53515625 62.98828125 373.53515625 65.4296875 378.41796875 c 0,38,-1
 388.671875 378.41796875 l 0,39,-1
 398.4375 365.72265625 l 0,20,21
EndSplineSet
EndChar

StartChar: greater
Encoding: 33 62 33
Width: 417
VWidth: 488
Flags: W
LayerCount: 2
Fore
SplineSet
389.16015625 306.640625 m 0,0,1
 385.25390625 295.41015625 385.25390625 295.41015625 379.39453125 280.76171875 c 0,2,3
 373.53515625 266.11328125 373.53515625 266.11328125 368.1640625 256.34765625 c 0,4,-1
 24.4140625 122.55859375 l 0,5,-1
 14.16015625 136.23046875 l 0,6,7
 16.11328125 141.11328125 16.11328125 141.11328125 18.5546875 148.4375 c 0,8,9
 20.99609375 155.76171875 20.99609375 155.76171875 23.681640625 163.57421875 c 0,10,11
 26.3671875 171.38671875 26.3671875 171.38671875 29.052734375 178.7109375 c 0,12,13
 31.73828125 186.03515625 31.73828125 186.03515625 34.1796875 190.4296875 c 0,14,-1
 291.9921875 289.0625 l 0,15,-1
 59.5703125 388.671875 l 0,16,-1
 53.22265625 407.71484375 l 0,17,18
 59.08203125 412.59765625 59.08203125 412.59765625 63.720703125 416.9921875 c 0,19,20
 68.359375 421.38671875 68.359375 421.38671875 73.486328125 425.537109375 c 0,21,22
 78.61328125 429.6875 78.61328125 429.6875 84.47265625 433.837890625 c 0,23,24
 90.33203125 437.98828125 90.33203125 437.98828125 97.65625 442.3828125 c 0,25,-1
 377.9296875 321.77734375 l 0,26,-1
 389.16015625 306.640625 l 0,0,1
EndSplineSet
EndChar

StartChar: question
Encoding: 34 63 34
Width: 407
VWidth: 488
Flags: W
LayerCount: 2
Fore
SplineSet
408.69140625 579.1015625 m 0,0,1
 408.69140625 536.62109375 408.69140625 536.62109375 395.751953125 504.638671875 c 0,2,3
 382.8125 472.65625 382.8125 472.65625 363.037109375 446.2890625 c 0,4,5
 343.26171875 419.921875 343.26171875 419.921875 319.580078125 396.97265625 c 0,6,7
 295.8984375 374.0234375 295.8984375 374.0234375 274.4140625 350.341796875 c 0,8,9
 252.9296875 326.66015625 252.9296875 326.66015625 236.81640625 300.048828125 c 0,10,11
 220.703125 273.4375 220.703125 273.4375 215.8203125 239.2578125 c 0,12,-1
 209.9609375 193.84765625 l 0,13,14
 200.68359375 187.01171875 200.68359375 187.01171875 190.91796875 181.640625 c 0,15,16
 181.15234375 176.26953125 181.15234375 176.26953125 168.9453125 172.36328125 c 0,17,-1
 157.71484375 182.6171875 l 0,18,-1
 160.15625 240.72265625 l 0,19,20
 161.1328125 272.4609375 161.1328125 272.4609375 172.8515625 299.8046875 c 0,21,22
 184.5703125 327.1484375 184.5703125 327.1484375 201.904296875 351.5625 c 0,23,24
 219.23828125 375.9765625 219.23828125 375.9765625 239.2578125 398.92578125 c 0,25,26
 259.27734375 421.875 259.27734375 421.875 276.3671875 445.80078125 c 0,27,28
 293.45703125 469.7265625 293.45703125 469.7265625 304.6875 495.361328125 c 0,29,30
 315.91796875 520.99609375 315.91796875 520.99609375 315.91796875 550.78125 c 0,31,32
 315.91796875 596.6796875 315.91796875 596.6796875 296.38671875 623.046875 c 0,33,34
 276.85546875 649.4140625 276.85546875 649.4140625 238.28125 649.4140625 c 0,35,36
 219.23828125 649.4140625 219.23828125 649.4140625 204.833984375 640.380859375 c 0,37,38
 190.4296875 631.34765625 190.4296875 631.34765625 181.640625 615.72265625 c 0,39,40
 172.8515625 600.09765625 172.8515625 600.09765625 170.41015625 579.345703125 c 0,41,42
 167.96875 558.59375 167.96875 558.59375 172.36328125 535.15625 c 0,43,44
 150.87890625 525.390625 150.87890625 525.390625 130.126953125 520.01953125 c 0,45,46
 109.375 514.6484375 109.375 514.6484375 87.890625 512.20703125 c 0,47,-1
 76.66015625 528.80859375 l 0,48,49
 76.66015625 560.05859375 76.66015625 560.05859375 91.064453125 590.33203125 c 0,50,51
 105.46875 620.60546875 105.46875 620.60546875 132.32421875 644.53125 c 0,52,53
 159.1796875 668.45703125 159.1796875 668.45703125 197.021484375 683.349609375 c 0,54,55
 234.86328125 698.2421875 234.86328125 698.2421875 281.25 698.2421875 c 0,56,57
 313.4765625 698.2421875 313.4765625 698.2421875 337.40234375 688.96484375 c 0,58,59
 361.328125 679.6875 361.328125 679.6875 377.197265625 663.57421875 c 0,60,61
 393.06640625 647.4609375 393.06640625 647.4609375 400.87890625 625.732421875 c 0,62,63
 408.69140625 604.00390625 408.69140625 604.00390625 408.69140625 579.1015625 c 0,0,1
228.02734375 76.66015625 m 0,64,65
 228.02734375 61.03515625 228.02734375 61.03515625 222.65625 44.921875 c 0,66,67
 217.28515625 28.80859375 217.28515625 28.80859375 207.03125 15.380859375 c 0,68,69
 196.77734375 1.953125 196.77734375 1.953125 182.12890625 -6.591796875 c 0,70,71
 167.48046875 -15.13671875 167.48046875 -15.13671875 149.4140625 -15.13671875 c 0,72,73
 126.953125 -15.13671875 126.953125 -15.13671875 114.74609375 -1.220703125 c 0,74,75
 102.5390625 12.6953125 102.5390625 12.6953125 102.5390625 35.64453125 c 0,76,77
 102.5390625 50.29296875 102.5390625 50.29296875 108.3984375 66.162109375 c 0,78,79
 114.2578125 82.03125 114.2578125 82.03125 124.755859375 94.970703125 c 0,80,81
 135.25390625 107.91015625 135.25390625 107.91015625 149.658203125 116.455078125 c 0,82,83
 164.0625 125 164.0625 125 181.15234375 125 c 0,84,85
 204.1015625 125 204.1015625 125 216.064453125 111.572265625 c 0,86,87
 228.02734375 98.14453125 228.02734375 98.14453125 228.02734375 76.66015625 c 0,64,65
EndSplineSet
EndChar

StartChar: at
Encoding: 35 64 35
Width: 794
VWidth: 488
Flags: W
LayerCount: 2
Fore
SplineSet
460.9375 196.77734375 m 0,0,1
 463.8671875 218.75 463.8671875 218.75 468.017578125 243.65234375 c 0,2,3
 472.16796875 268.5546875 472.16796875 268.5546875 476.318359375 292.236328125 c 0,4,5
 480.46875 315.91796875 480.46875 315.91796875 483.88671875 336.181640625 c 0,6,7
 487.3046875 356.4453125 487.3046875 356.4453125 489.74609375 368.65234375 c 0,8,9
 475.5859375 380.37109375 475.5859375 380.37109375 458.984375 390.13671875 c 0,10,11
 442.3828125 399.90234375 442.3828125 399.90234375 423.33984375 399.90234375 c 0,12,13
 401.85546875 399.90234375 401.85546875 399.90234375 384.033203125 389.404296875 c 0,14,15
 366.2109375 378.90625 366.2109375 378.90625 351.318359375 361.328125 c 0,16,17
 336.42578125 343.75 336.42578125 343.75 325.1953125 321.2890625 c 0,18,19
 313.96484375 298.828125 313.96484375 298.828125 306.396484375 274.90234375 c 0,20,21
 298.828125 250.9765625 298.828125 250.9765625 294.921875 227.5390625 c 0,22,23
 291.015625 204.1015625 291.015625 204.1015625 291.015625 185.05859375 c 0,24,25
 291.015625 154.78515625 291.015625 154.78515625 295.8984375 131.103515625 c 0,26,27
 300.78125 107.421875 300.78125 107.421875 308.837890625 90.8203125 c 0,28,29
 316.89453125 74.21875 316.89453125 74.21875 327.63671875 65.4296875 c 0,30,31
 338.37890625 56.640625 338.37890625 56.640625 350.09765625 56.640625 c 0,32,33
 360.83984375 56.640625 360.83984375 56.640625 374.0234375 68.359375 c 0,34,35
 387.20703125 80.078125 387.20703125 80.078125 401.85546875 99.609375 c 0,36,37
 416.50390625 119.140625 416.50390625 119.140625 431.640625 144.287109375 c 0,38,39
 446.77734375 169.43359375 446.77734375 169.43359375 460.9375 196.77734375 c 0,0,1
752.44140625 268.06640625 m 0,40,41
 746.58203125 225.5859375 746.58203125 225.5859375 731.689453125 187.98828125 c 0,42,43
 716.796875 150.390625 716.796875 150.390625 696.2890625 118.408203125 c 0,44,45
 675.78125 86.42578125 675.78125 86.42578125 651.123046875 60.791015625 c 0,46,47
 626.46484375 35.15625 626.46484375 35.15625 601.318359375 17.08984375 c 0,48,49
 576.171875 -0.9765625 576.171875 -0.9765625 552.490234375 -10.498046875 c 0,50,51
 528.80859375 -20.01953125 528.80859375 -20.01953125 509.27734375 -20.01953125 c 0,52,53
 500.9765625 -20.01953125 500.9765625 -20.01953125 491.943359375 -14.404296875 c 0,54,55
 482.91015625 -8.7890625 482.91015625 -8.7890625 474.853515625 6.34765625 c 0,56,57
 466.796875 21.484375 466.796875 21.484375 461.181640625 48.33984375 c 0,58,59
 455.56640625 75.1953125 455.56640625 75.1953125 454.58984375 117.67578125 c 0,60,61
 442.3828125 95.703125 442.3828125 95.703125 426.26953125 71.533203125 c 0,62,63
 410.15625 47.36328125 410.15625 47.36328125 391.845703125 26.85546875 c 0,64,65
 373.53515625 6.34765625 373.53515625 6.34765625 354.248046875 -6.8359375 c 0,66,67
 334.9609375 -20.01953125 334.9609375 -20.01953125 315.91796875 -20.01953125 c 0,68,69
 299.31640625 -20.01953125 299.31640625 -20.01953125 280.76171875 -10.7421875 c 0,70,71
 262.20703125 -1.46484375 262.20703125 -1.46484375 246.337890625 18.798828125 c 0,72,73
 230.46875 39.0625 230.46875 39.0625 219.970703125 71.044921875 c 0,74,75
 209.47265625 103.02734375 209.47265625 103.02734375 209.47265625 148.92578125 c 0,76,77
 209.47265625 187.5 209.47265625 187.5 217.529296875 224.365234375 c 0,78,79
 225.5859375 261.23046875 225.5859375 261.23046875 242.1875 294.921875 c 0,80,81
 258.7890625 328.61328125 258.7890625 328.61328125 283.935546875 358.154296875 c 0,82,83
 309.08203125 387.6953125 309.08203125 387.6953125 343.75 411.1328125 c 0,84,85
 356.93359375 419.921875 356.93359375 419.921875 373.291015625 428.22265625 c 0,86,87
 389.6484375 436.5234375 389.6484375 436.5234375 406.982421875 442.87109375 c 0,88,89
 424.31640625 449.21875 424.31640625 449.21875 441.650390625 453.125 c 0,90,91
 458.984375 457.03125 458.984375 457.03125 474.609375 457.03125 c 0,92,93
 494.140625 457.03125 494.140625 457.03125 511.71875 447.998046875 c 0,94,95
 529.296875 438.96484375 529.296875 438.96484375 544.43359375 429.19921875 c 0,96,97
 557.12890625 437.01171875 557.12890625 437.01171875 570.80078125 443.84765625 c 0,98,-1
 597.16796875 457.03125 l 0,99,-1
 608.88671875 435.05859375 l 0,100,101
 600.5859375 428.22265625 600.5859375 428.22265625 594.970703125 422.8515625 c 0,102,103
 589.35546875 417.48046875 589.35546875 417.48046875 585.44921875 410.400390625 c 0,104,105
 581.54296875 403.3203125 581.54296875 403.3203125 578.369140625 393.06640625 c 0,106,107
 575.1953125 382.8125 575.1953125 382.8125 571.77734375 366.2109375 c 0,108,109
 564.453125 331.0546875 564.453125 331.0546875 558.349609375 295.41015625 c 0,110,111
 552.24609375 259.765625 552.24609375 259.765625 547.8515625 229.00390625 c 0,112,113
 543.45703125 198.2421875 543.45703125 198.2421875 541.015625 174.560546875 c 0,114,115
 538.57421875 150.87890625 538.57421875 150.87890625 538.57421875 140.13671875 c 0,116,117
 538.57421875 115.234375 538.57421875 115.234375 541.015625 99.365234375 c 0,118,119
 543.45703125 83.49609375 543.45703125 83.49609375 547.36328125 73.974609375 c 0,120,121
 551.26953125 64.453125 551.26953125 64.453125 556.640625 60.791015625 c 0,122,123
 562.01171875 57.12890625 562.01171875 57.12890625 567.87109375 57.12890625 c 0,124,125
 580.078125 57.12890625 580.078125 57.12890625 596.923828125 71.533203125 c 0,126,127
 613.76953125 85.9375 613.76953125 85.9375 630.126953125 111.572265625 c 0,128,129
 646.484375 137.20703125 646.484375 137.20703125 659.912109375 172.36328125 c 0,130,131
 673.33984375 207.51953125 673.33984375 207.51953125 679.6875 249.0234375 c 0,132,133
 691.89453125 331.54296875 691.89453125 331.54296875 677.734375 394.775390625 c 0,134,135
 663.57421875 458.0078125 663.57421875 458.0078125 630.615234375 500.9765625 c 0,136,137
 597.65625 543.9453125 597.65625 543.9453125 550.29296875 565.91796875 c 0,138,139
 502.9296875 587.890625 502.9296875 587.890625 448.73046875 587.890625 c 0,140,141
 405.2734375 587.890625 405.2734375 587.890625 365.966796875 574.70703125 c 0,142,143
 326.66015625 561.5234375 326.66015625 561.5234375 292.724609375 538.330078125 c 0,144,145
 258.7890625 515.13671875 258.7890625 515.13671875 230.46875 482.91015625 c 0,146,147
 202.1484375 450.68359375 202.1484375 450.68359375 180.6640625 412.841796875 c 0,148,149
 159.1796875 375 159.1796875 375 144.775390625 332.51953125 c 0,150,151
 130.37109375 290.0390625 130.37109375 290.0390625 124.0234375 246.09375 c 0,152,153
 111.81640625 157.2265625 111.81640625 157.2265625 129.39453125 89.111328125 c 0,154,155
 146.97265625 20.99609375 146.97265625 20.99609375 186.03515625 -25.146484375 c 0,156,157
 225.09765625 -71.2890625 225.09765625 -71.2890625 280.76171875 -95.21484375 c 0,158,159
 336.42578125 -119.140625 336.42578125 -119.140625 400.390625 -119.140625 c 0,160,161
 437.98828125 -119.140625 437.98828125 -119.140625 474.853515625 -109.86328125 c 0,162,163
 511.71875 -100.5859375 511.71875 -100.5859375 544.189453125 -87.158203125 c 0,164,165
 576.66015625 -73.73046875 576.66015625 -73.73046875 602.5390625 -58.349609375 c 0,166,167
 628.41796875 -42.96875 628.41796875 -42.96875 644.04296875 -30.2734375 c 0,168,-1
 654.296875 -63.4765625 l 0,169,170
 635.7421875 -82.03125 635.7421875 -82.03125 606.93359375 -103.02734375 c 0,171,172
 578.125 -124.0234375 578.125 -124.0234375 541.259765625 -141.845703125 c 0,173,174
 504.39453125 -159.66796875 504.39453125 -159.66796875 460.205078125 -171.38671875 c 0,175,176
 416.015625 -183.10546875 416.015625 -183.10546875 366.69921875 -183.10546875 c 0,177,178
 284.66796875 -183.10546875 284.66796875 -183.10546875 218.26171875 -154.296875 c 0,179,180
 151.85546875 -125.48828125 151.85546875 -125.48828125 107.177734375 -72.021484375 c 0,181,182
 62.5 -18.5546875 62.5 -18.5546875 43.45703125 57.373046875 c 0,183,184
 24.4140625 133.30078125 24.4140625 133.30078125 37.59765625 227.05078125 c 0,185,186
 45.41015625 281.73828125 45.41015625 281.73828125 65.4296875 334.716796875 c 0,187,188
 85.44921875 387.6953125 85.44921875 387.6953125 115.966796875 434.5703125 c 0,189,190
 146.484375 481.4453125 146.484375 481.4453125 186.03515625 521.240234375 c 0,191,192
 225.5859375 561.03515625 225.5859375 561.03515625 272.216796875 589.84375 c 0,193,194
 318.84765625 618.65234375 318.84765625 618.65234375 371.09375 634.765625 c 0,195,196
 423.33984375 650.87890625 423.33984375 650.87890625 479.00390625 650.87890625 c 0,197,198
 522.94921875 650.87890625 522.94921875 650.87890625 562.744140625 639.404296875 c 0,199,200
 602.5390625 627.9296875 602.5390625 627.9296875 635.986328125 605.712890625 c 0,201,202
 669.43359375 583.49609375 669.43359375 583.49609375 695.068359375 551.025390625 c 0,203,204
 720.703125 518.5546875 720.703125 518.5546875 736.328125 475.830078125 c 0,205,206
 751.953125 433.10546875 751.953125 433.10546875 756.591796875 381.103515625 c 0,207,208
 761.23046875 329.1015625 761.23046875 329.1015625 752.44140625 268.06640625 c 0,40,41
EndSplineSet
EndChar

StartChar: A
Encoding: 36 65 36
Width: 567
VWidth: 488
Flags: W
LayerCount: 2
Fore
SplineSet
357.421875 263.671875 m 0,0,-1
 312.5 517.578125 l 0,1,-1
 202.63671875 263.671875 l 0,2,-1
 357.421875 263.671875 l 0,0,-1
181.15234375 214.35546875 m 0,3,-1
 113.76953125 59.08203125 l 0,4,5
 107.421875 43.9453125 107.421875 43.9453125 121.826171875 37.59765625 c 0,6,7
 136.23046875 31.25 136.23046875 31.25 173.33984375 25.87890625 c 0,8,-1
 169.921875 0 l 0,9,-1
 -19.53125 0 l 0,10,-1
 -16.11328125 25.87890625 l 0,11,12
 15.13671875 31.73828125 15.13671875 31.73828125 33.203125 38.330078125 c 0,13,14
 51.26953125 44.921875 51.26953125 44.921875 57.6171875 59.08203125 c 0,15,-1
 292.48046875 596.19140625 l 0,16,17
 300.78125 603.515625 300.78125 603.515625 311.279296875 610.3515625 c 0,18,19
 321.77734375 617.1875 321.77734375 617.1875 332.763671875 623.291015625 c 0,20,21
 343.75 629.39453125 343.75 629.39453125 354.248046875 634.521484375 c 0,22,23
 364.74609375 639.6484375 364.74609375 639.6484375 373.046875 643.06640625 c 0,24,-1
 479.98046875 59.08203125 l 0,25,26
 481.4453125 52.24609375 481.4453125 52.24609375 484.130859375 47.119140625 c 0,27,28
 486.81640625 41.9921875 486.81640625 41.9921875 492.67578125 37.841796875 c 0,29,30
 498.53515625 33.69140625 498.53515625 33.69140625 508.056640625 30.76171875 c 0,31,32
 517.578125 27.83203125 517.578125 27.83203125 533.203125 25.87890625 c 0,33,-1
 530.2734375 0 l 0,34,-1
 330.078125 0 l 0,35,-1
 333.0078125 25.87890625 l 0,36,37
 367.67578125 28.3203125 367.67578125 28.3203125 382.32421875 35.888671875 c 0,38,39
 396.97265625 43.45703125 396.97265625 43.45703125 394.04296875 59.08203125 c 0,40,-1
 366.69921875 214.35546875 l 0,41,-1
 181.15234375 214.35546875 l 0,3,-1
EndSplineSet
EndChar

StartChar: B
Encoding: 37 66 37
Width: 507
VWidth: 488
Flags: W
LayerCount: 2
Fore
SplineSet
271.484375 585.44921875 m 0,0,-1
 248.046875 585.44921875 l 0,1,2
 237.3046875 585.44921875 237.3046875 585.44921875 227.5390625 584.9609375 c 0,3,-1
 196.2890625 356.4453125 l 0,4,-1
 211.9140625 356.4453125 l 0,5,6
 243.1640625 356.4453125 243.1640625 356.4453125 272.94921875 362.060546875 c 0,7,8
 302.734375 367.67578125 302.734375 367.67578125 325.927734375 382.080078125 c 0,9,10
 349.12109375 396.484375 349.12109375 396.484375 363.037109375 420.654296875 c 0,11,12
 376.953125 444.82421875 376.953125 444.82421875 376.953125 481.93359375 c 0,13,14
 376.953125 511.23046875 376.953125 511.23046875 366.69921875 531.005859375 c 0,15,16
 356.4453125 550.78125 356.4453125 550.78125 341.064453125 562.744140625 c 0,17,18
 325.68359375 574.70703125 325.68359375 574.70703125 306.884765625 580.078125 c 0,19,20
 288.0859375 585.44921875 288.0859375 585.44921875 271.484375 585.44921875 c 0,0,-1
257.8125 314.453125 m 0,21,22
 236.328125 314.453125 236.328125 314.453125 220.458984375 312.255859375 c 0,23,24
 204.58984375 310.05859375 204.58984375 310.05859375 189.453125 307.6171875 c 0,25,-1
 154.78515625 55.6640625 l 0,26,27
 153.80859375 52.24609375 153.80859375 52.24609375 160.64453125 45.8984375 c 0,28,29
 178.22265625 37.109375 178.22265625 37.109375 201.416015625 33.935546875 c 0,30,31
 224.609375 30.76171875 224.609375 30.76171875 245.1171875 30.76171875 c 0,32,33
 276.3671875 30.76171875 276.3671875 30.76171875 301.26953125 43.45703125 c 0,34,35
 326.171875 56.15234375 326.171875 56.15234375 343.75 77.392578125 c 0,36,37
 361.328125 98.6328125 361.328125 98.6328125 370.60546875 125.9765625 c 0,38,39
 379.8828125 153.3203125 379.8828125 153.3203125 379.8828125 183.10546875 c 0,40,41
 379.8828125 207.51953125 379.8828125 207.51953125 373.291015625 230.95703125 c 0,42,43
 366.69921875 254.39453125 366.69921875 254.39453125 352.294921875 272.94921875 c 0,44,45
 337.890625 291.50390625 337.890625 291.50390625 314.697265625 302.978515625 c 0,46,47
 291.50390625 314.453125 291.50390625 314.453125 257.8125 314.453125 c 0,21,22
470.703125 200.1953125 m 0,48,49
 470.703125 152.34375 470.703125 152.34375 451.416015625 112.79296875 c 0,50,51
 432.12890625 73.2421875 432.12890625 73.2421875 399.4140625 44.921875 c 0,52,53
 366.69921875 16.6015625 366.69921875 16.6015625 322.75390625 0.732421875 c 0,54,55
 278.80859375 -15.13671875 278.80859375 -15.13671875 229.98046875 -15.13671875 c 0,56,57
 220.21484375 -15.13671875 220.21484375 -15.13671875 206.298828125 -14.6484375 c 0,58,59
 192.3828125 -14.16015625 192.3828125 -14.16015625 176.513671875 -12.939453125 c 0,60,61
 160.64453125 -11.71875 160.64453125 -11.71875 143.5546875 -10.498046875 c 0,62,63
 126.46484375 -9.27734375 126.46484375 -9.27734375 110.3515625 -7.8125 c 0,64,65
 72.265625 -4.39453125 72.265625 -4.39453125 29.78515625 0 c 0,66,-1
 -1.46484375 0 l 0,67,-1
 1.953125 25.87890625 l 0,68,69
 32.71484375 32.71484375 32.71484375 32.71484375 50.537109375 40.771484375 c 0,70,71
 68.359375 48.828125 68.359375 48.828125 69.3359375 55.6640625 c 0,72,-1
 141.11328125 578.61328125 l 0,73,74
 120.1171875 576.171875 120.1171875 576.171875 102.5390625 572.75390625 c 0,75,76
 84.9609375 569.3359375 84.9609375 569.3359375 67.87109375 565.4296875 c 0,77,-1
 67.87109375 599.12109375 l 0,78,79
 112.79296875 611.81640625 112.79296875 611.81640625 166.015625 620.849609375 c 0,80,81
 219.23828125 629.8828125 219.23828125 629.8828125 287.109375 629.8828125 c 0,82,83
 373.53515625 629.8828125 373.53515625 629.8828125 420.654296875 597.65625 c 0,84,85
 467.7734375 565.4296875 467.7734375 565.4296875 467.7734375 507.8125 c 0,86,87
 467.7734375 482.421875 467.7734375 482.421875 459.716796875 458.740234375 c 0,88,89
 451.66015625 435.05859375 451.66015625 435.05859375 436.767578125 414.794921875 c 0,90,91
 421.875 394.53125 421.875 394.53125 401.123046875 378.662109375 c 0,92,93
 380.37109375 362.79296875 380.37109375 362.79296875 354.98046875 353.02734375 c 0,94,95
 380.37109375 347.65625 380.37109375 347.65625 401.85546875 334.228515625 c 0,96,97
 423.33984375 320.80078125 423.33984375 320.80078125 438.4765625 300.537109375 c 0,98,99
 453.61328125 280.2734375 453.61328125 280.2734375 462.158203125 254.8828125 c 0,100,101
 470.703125 229.4921875 470.703125 229.4921875 470.703125 200.1953125 c 0,48,49
EndSplineSet
EndChar

StartChar: C
Encoding: 38 67 38
Width: 493
VWidth: 488
Flags: W
LayerCount: 2
Fore
SplineSet
505.859375 581.0546875 m 0,0,1
 507.8125 578.61328125 507.8125 578.61328125 501.953125 568.359375 c 0,2,3
 496.09375 558.10546875 496.09375 558.10546875 486.81640625 545.41015625 c 0,4,5
 477.5390625 532.71484375 477.5390625 532.71484375 467.529296875 520.5078125 c 0,6,7
 457.51953125 508.30078125 457.51953125 508.30078125 451.171875 502.9296875 c 0,8,-1
 431.640625 507.8125 l 0,9,10
 422.8515625 520.01953125 422.8515625 520.01953125 411.62109375 531.25 c 0,11,12
 400.390625 542.48046875 400.390625 542.48046875 386.23046875 550.537109375 c 0,13,14
 372.0703125 558.59375 372.0703125 558.59375 355.224609375 563.4765625 c 0,15,16
 338.37890625 568.359375 338.37890625 568.359375 318.359375 568.359375 c 0,17,18
 298.828125 568.359375 298.828125 568.359375 276.611328125 560.302734375 c 0,19,20
 254.39453125 552.24609375 254.39453125 552.24609375 234.86328125 537.109375 c 0,21,22
 204.1015625 513.18359375 204.1015625 513.18359375 182.861328125 477.05078125 c 0,23,24
 161.62109375 440.91796875 161.62109375 440.91796875 148.193359375 401.123046875 c 0,25,26
 134.765625 361.328125 134.765625 361.328125 128.90625 322.021484375 c 0,27,28
 123.046875 282.71484375 123.046875 282.71484375 123.046875 251.953125 c 0,29,30
 123.046875 198.73046875 123.046875 198.73046875 137.20703125 160.888671875 c 0,31,32
 151.3671875 123.046875 151.3671875 123.046875 173.33984375 99.12109375 c 0,33,34
 195.3125 75.1953125 195.3125 75.1953125 221.6796875 64.208984375 c 0,35,36
 248.046875 53.22265625 248.046875 53.22265625 272.4609375 53.22265625 c 0,37,38
 285.64453125 53.22265625 285.64453125 53.22265625 301.7578125 56.640625 c 0,39,40
 317.87109375 60.05859375 317.87109375 60.05859375 337.646484375 68.84765625 c 0,41,42
 357.421875 77.63671875 357.421875 77.63671875 380.859375 92.28515625 c 0,43,44
 404.296875 106.93359375 404.296875 106.93359375 432.6171875 128.90625 c 0,45,46
 435.05859375 127.9296875 435.05859375 127.9296875 437.255859375 124.267578125 c 0,47,48
 439.453125 120.60546875 439.453125 120.60546875 441.40625 116.455078125 c 0,49,50
 443.359375 112.3046875 443.359375 112.3046875 445.068359375 108.3984375 c 0,51,52
 446.77734375 104.4921875 446.77734375 104.4921875 447.75390625 103.02734375 c 0,53,54
 414.55078125 69.82421875 414.55078125 69.82421875 384.765625 47.607421875 c 0,55,56
 354.98046875 25.390625 354.98046875 25.390625 327.392578125 11.71875 c 0,57,58
 299.8046875 -1.953125 299.8046875 -1.953125 274.90234375 -7.568359375 c 0,59,60
 250 -13.18359375 250 -13.18359375 227.05078125 -13.18359375 c 0,61,62
 188.4765625 -13.18359375 188.4765625 -13.18359375 153.564453125 2.685546875 c 0,63,64
 118.65234375 18.5546875 118.65234375 18.5546875 92.28515625 48.828125 c 0,65,66
 65.91796875 79.1015625 65.91796875 79.1015625 50.29296875 123.291015625 c 0,67,68
 34.66796875 167.48046875 34.66796875 167.48046875 34.66796875 224.12109375 c 0,69,70
 34.66796875 270.01953125 34.66796875 270.01953125 43.9453125 317.626953125 c 0,71,72
 53.22265625 365.234375 53.22265625 365.234375 72.509765625 410.400390625 c 0,73,74
 91.796875 455.56640625 91.796875 455.56640625 121.826171875 496.337890625 c 0,75,76
 151.85546875 537.109375 151.85546875 537.109375 192.87109375 569.82421875 c 0,77,78
 228.515625 597.65625 228.515625 597.65625 272.216796875 613.76953125 c 0,79,80
 315.91796875 629.8828125 315.91796875 629.8828125 361.81640625 629.8828125 c 0,81,82
 410.15625 629.8828125 410.15625 629.8828125 447.265625 615.72265625 c 0,83,84
 484.375 601.5625 484.375 601.5625 505.859375 581.0546875 c 0,0,1
EndSplineSet
EndChar

StartChar: D
Encoding: 39 68 39
Width: 560
VWidth: 488
Flags: W
LayerCount: 2
Fore
SplineSet
542.96875 365.234375 m 0,0,1
 542.96875 322.265625 542.96875 322.265625 533.935546875 278.564453125 c 0,2,3
 524.90234375 234.86328125 524.90234375 234.86328125 507.568359375 194.3359375 c 0,4,5
 490.234375 153.80859375 490.234375 153.80859375 464.35546875 118.1640625 c 0,6,7
 438.4765625 82.51953125 438.4765625 82.51953125 404.78515625 56.396484375 c 0,8,9
 371.09375 30.2734375 371.09375 30.2734375 329.58984375 15.13671875 c 0,10,11
 288.0859375 0 288.0859375 0 239.74609375 0 c 0,12,-1
 -1.46484375 0 l 0,13,-1
 2.44140625 25.87890625 l 0,14,15
 33.203125 32.71484375 33.203125 32.71484375 51.025390625 40.771484375 c 0,16,17
 68.84765625 48.828125 68.84765625 48.828125 69.82421875 55.6640625 c 0,18,-1
 141.6015625 577.1484375 l 0,19,-1
 68.84765625 568.359375 l 0,20,-1
 68.84765625 604.00390625 l 0,21,22
 125 617.67578125 125 617.67578125 182.861328125 623.779296875 c 0,23,24
 240.72265625 629.8828125 240.72265625 629.8828125 291.015625 629.8828125 c 0,25,26
 352.5390625 629.8828125 352.5390625 629.8828125 399.658203125 611.083984375 c 0,27,28
 446.77734375 592.28515625 446.77734375 592.28515625 478.759765625 557.861328125 c 0,29,30
 510.7421875 523.4375 510.7421875 523.4375 526.85546875 474.609375 c 0,31,32
 542.96875 425.78125 542.96875 425.78125 542.96875 365.234375 c 0,0,1
257.32421875 585.44921875 m 0,33,34
 250 585.44921875 250 585.44921875 242.67578125 585.205078125 c 0,35,36
 235.3515625 584.9609375 235.3515625 584.9609375 228.02734375 584.47265625 c 0,37,-1
 158.203125 71.77734375 l 0,38,39
 157.2265625 64.453125 157.2265625 64.453125 159.912109375 59.5703125 c 0,40,41
 162.59765625 54.6875 162.59765625 54.6875 170.654296875 51.26953125 c 0,42,43
 178.7109375 47.8515625 178.7109375 47.8515625 193.115234375 46.38671875 c 0,44,45
 207.51953125 44.921875 207.51953125 44.921875 229.4921875 44.921875 c 0,46,47
 264.6484375 44.921875 264.6484375 44.921875 294.677734375 58.349609375 c 0,48,49
 324.70703125 71.77734375 324.70703125 71.77734375 349.12109375 94.7265625 c 0,50,51
 373.53515625 117.67578125 373.53515625 117.67578125 392.333984375 148.4375 c 0,52,53
 411.1328125 179.19921875 411.1328125 179.19921875 423.583984375 213.623046875 c 0,54,55
 436.03515625 248.046875 436.03515625 248.046875 442.626953125 284.423828125 c 0,56,57
 449.21875 320.80078125 449.21875 320.80078125 449.21875 354.98046875 c 0,58,59
 449.21875 407.2265625 449.21875 407.2265625 437.255859375 449.70703125 c 0,60,61
 425.29296875 492.1875 425.29296875 492.1875 401.3671875 522.4609375 c 0,62,63
 377.44140625 552.734375 377.44140625 552.734375 341.30859375 569.091796875 c 0,64,65
 305.17578125 585.44921875 305.17578125 585.44921875 257.32421875 585.44921875 c 0,33,34
EndSplineSet
EndChar

StartChar: E
Encoding: 40 69 40
Width: 472
VWidth: 488
Flags: W
LayerCount: 2
Fore
SplineSet
432.6171875 128.90625 m 0,0,1
 427.734375 107.91015625 427.734375 107.91015625 422.607421875 87.890625 c 0,2,3
 417.48046875 67.87109375 417.48046875 67.87109375 412.59765625 50.537109375 c 0,4,5
 407.71484375 33.203125 407.71484375 33.203125 403.564453125 20.263671875 c 0,6,7
 399.4140625 7.32421875 399.4140625 7.32421875 396.484375 0 c 0,8,-1
 -1.46484375 0 l 0,9,-1
 2.44140625 25.87890625 l 0,10,11
 33.203125 32.71484375 33.203125 32.71484375 51.26953125 40.771484375 c 0,12,13
 69.3359375 48.828125 69.3359375 48.828125 70.3125 55.6640625 c 0,14,-1
 140.13671875 559.08203125 l 0,15,16
 141.11328125 564.94140625 141.11328125 564.94140625 126.46484375 573.73046875 c 0,17,18
 111.81640625 582.51953125 111.81640625 582.51953125 80.078125 589.35546875 c 0,19,-1
 83.49609375 615.234375 l 0,20,-1
 456.54296875 615.234375 l 0,21,-1
 469.7265625 602.05078125 l 0,22,23
 467.28515625 589.35546875 467.28515625 589.35546875 463.37890625 572.998046875 c 0,24,25
 459.47265625 556.640625 459.47265625 556.640625 454.58984375 539.794921875 c 0,26,27
 449.70703125 522.94921875 449.70703125 522.94921875 444.580078125 507.8125 c 0,28,29
 439.453125 492.67578125 439.453125 492.67578125 435.546875 483.3984375 c 0,30,-1
 410.15625 483.3984375 l 0,31,32
 414.55078125 528.3203125 414.55078125 528.3203125 407.958984375 547.119140625 c 0,33,34
 401.3671875 565.91796875 401.3671875 565.91796875 384.27734375 565.91796875 c 0,35,-1
 224.609375 565.91796875 l 0,36,-1
 196.2890625 358.88671875 l 0,37,-1
 378.41796875 358.88671875 l 0,38,-1
 389.16015625 344.23828125 l 0,39,40
 384.27734375 337.40234375 384.27734375 337.40234375 378.173828125 329.345703125 c 0,41,42
 372.0703125 321.2890625 372.0703125 321.2890625 365.478515625 313.4765625 c 0,43,44
 358.88671875 305.6640625 358.88671875 305.6640625 352.294921875 299.072265625 c 0,45,46
 345.703125 292.48046875 345.703125 292.48046875 340.33203125 288.0859375 c 0,47,48
 333.0078125 295.8984375 333.0078125 295.8984375 324.70703125 301.26953125 c 0,49,50
 316.40625 306.640625 316.40625 306.640625 304.19921875 309.5703125 c 0,51,52
 291.9921875 312.5 291.9921875 312.5 274.658203125 313.720703125 c 0,53,54
 257.32421875 314.94140625 257.32421875 314.94140625 231.93359375 314.94140625 c 0,55,-1
 190.4296875 314.94140625 l 0,56,-1
 158.69140625 80.078125 l 0,57,58
 157.71484375 72.75390625 157.71484375 72.75390625 160.15625 67.138671875 c 0,59,60
 162.59765625 61.5234375 162.59765625 61.5234375 171.875 57.373046875 c 0,61,62
 181.15234375 53.22265625 181.15234375 53.22265625 198.974609375 51.025390625 c 0,63,64
 216.796875 48.828125 216.796875 48.828125 246.09375 48.828125 c 0,65,-1
 300.29296875 48.828125 l 0,66,67
 320.80078125 48.828125 320.80078125 48.828125 335.44921875 52.24609375 c 0,68,69
 350.09765625 55.6640625 350.09765625 55.6640625 362.060546875 65.4296875 c 0,70,71
 374.0234375 75.1953125 374.0234375 75.1953125 385.009765625 92.7734375 c 0,72,73
 395.99609375 110.3515625 395.99609375 110.3515625 409.66796875 139.16015625 c 0,74,-1
 432.6171875 128.90625 l 0,0,1
EndSplineSet
EndChar

StartChar: F
Encoding: 41 70 41
Width: 445
VWidth: 488
Flags: W
LayerCount: 2
Fore
SplineSet
473.6328125 602.05078125 m 0,0,1
 471.19140625 589.35546875 471.19140625 589.35546875 467.28515625 572.998046875 c 0,2,3
 463.37890625 556.640625 463.37890625 556.640625 458.49609375 539.794921875 c 0,4,5
 453.61328125 522.94921875 453.61328125 522.94921875 448.73046875 507.8125 c 0,6,7
 443.84765625 492.67578125 443.84765625 492.67578125 439.94140625 483.3984375 c 0,8,-1
 415.0390625 483.3984375 l 0,9,10
 418.45703125 528.3203125 418.45703125 528.3203125 411.865234375 547.119140625 c 0,11,12
 405.2734375 565.91796875 405.2734375 565.91796875 388.18359375 565.91796875 c 0,13,-1
 224.609375 565.91796875 l 0,14,-1
 196.2890625 358.88671875 l 0,15,-1
 355.95703125 358.88671875 l 0,16,-1
 368.1640625 344.23828125 l 0,17,18
 362.79296875 336.9140625 362.79296875 336.9140625 356.4453125 328.857421875 c 0,19,20
 350.09765625 320.80078125 350.09765625 320.80078125 343.505859375 312.98828125 c 0,21,22
 336.9140625 305.17578125 336.9140625 305.17578125 330.56640625 298.828125 c 0,23,24
 324.21875 292.48046875 324.21875 292.48046875 319.3359375 288.0859375 c 0,25,26
 311.5234375 295.8984375 311.5234375 295.8984375 302.734375 301.26953125 c 0,27,28
 293.9453125 306.640625 293.9453125 306.640625 282.958984375 309.5703125 c 0,29,30
 271.97265625 312.5 271.97265625 312.5 258.544921875 313.720703125 c 0,31,32
 245.1171875 314.94140625 245.1171875 314.94140625 228.515625 314.94140625 c 0,33,-1
 189.94140625 314.94140625 l 0,34,-1
 154.78515625 55.6640625 l 0,35,36
 153.80859375 49.8046875 153.80859375 49.8046875 169.921875 42.48046875 c 0,37,38
 186.03515625 35.15625 186.03515625 35.15625 228.515625 25.87890625 c 0,39,-1
 225.09765625 0 l 0,40,-1
 -1.46484375 0 l 0,41,-1
 2.44140625 25.87890625 l 0,42,43
 33.203125 32.71484375 33.203125 32.71484375 51.26953125 40.771484375 c 0,44,45
 69.3359375 48.828125 69.3359375 48.828125 70.3125 55.6640625 c 0,46,-1
 140.13671875 559.08203125 l 0,47,48
 141.11328125 564.94140625 141.11328125 564.94140625 126.46484375 573.73046875 c 0,49,50
 111.81640625 582.51953125 111.81640625 582.51953125 80.078125 589.35546875 c 0,51,-1
 83.49609375 615.234375 l 0,52,-1
 460.9375 615.234375 l 0,53,-1
 473.6328125 602.05078125 l 0,0,1
EndSplineSet
EndChar

StartChar: G
Encoding: 42 71 42
Width: 531
VWidth: 488
Flags: W
LayerCount: 2
Fore
SplineSet
526.3671875 264.6484375 m 0,0,1
 500 256.8359375 500 256.8359375 487.79296875 246.337890625 c 0,2,3
 475.5859375 235.83984375 475.5859375 235.83984375 474.12109375 224.609375 c 0,4,5
 472.16796875 211.42578125 472.16796875 211.42578125 469.482421875 190.4296875 c 0,6,7
 466.796875 169.43359375 466.796875 169.43359375 463.8671875 147.4609375 c 0,8,9
 460.9375 125.48828125 460.9375 125.48828125 458.49609375 106.201171875 c 0,10,11
 456.0546875 86.9140625 456.0546875 86.9140625 455.078125 77.63671875 c 0,12,13
 417.96875 47.8515625 417.96875 47.8515625 388.671875 29.78515625 c 0,14,15
 359.375 11.71875 359.375 11.71875 334.9609375 1.708984375 c 0,16,17
 310.546875 -8.30078125 310.546875 -8.30078125 289.55078125 -11.71875 c 0,18,19
 268.5546875 -15.13671875 268.5546875 -15.13671875 249.0234375 -15.13671875 c 0,20,21
 207.03125 -15.13671875 207.03125 -15.13671875 168.212890625 1.708984375 c 0,22,23
 129.39453125 18.5546875 129.39453125 18.5546875 99.853515625 50.29296875 c 0,24,25
 70.3125 82.03125 70.3125 82.03125 52.490234375 128.41796875 c 0,26,27
 34.66796875 174.8046875 34.66796875 174.8046875 34.66796875 233.3984375 c 0,28,29
 34.66796875 279.78515625 34.66796875 279.78515625 45.41015625 326.171875 c 0,30,31
 56.15234375 372.55859375 56.15234375 372.55859375 75.68359375 415.0390625 c 0,32,33
 95.21484375 457.51953125 95.21484375 457.51953125 122.314453125 494.140625 c 0,34,35
 149.4140625 530.76171875 149.4140625 530.76171875 182.6171875 557.12890625 c 0,36,37
 224.12109375 590.8203125 224.12109375 590.8203125 275.146484375 610.3515625 c 0,38,39
 326.171875 629.8828125 326.171875 629.8828125 388.671875 629.8828125 c 0,40,41
 403.80859375 629.8828125 403.80859375 629.8828125 422.36328125 626.46484375 c 0,42,43
 440.91796875 623.046875 440.91796875 623.046875 459.716796875 616.69921875 c 0,44,45
 478.515625 610.3515625 478.515625 610.3515625 495.361328125 601.07421875 c 0,46,47
 512.20703125 591.796875 512.20703125 591.796875 524.90234375 580.078125 c 0,48,49
 527.83203125 577.63671875 527.83203125 577.63671875 521.97265625 567.138671875 c 0,50,51
 516.11328125 556.640625 516.11328125 556.640625 506.591796875 544.189453125 c 0,52,53
 497.0703125 531.73828125 497.0703125 531.73828125 486.572265625 520.01953125 c 0,54,55
 476.07421875 508.30078125 476.07421875 508.30078125 469.23828125 502.9296875 c 0,56,-1
 450.68359375 506.8359375 l 0,57,58
 427.734375 539.55078125 427.734375 539.55078125 397.216796875 555.17578125 c 0,59,60
 366.69921875 570.80078125 366.69921875 570.80078125 320.80078125 570.80078125 c 0,61,62
 301.26953125 570.80078125 301.26953125 570.80078125 275.634765625 558.349609375 c 0,63,64
 250 545.8984375 250 545.8984375 224.12109375 523.92578125 c 0,65,66
 201.171875 504.8828125 201.171875 504.8828125 182.373046875 473.14453125 c 0,67,68
 163.57421875 441.40625 163.57421875 441.40625 150.146484375 404.052734375 c 0,69,70
 136.71875 366.69921875 136.71875 366.69921875 129.39453125 327.63671875 c 0,71,72
 122.0703125 288.57421875 122.0703125 288.57421875 122.0703125 254.39453125 c 0,73,74
 122.0703125 202.1484375 122.0703125 202.1484375 137.20703125 164.0625 c 0,75,76
 152.34375 125.9765625 152.34375 125.9765625 176.025390625 101.318359375 c 0,77,78
 199.70703125 76.66015625 199.70703125 76.66015625 229.00390625 64.697265625 c 0,79,80
 258.30078125 52.734375 258.30078125 52.734375 287.109375 52.734375 c 0,81,82
 310.546875 52.734375 310.546875 52.734375 333.740234375 59.326171875 c 0,83,84
 356.93359375 65.91796875 356.93359375 65.91796875 374.0234375 78.61328125 c 0,85,-1
 393.5546875 224.609375 l 0,86,87
 394.04296875 229.4921875 394.04296875 229.4921875 391.845703125 234.375 c 0,88,89
 389.6484375 239.2578125 389.6484375 239.2578125 378.90625 244.140625 c 0,90,91
 368.1640625 249.0234375 368.1640625 249.0234375 346.923828125 253.90625 c 0,92,93
 325.68359375 258.7890625 325.68359375 258.7890625 289.0625 264.6484375 c 0,94,-1
 291.9921875 290.52734375 l 0,95,-1
 529.296875 290.52734375 l 0,96,-1
 526.3671875 264.6484375 l 0,0,1
EndSplineSet
EndChar

StartChar: H
Encoding: 43 72 43
Width: 614
VWidth: 488
Flags: W
LayerCount: 2
Fore
SplineSet
292.48046875 589.35546875 m 0,0,1
 261.71875 582.51953125 261.71875 582.51953125 243.65234375 574.21875 c 0,2,3
 225.5859375 565.91796875 225.5859375 565.91796875 224.12109375 559.08203125 c 0,4,-1
 195.3125 346.6796875 l 0,5,-1
 454.58984375 346.6796875 l 0,6,-1
 483.88671875 559.08203125 l 0,7,8
 484.86328125 564.94140625 484.86328125 564.94140625 470.21484375 573.73046875 c 0,9,10
 455.56640625 582.51953125 455.56640625 582.51953125 424.31640625 589.35546875 c 0,11,-1
 427.24609375 615.234375 l 0,12,-1
 640.625 615.234375 l 0,13,-1
 637.20703125 589.35546875 l 0,14,15
 605.95703125 582.51953125 605.95703125 582.51953125 587.890625 574.21875 c 0,16,17
 569.82421875 565.91796875 569.82421875 565.91796875 568.84765625 559.08203125 c 0,18,-1
 499.51171875 55.6640625 l 0,19,20
 498.53515625 49.8046875 498.53515625 49.8046875 513.18359375 41.259765625 c 0,21,22
 527.83203125 32.71484375 527.83203125 32.71484375 559.5703125 25.87890625 c 0,23,-1
 556.15234375 0 l 0,24,-1
 343.26171875 0 l 0,25,-1
 347.16796875 25.87890625 l 0,26,27
 378.41796875 32.71484375 378.41796875 32.71484375 395.99609375 40.771484375 c 0,28,29
 413.57421875 48.828125 413.57421875 48.828125 414.55078125 55.6640625 c 0,30,-1
 447.75390625 297.36328125 l 0,31,-1
 188.4765625 297.36328125 l 0,32,-1
 155.76171875 55.6640625 l 0,33,34
 154.296875 49.8046875 154.296875 49.8046875 168.9453125 41.259765625 c 0,35,36
 183.59375 32.71484375 183.59375 32.71484375 214.84375 25.87890625 c 0,37,-1
 211.42578125 0 l 0,38,-1
 -1.46484375 0 l 0,39,-1
 2.44140625 25.87890625 l 0,40,41
 33.203125 32.71484375 33.203125 32.71484375 51.26953125 40.771484375 c 0,42,43
 69.3359375 48.828125 69.3359375 48.828125 70.3125 55.6640625 c 0,44,-1
 140.13671875 559.08203125 l 0,45,46
 141.11328125 564.94140625 141.11328125 564.94140625 126.46484375 573.73046875 c 0,47,48
 111.81640625 582.51953125 111.81640625 582.51953125 80.078125 589.35546875 c 0,49,-1
 83.49609375 615.234375 l 0,50,-1
 296.38671875 615.234375 l 0,51,-1
 292.48046875 589.35546875 l 0,0,1
EndSplineSet
EndChar

StartChar: I
Encoding: 44 73 44
Width: 289
VWidth: 488
Flags: W
LayerCount: 2
Fore
SplineSet
302.24609375 589.35546875 m 0,0,1
 271.484375 582.51953125 271.484375 582.51953125 253.41796875 574.21875 c 0,2,3
 235.3515625 565.91796875 235.3515625 565.91796875 234.375 559.08203125 c 0,4,-1
 164.55078125 55.6640625 l 0,5,6
 163.57421875 49.8046875 163.57421875 49.8046875 178.22265625 41.259765625 c 0,7,8
 192.87109375 32.71484375 192.87109375 32.71484375 224.609375 25.87890625 c 0,9,-1
 221.19140625 0 l 0,10,-1
 8.7890625 0 l 0,11,-1
 12.6953125 25.87890625 l 0,12,13
 43.45703125 32.71484375 43.45703125 32.71484375 61.279296875 40.771484375 c 0,14,15
 79.1015625 48.828125 79.1015625 48.828125 80.56640625 55.6640625 c 0,16,-1
 148.92578125 559.08203125 l 0,17,18
 149.90234375 564.94140625 149.90234375 564.94140625 135.25390625 573.73046875 c 0,19,20
 120.60546875 582.51953125 120.60546875 582.51953125 89.84375 589.35546875 c 0,21,-1
 93.75 615.234375 l 0,22,-1
 305.6640625 615.234375 l 0,23,-1
 302.24609375 589.35546875 l 0,0,1
EndSplineSet
EndChar

StartChar: J
Encoding: 45 74 45
Width: 291
VWidth: 488
Flags: W
LayerCount: 2
Fore
SplineSet
314.453125 589.35546875 m 0,0,1
 283.69140625 582.51953125 283.69140625 582.51953125 265.380859375 574.21875 c 0,2,3
 247.0703125 565.91796875 247.0703125 565.91796875 246.09375 559.08203125 c 0,4,-1
 183.10546875 100.09765625 l 0,5,6
 175.29296875 43.45703125 175.29296875 43.45703125 161.865234375 4.39453125 c 0,7,8
 148.4375 -34.66796875 148.4375 -34.66796875 131.34765625 -61.767578125 c 0,9,10
 114.2578125 -88.8671875 114.2578125 -88.8671875 94.7265625 -107.177734375 c 0,11,12
 75.1953125 -125.48828125 75.1953125 -125.48828125 55.17578125 -141.11328125 c 0,13,14
 41.9921875 -151.3671875 41.9921875 -151.3671875 25.87890625 -160.15625 c 0,15,16
 9.765625 -168.9453125 9.765625 -168.9453125 -6.591796875 -175.29296875 c 0,17,18
 -22.94921875 -181.640625 -22.94921875 -181.640625 -37.841796875 -185.05859375 c 0,19,20
 -52.734375 -188.4765625 -52.734375 -188.4765625 -63.4765625 -188.4765625 c 0,21,22
 -78.61328125 -188.4765625 -78.61328125 -188.4765625 -92.529296875 -183.837890625 c 0,23,24
 -106.4453125 -179.19921875 -106.4453125 -179.19921875 -117.1875 -172.607421875 c 0,25,26
 -127.9296875 -166.015625 -127.9296875 -166.015625 -134.521484375 -158.935546875 c 0,27,28
 -141.11328125 -151.85546875 -141.11328125 -151.85546875 -141.11328125 -146.97265625 c 0,29,30
 -141.11328125 -142.08984375 -141.11328125 -142.08984375 -132.8125 -132.32421875 c 0,31,32
 -124.51171875 -122.55859375 -124.51171875 -122.55859375 -113.525390625 -112.79296875 c 0,33,34
 -102.5390625 -103.02734375 -102.5390625 -103.02734375 -91.064453125 -95.703125 c 0,35,36
 -79.58984375 -88.37890625 -79.58984375 -88.37890625 -73.73046875 -88.37890625 c 0,37,38
 -68.84765625 -88.37890625 -68.84765625 -88.37890625 -62.98828125 -93.505859375 c 0,39,40
 -57.12890625 -98.6328125 -57.12890625 -98.6328125 -49.072265625 -104.736328125 c 0,41,42
 -41.015625 -110.83984375 -41.015625 -110.83984375 -30.029296875 -115.966796875 c 0,43,44
 -19.04296875 -121.09375 -19.04296875 -121.09375 -3.90625 -121.09375 c 0,45,46
 7.8125 -121.09375 7.8125 -121.09375 21.484375 -113.525390625 c 0,47,48
 35.15625 -105.95703125 35.15625 -105.95703125 48.583984375 -85.44921875 c 0,49,50
 62.01171875 -64.94140625 62.01171875 -64.94140625 73.974609375 -28.564453125 c 0,51,52
 85.9375 7.8125 85.9375 7.8125 93.75 64.94140625 c 0,53,-1
 161.62109375 559.08203125 l 0,54,55
 162.109375 562.01171875 162.109375 562.01171875 159.1796875 565.4296875 c 0,56,57
 156.25 568.84765625 156.25 568.84765625 147.216796875 572.75390625 c 0,58,59
 138.18359375 576.66015625 138.18359375 576.66015625 122.0703125 580.810546875 c 0,60,61
 105.95703125 584.9609375 105.95703125 584.9609375 79.58984375 589.35546875 c 0,62,-1
 82.51953125 615.234375 l 0,63,-1
 318.359375 615.234375 l 0,64,-1
 314.453125 589.35546875 l 0,0,1
EndSplineSet
EndChar

StartChar: K
Encoding: 46 75 46
Width: 554
VWidth: 488
Flags: W
LayerCount: 2
Fore
SplineSet
292.48046875 589.35546875 m 0,0,1
 261.71875 582.51953125 261.71875 582.51953125 243.65234375 574.21875 c 0,2,3
 225.5859375 565.91796875 225.5859375 565.91796875 224.12109375 559.08203125 c 0,4,-1
 191.40625 318.359375 l 0,5,-1
 407.2265625 545.8984375 l 0,6,7
 419.43359375 559.08203125 419.43359375 559.08203125 423.828125 566.89453125 c 0,8,9
 428.22265625 574.70703125 428.22265625 574.70703125 425.048828125 579.1015625 c 0,10,11
 421.875 583.49609375 421.875 583.49609375 411.62109375 585.693359375 c 0,12,13
 401.3671875 587.890625 401.3671875 587.890625 384.27734375 589.35546875 c 0,14,-1
 387.6953125 615.234375 l 0,15,-1
 580.078125 615.234375 l 0,16,-1
 576.66015625 589.35546875 l 0,17,18
 561.5234375 587.40234375 561.5234375 587.40234375 550.537109375 585.44921875 c 0,19,20
 539.55078125 583.49609375 539.55078125 583.49609375 530.517578125 580.078125 c 0,21,22
 521.484375 576.66015625 521.484375 576.66015625 513.916015625 571.77734375 c 0,23,24
 506.34765625 566.89453125 506.34765625 566.89453125 498.53515625 559.08203125 c 0,25,-1
 265.13671875 328.125 l 0,26,-1
 436.5234375 83.984375 l 0,27,28
 443.359375 74.21875 443.359375 74.21875 451.904296875 69.3359375 c 0,29,30
 460.44921875 64.453125 460.44921875 64.453125 471.923828125 63.96484375 c 0,31,32
 483.3984375 63.4765625 483.3984375 63.4765625 498.53515625 67.626953125 c 0,33,34
 513.671875 71.77734375 513.671875 71.77734375 533.69140625 80.078125 c 0,35,-1
 543.9453125 56.640625 l 0,36,37
 526.3671875 42.96875 526.3671875 42.96875 507.32421875 31.25 c 0,38,39
 488.28125 19.53125 488.28125 19.53125 470.458984375 11.23046875 c 0,40,41
 452.63671875 2.9296875 452.63671875 2.9296875 437.5 -1.953125 c 0,42,43
 422.36328125 -6.8359375 422.36328125 -6.8359375 412.59765625 -6.8359375 c 0,44,45
 397.94921875 -6.8359375 397.94921875 -6.8359375 387.939453125 -1.220703125 c 0,46,47
 377.9296875 4.39453125 377.9296875 4.39453125 367.1875 22.4609375 c 0,48,-1
 189.94140625 308.59375 l 0,49,-1
 155.76171875 55.6640625 l 0,50,51
 154.296875 49.8046875 154.296875 49.8046875 168.9453125 41.259765625 c 0,52,53
 183.59375 32.71484375 183.59375 32.71484375 214.84375 25.87890625 c 0,54,-1
 211.42578125 0 l 0,55,-1
 -1.46484375 0 l 0,56,-1
 2.44140625 25.87890625 l 0,57,58
 33.203125 32.71484375 33.203125 32.71484375 51.26953125 40.771484375 c 0,59,60
 69.3359375 48.828125 69.3359375 48.828125 70.3125 55.6640625 c 0,61,-1
 140.13671875 559.08203125 l 0,62,63
 141.11328125 564.94140625 141.11328125 564.94140625 126.46484375 573.73046875 c 0,64,65
 111.81640625 582.51953125 111.81640625 582.51953125 80.078125 589.35546875 c 0,66,-1
 83.49609375 615.234375 l 0,67,-1
 296.38671875 615.234375 l 0,68,-1
 292.48046875 589.35546875 l 0,0,1
EndSplineSet
EndChar

StartChar: L
Encoding: 47 76 47
Width: 460
VWidth: 488
Flags: W
LayerCount: 2
Fore
SplineSet
428.7109375 128.90625 m 0,0,1
 423.828125 107.91015625 423.828125 107.91015625 418.701171875 87.890625 c 0,2,3
 413.57421875 67.87109375 413.57421875 67.87109375 408.447265625 50.537109375 c 0,4,5
 403.3203125 33.203125 403.3203125 33.203125 398.92578125 20.263671875 c 0,6,7
 394.53125 7.32421875 394.53125 7.32421875 391.6015625 0 c 0,8,-1
 -1.46484375 0 l 0,9,-1
 2.44140625 25.87890625 l 0,10,11
 33.203125 32.71484375 33.203125 32.71484375 51.26953125 40.771484375 c 0,12,13
 69.3359375 48.828125 69.3359375 48.828125 70.3125 55.6640625 c 0,14,-1
 140.13671875 559.08203125 l 0,15,16
 141.11328125 564.94140625 141.11328125 564.94140625 126.46484375 573.73046875 c 0,17,18
 111.81640625 582.51953125 111.81640625 582.51953125 80.078125 589.35546875 c 0,19,-1
 83.49609375 615.234375 l 0,20,-1
 296.38671875 615.234375 l 0,21,-1
 292.48046875 589.35546875 l 0,22,23
 261.71875 582.51953125 261.71875 582.51953125 243.65234375 574.21875 c 0,24,25
 225.5859375 565.91796875 225.5859375 565.91796875 224.12109375 559.08203125 c 0,26,-1
 158.69140625 81.54296875 l 0,27,28
 157.71484375 72.75390625 157.71484375 72.75390625 160.64453125 66.650390625 c 0,29,30
 163.57421875 60.546875 163.57421875 60.546875 172.607421875 56.396484375 c 0,31,32
 181.640625 52.24609375 181.640625 52.24609375 197.509765625 50.537109375 c 0,33,34
 213.37890625 48.828125 213.37890625 48.828125 237.79296875 48.828125 c 0,35,-1
 296.38671875 48.828125 l 0,36,37
 316.89453125 48.828125 316.89453125 48.828125 331.298828125 52.24609375 c 0,38,39
 345.703125 55.6640625 345.703125 55.6640625 357.666015625 65.4296875 c 0,40,41
 369.62890625 75.1953125 369.62890625 75.1953125 380.859375 92.7734375 c 0,42,43
 392.08984375 110.3515625 392.08984375 110.3515625 405.76171875 139.16015625 c 0,44,-1
 428.7109375 128.90625 l 0,0,1
EndSplineSet
EndChar

StartChar: M
Encoding: 48 77 48
Width: 753
VWidth: 488
Flags: W
LayerCount: 2
Fore
SplineSet
764.16015625 589.35546875 m 0,0,1
 751.46484375 589.35546875 751.46484375 589.35546875 734.86328125 584.9609375 c 0,2,3
 718.26171875 580.56640625 718.26171875 580.56640625 700.68359375 573.2421875 c 0,4,-1
 641.11328125 55.6640625 l 0,5,6
 640.13671875 49.8046875 640.13671875 49.8046875 656.005859375 41.259765625 c 0,7,8
 671.875 32.71484375 671.875 32.71484375 703.61328125 25.87890625 c 0,9,-1
 700.1953125 0 l 0,10,-1
 488.28125 0 l 0,11,-1
 491.69921875 25.87890625 l 0,12,13
 522.94921875 32.71484375 522.94921875 32.71484375 542.48046875 40.771484375 c 0,14,15
 562.01171875 48.828125 562.01171875 48.828125 562.98828125 55.6640625 c 0,16,-1
 614.2578125 499.51171875 l 0,17,-1
 353.515625 0 l 0,18,-1
 326.171875 0 l 0,19,-1
 193.359375 495.60546875 l 0,20,-1
 129.39453125 55.6640625 l 0,21,22
 128.41796875 49.8046875 128.41796875 49.8046875 142.822265625 41.259765625 c 0,23,24
 157.2265625 32.71484375 157.2265625 32.71484375 188.96484375 25.87890625 c 0,25,-1
 185.546875 0 l 0,26,-1
 2.44140625 0 l 0,27,-1
 5.859375 25.87890625 l 0,28,29
 37.59765625 32.71484375 37.59765625 32.71484375 54.931640625 40.771484375 c 0,30,31
 72.265625 48.828125 72.265625 48.828125 73.2421875 55.6640625 c 0,32,-1
 148.4375 571.2890625 l 0,33,34
 133.30078125 581.0546875 133.30078125 581.0546875 117.1875 585.205078125 c 0,35,36
 101.07421875 589.35546875 101.07421875 589.35546875 88.37890625 589.35546875 c 0,37,-1
 91.796875 615.234375 l 0,38,-1
 230.46875 615.234375 l 0,39,40
 234.86328125 615.234375 234.86328125 615.234375 237.548828125 613.76953125 c 0,41,42
 240.234375 612.3046875 240.234375 612.3046875 242.919921875 607.91015625 c 0,43,44
 245.60546875 603.515625 245.60546875 603.515625 248.046875 595.458984375 c 0,45,46
 250.48828125 587.40234375 250.48828125 587.40234375 253.90625 574.21875 c 0,47,-1
 372.0703125 147.4609375 l 0,48,-1
 596.19140625 574.21875 l 0,49,50
 603.02734375 587.40234375 603.02734375 587.40234375 607.91015625 595.458984375 c 0,51,52
 612.79296875 603.515625 612.79296875 603.515625 616.455078125 607.91015625 c 0,53,54
 620.1171875 612.3046875 620.1171875 612.3046875 623.53515625 613.76953125 c 0,55,56
 626.953125 615.234375 626.953125 615.234375 631.34765625 615.234375 c 0,57,-1
 767.08984375 615.234375 l 0,58,-1
 764.16015625 589.35546875 l 0,0,1
EndSplineSet
EndChar

StartChar: N
Encoding: 49 78 49
Width: 609
VWidth: 488
Flags: W
LayerCount: 2
Fore
SplineSet
637.6953125 589.35546875 m 0,0,1
 604.98046875 584.47265625 604.98046875 584.47265625 588.8671875 575.927734375 c 0,2,3
 572.75390625 567.3828125 572.75390625 567.3828125 571.77734375 559.08203125 c 0,4,-1
 492.1875 -15.13671875 l 0,5,6
 464.35546875 -11.71875 464.35546875 -11.71875 447.509765625 -2.685546875 c 0,7,8
 430.6640625 6.34765625 430.6640625 6.34765625 419.43359375 27.83203125 c 0,9,-1
 184.5703125 477.05078125 l 0,10,-1
 126.953125 55.6640625 l 0,11,12
 125.9765625 49.8046875 125.9765625 49.8046875 138.916015625 40.52734375 c 0,13,14
 151.85546875 31.25 151.85546875 31.25 185.546875 25.87890625 c 0,15,-1
 182.12890625 0 l 0,16,-1
 -0.48828125 0 l 0,17,-1
 3.41796875 25.87890625 l 0,18,19
 36.62109375 30.2734375 36.62109375 30.2734375 52.734375 39.55078125 c 0,20,21
 68.84765625 48.828125 68.84765625 48.828125 69.82421875 55.6640625 c 0,22,-1
 139.16015625 557.12890625 l 0,23,24
 126.46484375 571.77734375 126.46484375 571.77734375 111.572265625 578.857421875 c 0,25,26
 96.6796875 585.9375 96.6796875 585.9375 77.1484375 589.35546875 c 0,27,-1
 80.56640625 615.234375 l 0,28,-1
 180.17578125 615.234375 l 0,29,30
 189.94140625 615.234375 189.94140625 615.234375 195.556640625 614.501953125 c 0,31,32
 201.171875 613.76953125 201.171875 613.76953125 205.56640625 610.107421875 c 0,33,34
 209.9609375 606.4453125 209.9609375 606.4453125 214.35546875 598.6328125 c 0,35,36
 218.75 590.8203125 218.75 590.8203125 225.5859375 577.1484375 c 0,37,-1
 457.03125 137.6953125 l 0,38,-1
 514.6484375 559.08203125 l 0,39,40
 515.13671875 562.01171875 515.13671875 562.01171875 512.451171875 566.162109375 c 0,41,42
 509.765625 570.3125 509.765625 570.3125 502.9296875 574.462890625 c 0,43,44
 496.09375 578.61328125 496.09375 578.61328125 484.619140625 582.51953125 c 0,45,46
 473.14453125 586.42578125 473.14453125 586.42578125 455.56640625 589.35546875 c 0,47,-1
 458.984375 615.234375 l 0,48,-1
 641.11328125 615.234375 l 0,49,-1
 637.6953125 589.35546875 l 0,0,1
EndSplineSet
EndChar

StartChar: O
Encoding: 50 79 50
Width: 554
VWidth: 488
Flags: W
LayerCount: 2
Fore
SplineSet
541.50390625 377.9296875 m 0,0,1
 541.50390625 343.26171875 541.50390625 343.26171875 535.400390625 307.6171875 c 0,2,3
 529.296875 271.97265625 529.296875 271.97265625 517.578125 237.3046875 c 0,4,5
 505.859375 202.63671875 505.859375 202.63671875 488.76953125 170.166015625 c 0,6,7
 471.6796875 137.6953125 471.6796875 137.6953125 449.70703125 109.86328125 c 0,8,9
 429.19921875 83.49609375 429.19921875 83.49609375 405.2734375 60.791015625 c 0,10,11
 381.34765625 38.0859375 381.34765625 38.0859375 354.248046875 21.240234375 c 0,12,13
 327.1484375 4.39453125 327.1484375 4.39453125 297.36328125 -5.37109375 c 0,14,15
 267.578125 -15.13671875 267.578125 -15.13671875 234.86328125 -15.13671875 c 0,16,17
 187.01171875 -15.13671875 187.01171875 -15.13671875 150.87890625 4.8828125 c 0,18,19
 114.74609375 24.90234375 114.74609375 24.90234375 90.33203125 59.326171875 c 0,20,21
 65.91796875 93.75 65.91796875 93.75 53.7109375 139.6484375 c 0,22,23
 41.50390625 185.546875 41.50390625 185.546875 41.50390625 236.81640625 c 0,24,25
 41.50390625 269.53125 41.50390625 269.53125 47.36328125 304.19921875 c 0,26,27
 53.22265625 338.8671875 53.22265625 338.8671875 63.96484375 372.802734375 c 0,28,29
 74.70703125 406.73828125 74.70703125 406.73828125 90.087890625 438.4765625 c 0,30,31
 105.46875 470.21484375 105.46875 470.21484375 125 497.0703125 c 0,32,33
 145.5078125 524.4140625 145.5078125 524.4140625 169.43359375 548.583984375 c 0,34,35
 193.359375 572.75390625 193.359375 572.75390625 221.435546875 590.8203125 c 0,36,37
 249.51171875 608.88671875 249.51171875 608.88671875 281.25 619.384765625 c 0,38,39
 312.98828125 629.8828125 312.98828125 629.8828125 349.12109375 629.8828125 c 0,40,41
 398.4375 629.8828125 398.4375 629.8828125 434.814453125 609.86328125 c 0,42,43
 471.19140625 589.84375 471.19140625 589.84375 494.873046875 555.419921875 c 0,44,45
 518.5546875 520.99609375 518.5546875 520.99609375 530.029296875 475.09765625 c 0,46,47
 541.50390625 429.19921875 541.50390625 429.19921875 541.50390625 377.9296875 c 0,0,1
454.1015625 369.140625 m 0,48,49
 454.1015625 410.15625 454.1015625 410.15625 445.556640625 446.533203125 c 0,50,51
 437.01171875 482.91015625 437.01171875 482.91015625 420.654296875 509.765625 c 0,52,53
 404.296875 536.62109375 404.296875 536.62109375 380.126953125 552.24609375 c 0,54,55
 355.95703125 567.87109375 355.95703125 567.87109375 324.70703125 567.87109375 c 0,56,57
 290.0390625 567.87109375 290.0390625 567.87109375 262.20703125 553.7109375 c 0,58,59
 234.375 539.55078125 234.375 539.55078125 212.646484375 515.380859375 c 0,60,61
 190.91796875 491.2109375 190.91796875 491.2109375 175.537109375 459.9609375 c 0,62,63
 160.15625 428.7109375 160.15625 428.7109375 150.146484375 394.287109375 c 0,64,65
 140.13671875 359.86328125 140.13671875 359.86328125 135.25390625 325.1953125 c 0,66,67
 130.37109375 290.52734375 130.37109375 290.52734375 130.37109375 259.765625 c 0,68,69
 130.37109375 214.35546875 130.37109375 214.35546875 139.404296875 175.78125 c 0,70,71
 148.4375 137.20703125 148.4375 137.20703125 165.283203125 109.375 c 0,72,73
 182.12890625 81.54296875 182.12890625 81.54296875 206.0546875 65.91796875 c 0,74,75
 229.98046875 50.29296875 229.98046875 50.29296875 259.27734375 50.29296875 c 0,76,77
 294.921875 50.29296875 294.921875 50.29296875 322.998046875 65.185546875 c 0,78,79
 351.07421875 80.078125 351.07421875 80.078125 372.802734375 105.224609375 c 0,80,81
 394.53125 130.37109375 394.53125 130.37109375 409.912109375 163.0859375 c 0,82,83
 425.29296875 195.80078125 425.29296875 195.80078125 435.05859375 231.201171875 c 0,84,85
 444.82421875 266.6015625 444.82421875 266.6015625 449.462890625 302.24609375 c 0,86,87
 454.1015625 337.890625 454.1015625 337.890625 454.1015625 369.140625 c 0,48,49
EndSplineSet
EndChar

StartChar: P
Encoding: 51 80 51
Width: 487
VWidth: 488
Flags: W
LayerCount: 2
Fore
SplineSet
494.62890625 459.9609375 m 0,0,1
 494.62890625 418.45703125 494.62890625 418.45703125 477.783203125 381.8359375 c 0,2,3
 460.9375 345.21484375 460.9375 345.21484375 432.12890625 317.87109375 c 0,4,5
 403.3203125 290.52734375 403.3203125 290.52734375 364.74609375 274.658203125 c 0,6,7
 326.171875 258.7890625 326.171875 258.7890625 282.2265625 258.7890625 c 0,8,9
 263.671875 258.7890625 263.671875 258.7890625 244.62890625 263.427734375 c 0,10,11
 225.5859375 268.06640625 225.5859375 268.06640625 212.40234375 275.390625 c 0,12,-1
 206.0546875 316.40625 l 0,13,14
 222.65625 309.5703125 222.65625 309.5703125 238.037109375 304.931640625 c 0,15,16
 253.41796875 300.29296875 253.41796875 300.29296875 269.53125 300.29296875 c 0,17,18
 300.78125 300.29296875 300.78125 300.29296875 326.416015625 310.546875 c 0,19,20
 352.05078125 320.80078125 352.05078125 320.80078125 370.1171875 339.35546875 c 0,21,22
 388.18359375 357.91015625 388.18359375 357.91015625 398.193359375 384.033203125 c 0,23,24
 408.203125 410.15625 408.203125 410.15625 408.203125 441.89453125 c 0,25,26
 408.203125 482.91015625 408.203125 482.91015625 395.263671875 510.25390625 c 0,27,28
 382.32421875 537.59765625 382.32421875 537.59765625 360.83984375 554.443359375 c 0,29,30
 339.35546875 571.2890625 339.35546875 571.2890625 310.791015625 578.369140625 c 0,31,32
 282.2265625 585.44921875 282.2265625 585.44921875 250.9765625 585.44921875 c 0,33,-1
 239.2578125 585.44921875 l 0,34,35
 233.88671875 585.44921875 233.88671875 585.44921875 228.515625 584.9609375 c 0,36,-1
 155.76171875 55.6640625 l 0,37,38
 154.78515625 52.734375 154.78515625 52.734375 157.71484375 49.31640625 c 0,39,40
 160.64453125 45.8984375 160.64453125 45.8984375 168.9453125 41.9921875 c 0,41,42
 177.24609375 38.0859375 177.24609375 38.0859375 191.89453125 34.1796875 c 0,43,44
 206.54296875 30.2734375 206.54296875 30.2734375 229.4921875 25.87890625 c 0,45,-1
 226.07421875 0 l 0,46,-1
 -1.46484375 0 l 0,47,-1
 2.44140625 25.87890625 l 0,48,49
 33.203125 32.71484375 33.203125 32.71484375 51.025390625 40.771484375 c 0,50,51
 68.84765625 48.828125 68.84765625 48.828125 69.82421875 55.6640625 c 0,52,-1
 141.6015625 578.125 l 0,53,54
 124.51171875 575.68359375 124.51171875 575.68359375 106.201171875 572.265625 c 0,55,56
 87.890625 568.84765625 87.890625 568.84765625 67.87109375 563.96484375 c 0,57,-1
 67.87109375 598.14453125 l 0,58,59
 111.328125 612.79296875 111.328125 612.79296875 163.57421875 621.337890625 c 0,60,61
 215.8203125 629.8828125 215.8203125 629.8828125 279.296875 629.8828125 c 0,62,63
 329.58984375 629.8828125 329.58984375 629.8828125 369.384765625 619.140625 c 0,64,65
 409.1796875 608.3984375 409.1796875 608.3984375 437.01171875 586.9140625 c 0,66,67
 464.84375 565.4296875 464.84375 565.4296875 479.736328125 533.69140625 c 0,68,69
 494.62890625 501.953125 494.62890625 501.953125 494.62890625 459.9609375 c 0,0,1
EndSplineSet
EndChar

StartChar: Q
Encoding: 52 81 52
Width: 564
VWidth: 488
Flags: W
LayerCount: 2
Fore
SplineSet
563.4765625 -58.59375 m 0,0,1
 549.31640625 -80.078125 549.31640625 -80.078125 535.15625 -96.923828125 c 0,2,3
 520.99609375 -113.76953125 520.99609375 -113.76953125 508.056640625 -125.48828125 c 0,4,5
 495.1171875 -137.20703125 495.1171875 -137.20703125 484.375 -143.5546875 c 0,6,7
 473.6328125 -149.90234375 473.6328125 -149.90234375 466.30859375 -149.90234375 c 0,8,9
 437.98828125 -149.90234375 437.98828125 -149.90234375 411.865234375 -135.009765625 c 0,10,11
 385.7421875 -120.1171875 385.7421875 -120.1171875 360.3515625 -98.876953125 c 0,12,13
 334.9609375 -77.63671875 334.9609375 -77.63671875 310.05859375 -54.19921875 c 0,14,15
 285.15625 -30.76171875 285.15625 -30.76171875 258.7890625 -13.671875 c 0,16,17
 247.0703125 -15.13671875 247.0703125 -15.13671875 234.86328125 -15.13671875 c 0,18,19
 187.01171875 -15.13671875 187.01171875 -15.13671875 150.87890625 4.8828125 c 0,20,21
 114.74609375 24.90234375 114.74609375 24.90234375 90.33203125 59.326171875 c 0,22,23
 65.91796875 93.75 65.91796875 93.75 53.7109375 139.6484375 c 0,24,25
 41.50390625 185.546875 41.50390625 185.546875 41.50390625 236.81640625 c 0,26,27
 41.50390625 269.53125 41.50390625 269.53125 47.36328125 304.19921875 c 0,28,29
 53.22265625 338.8671875 53.22265625 338.8671875 63.96484375 372.802734375 c 0,30,31
 74.70703125 406.73828125 74.70703125 406.73828125 90.087890625 438.4765625 c 0,32,33
 105.46875 470.21484375 105.46875 470.21484375 125 497.0703125 c 0,34,35
 145.5078125 524.4140625 145.5078125 524.4140625 169.43359375 548.583984375 c 0,36,37
 193.359375 572.75390625 193.359375 572.75390625 221.435546875 590.8203125 c 0,38,39
 249.51171875 608.88671875 249.51171875 608.88671875 281.25 619.384765625 c 0,40,41
 312.98828125 629.8828125 312.98828125 629.8828125 349.12109375 629.8828125 c 0,42,43
 398.4375 629.8828125 398.4375 629.8828125 434.814453125 609.86328125 c 0,44,45
 471.19140625 589.84375 471.19140625 589.84375 494.873046875 555.419921875 c 0,46,47
 518.5546875 520.99609375 518.5546875 520.99609375 530.029296875 475.09765625 c 0,48,49
 541.50390625 429.19921875 541.50390625 429.19921875 541.50390625 377.9296875 c 0,50,51
 541.50390625 343.26171875 541.50390625 343.26171875 535.400390625 307.6171875 c 0,52,53
 529.296875 271.97265625 529.296875 271.97265625 517.578125 237.3046875 c 0,54,55
 505.859375 202.63671875 505.859375 202.63671875 488.76953125 170.166015625 c 0,56,57
 471.6796875 137.6953125 471.6796875 137.6953125 449.70703125 109.86328125 c 0,58,59
 424.31640625 77.63671875 424.31640625 77.63671875 394.775390625 51.513671875 c 0,60,61
 365.234375 25.390625 365.234375 25.390625 331.0546875 8.30078125 c 0,62,63
 351.5625 -2.9296875 351.5625 -2.9296875 370.849609375 -17.08984375 c 0,64,65
 390.13671875 -31.25 390.13671875 -31.25 408.447265625 -43.701171875 c 0,66,67
 426.7578125 -56.15234375 426.7578125 -56.15234375 444.82421875 -64.697265625 c 0,68,69
 462.890625 -73.2421875 462.890625 -73.2421875 480.46875 -73.2421875 c 0,70,71
 486.328125 -73.2421875 486.328125 -73.2421875 492.1875 -71.533203125 c 0,72,73
 498.046875 -69.82421875 498.046875 -69.82421875 506.103515625 -65.673828125 c 0,74,75
 514.16015625 -61.5234375 514.16015625 -61.5234375 524.658203125 -54.443359375 c 0,76,77
 535.15625 -47.36328125 535.15625 -47.36328125 550.29296875 -36.62109375 c 0,78,-1
 563.4765625 -58.59375 l 0,0,1
454.1015625 369.140625 m 0,79,80
 454.1015625 410.15625 454.1015625 410.15625 445.556640625 446.533203125 c 0,81,82
 437.01171875 482.91015625 437.01171875 482.91015625 420.654296875 509.765625 c 0,83,84
 404.296875 536.62109375 404.296875 536.62109375 380.126953125 552.24609375 c 0,85,86
 355.95703125 567.87109375 355.95703125 567.87109375 324.70703125 567.87109375 c 0,87,88
 290.0390625 567.87109375 290.0390625 567.87109375 262.20703125 553.7109375 c 0,89,90
 234.375 539.55078125 234.375 539.55078125 212.646484375 515.380859375 c 0,91,92
 190.91796875 491.2109375 190.91796875 491.2109375 175.537109375 459.9609375 c 0,93,94
 160.15625 428.7109375 160.15625 428.7109375 150.146484375 394.287109375 c 0,95,96
 140.13671875 359.86328125 140.13671875 359.86328125 135.25390625 325.1953125 c 0,97,98
 130.37109375 290.52734375 130.37109375 290.52734375 130.37109375 259.765625 c 0,99,100
 130.37109375 214.35546875 130.37109375 214.35546875 139.404296875 175.78125 c 0,101,102
 148.4375 137.20703125 148.4375 137.20703125 165.283203125 109.375 c 0,103,104
 182.12890625 81.54296875 182.12890625 81.54296875 206.0546875 65.91796875 c 0,105,106
 229.98046875 50.29296875 229.98046875 50.29296875 259.27734375 50.29296875 c 0,107,108
 294.921875 50.29296875 294.921875 50.29296875 322.998046875 65.185546875 c 0,109,110
 351.07421875 80.078125 351.07421875 80.078125 372.802734375 105.224609375 c 0,111,112
 394.53125 130.37109375 394.53125 130.37109375 409.912109375 163.0859375 c 0,113,114
 425.29296875 195.80078125 425.29296875 195.80078125 435.05859375 231.201171875 c 0,115,116
 444.82421875 266.6015625 444.82421875 266.6015625 449.462890625 302.24609375 c 0,117,118
 454.1015625 337.890625 454.1015625 337.890625 454.1015625 369.140625 c 0,79,80
EndSplineSet
EndChar

StartChar: R
Encoding: 53 82 53
Width: 537
VWidth: 488
Flags: W
LayerCount: 2
Fore
SplineSet
539.55078125 54.6875 m 0,0,1
 520.5078125 41.9921875 520.5078125 41.9921875 500.732421875 30.76171875 c 0,2,3
 480.95703125 19.53125 480.95703125 19.53125 463.37890625 11.23046875 c 0,4,5
 445.80078125 2.9296875 445.80078125 2.9296875 432.12890625 -1.953125 c 0,6,7
 418.45703125 -6.8359375 418.45703125 -6.8359375 412.109375 -6.8359375 c 0,8,9
 403.80859375 -6.8359375 403.80859375 -6.8359375 395.99609375 -4.39453125 c 0,10,11
 388.18359375 -1.953125 388.18359375 -1.953125 380.37109375 4.8828125 c 0,12,13
 372.55859375 11.71875 372.55859375 11.71875 364.501953125 24.4140625 c 0,14,15
 356.4453125 37.109375 356.4453125 37.109375 347.65625 57.12890625 c 0,16,-1
 244.62890625 286.1328125 l 0,17,18
 230.46875 287.109375 230.46875 287.109375 215.8203125 288.818359375 c 0,19,20
 201.171875 290.52734375 201.171875 290.52734375 188.4765625 293.9453125 c 0,21,-1
 155.76171875 55.6640625 l 0,22,23
 154.296875 49.8046875 154.296875 49.8046875 169.677734375 41.259765625 c 0,24,25
 185.05859375 32.71484375 185.05859375 32.71484375 215.8203125 25.87890625 c 0,26,-1
 212.40234375 0 l 0,27,-1
 -1.46484375 0 l 0,28,-1
 2.44140625 25.87890625 l 0,29,30
 33.203125 32.71484375 33.203125 32.71484375 51.025390625 40.771484375 c 0,31,32
 68.84765625 48.828125 68.84765625 48.828125 69.82421875 55.6640625 c 0,33,-1
 141.11328125 577.63671875 l 0,34,35
 122.0703125 575.1953125 122.0703125 575.1953125 103.515625 572.021484375 c 0,36,37
 84.9609375 568.84765625 84.9609375 568.84765625 67.3828125 564.94140625 c 0,38,-1
 67.87109375 599.12109375 l 0,39,40
 89.84375 605.46875 89.84375 605.46875 113.525390625 611.083984375 c 0,41,42
 137.20703125 616.69921875 137.20703125 616.69921875 163.57421875 620.849609375 c 0,43,44
 189.94140625 625 189.94140625 625 219.23828125 627.44140625 c 0,45,46
 248.53515625 629.8828125 248.53515625 629.8828125 281.73828125 629.8828125 c 0,47,48
 327.1484375 629.8828125 327.1484375 629.8828125 364.013671875 619.873046875 c 0,49,50
 400.87890625 609.86328125 400.87890625 609.86328125 426.513671875 590.087890625 c 0,51,52
 452.1484375 570.3125 452.1484375 570.3125 466.064453125 541.259765625 c 0,53,54
 479.98046875 512.20703125 479.98046875 512.20703125 479.98046875 474.12109375 c 0,55,56
 479.98046875 453.61328125 479.98046875 453.61328125 470.703125 426.26953125 c 0,57,58
 461.42578125 398.92578125 461.42578125 398.92578125 441.89453125 372.55859375 c 0,59,60
 422.36328125 346.19140625 422.36328125 346.19140625 391.6015625 324.21875 c 0,61,62
 360.83984375 302.24609375 360.83984375 302.24609375 318.359375 292.48046875 c 0,63,-1
 430.17578125 94.7265625 l 0,64,65
 438.4765625 80.078125 438.4765625 80.078125 446.2890625 72.509765625 c 0,66,67
 454.1015625 64.94140625 454.1015625 64.94140625 464.84375 63.4765625 c 0,68,69
 475.5859375 62.01171875 475.5859375 62.01171875 490.72265625 65.91796875 c 0,70,71
 505.859375 69.82421875 505.859375 69.82421875 529.296875 78.125 c 0,72,-1
 539.55078125 54.6875 l 0,0,1
258.7890625 585.44921875 m 0,73,74
 250.9765625 585.44921875 250.9765625 585.44921875 243.408203125 585.205078125 c 0,75,76
 235.83984375 584.9609375 235.83984375 584.9609375 228.02734375 584.9609375 c 0,77,-1
 193.84765625 335.44921875 l 0,78,79
 220.21484375 328.125 220.21484375 328.125 246.58203125 328.125 c 0,80,81
 275.87890625 328.125 275.87890625 328.125 302.490234375 336.42578125 c 0,82,83
 329.1015625 344.7265625 329.1015625 344.7265625 349.609375 361.328125 c 0,84,85
 370.1171875 377.9296875 370.1171875 377.9296875 382.32421875 402.587890625 c 0,86,87
 394.53125 427.24609375 394.53125 427.24609375 394.53125 459.9609375 c 0,88,89
 394.53125 496.09375 394.53125 496.09375 381.8359375 520.263671875 c 0,90,91
 369.140625 544.43359375 369.140625 544.43359375 349.365234375 558.837890625 c 0,92,93
 329.58984375 573.2421875 329.58984375 573.2421875 305.419921875 579.345703125 c 0,94,95
 281.25 585.44921875 281.25 585.44921875 258.7890625 585.44921875 c 0,73,74
EndSplineSet
EndChar

StartChar: S
Encoding: 54 83 54
Width: 451
VWidth: 488
Flags: W
LayerCount: 2
Fore
SplineSet
440.4296875 584.9609375 m 0,0,1
 443.359375 582.51953125 443.359375 582.51953125 437.98828125 571.2890625 c 0,2,3
 432.6171875 560.05859375 432.6171875 560.05859375 423.583984375 546.875 c 0,4,5
 414.55078125 533.69140625 414.55078125 533.69140625 404.78515625 521.97265625 c 0,6,7
 395.01953125 510.25390625 395.01953125 510.25390625 389.6484375 507.32421875 c 0,8,-1
 370.60546875 510.25390625 l 0,9,10
 355.46875 539.0625 355.46875 539.0625 330.322265625 557.861328125 c 0,11,12
 305.17578125 576.66015625 305.17578125 576.66015625 275.87890625 576.66015625 c 0,13,14
 250 576.66015625 250 576.66015625 230.224609375 568.603515625 c 0,15,16
 210.44921875 560.546875 210.44921875 560.546875 197.021484375 547.36328125 c 0,17,18
 183.59375 534.1796875 183.59375 534.1796875 176.7578125 518.06640625 c 0,19,20
 169.921875 501.953125 169.921875 501.953125 169.921875 485.83984375 c 0,21,22
 169.921875 475.09765625 169.921875 475.09765625 173.33984375 463.37890625 c 0,23,24
 176.7578125 451.66015625 176.7578125 451.66015625 187.5 438.96484375 c 0,25,26
 198.2421875 426.26953125 198.2421875 426.26953125 218.017578125 411.865234375 c 0,27,28
 237.79296875 397.4609375 237.79296875 397.4609375 270.5078125 380.859375 c 0,29,30
 309.08203125 360.83984375 309.08203125 360.83984375 336.181640625 342.7734375 c 0,31,32
 363.28125 324.70703125 363.28125 324.70703125 380.37109375 305.17578125 c 0,33,34
 397.4609375 285.64453125 397.4609375 285.64453125 405.2734375 263.427734375 c 0,35,36
 413.0859375 241.2109375 413.0859375 241.2109375 413.0859375 213.8671875 c 0,37,38
 413.0859375 167.96875 413.0859375 167.96875 393.798828125 126.46484375 c 0,39,40
 374.51171875 84.9609375 374.51171875 84.9609375 341.30859375 53.466796875 c 0,41,42
 308.10546875 21.97265625 308.10546875 21.97265625 263.671875 3.41796875 c 0,43,44
 219.23828125 -15.13671875 219.23828125 -15.13671875 168.9453125 -15.13671875 c 0,45,46
 148.4375 -15.13671875 148.4375 -15.13671875 122.314453125 -8.7890625 c 0,47,48
 96.19140625 -2.44140625 96.19140625 -2.44140625 73.486328125 7.8125 c 0,49,50
 50.78125 18.06640625 50.78125 18.06640625 35.15625 31.25 c 0,51,52
 19.53125 44.43359375 19.53125 44.43359375 19.53125 57.6171875 c 0,53,54
 19.53125 63.96484375 19.53125 63.96484375 26.123046875 76.66015625 c 0,55,56
 32.71484375 89.35546875 32.71484375 89.35546875 41.748046875 102.05078125 c 0,57,58
 50.78125 114.74609375 50.78125 114.74609375 60.791015625 124.267578125 c 0,59,60
 70.80078125 133.7890625 70.80078125 133.7890625 77.63671875 133.7890625 c 0,61,62
 82.03125 133.7890625 82.03125 133.7890625 87.40234375 127.44140625 c 0,63,64
 92.7734375 121.09375 92.7734375 121.09375 100.09765625 111.81640625 c 0,65,66
 107.421875 102.5390625 107.421875 102.5390625 116.943359375 91.552734375 c 0,67,68
 126.46484375 80.56640625 126.46484375 80.56640625 138.916015625 71.2890625 c 0,69,70
 151.3671875 62.01171875 151.3671875 62.01171875 166.9921875 55.6640625 c 0,71,72
 182.6171875 49.31640625 182.6171875 49.31640625 202.63671875 49.31640625 c 0,73,74
 230.46875 49.31640625 230.46875 49.31640625 254.39453125 58.59375 c 0,75,76
 278.3203125 67.87109375 278.3203125 67.87109375 296.142578125 84.228515625 c 0,77,78
 313.96484375 100.5859375 313.96484375 100.5859375 324.21875 123.046875 c 0,79,80
 334.47265625 145.5078125 334.47265625 145.5078125 334.47265625 172.36328125 c 0,81,82
 334.47265625 192.87109375 334.47265625 192.87109375 328.125 210.205078125 c 0,83,84
 321.77734375 227.5390625 321.77734375 227.5390625 306.884765625 244.140625 c 0,85,86
 291.9921875 260.7421875 291.9921875 260.7421875 267.08984375 276.85546875 c 0,87,88
 242.1875 292.96875 242.1875 292.96875 205.078125 310.546875 c 0,89,90
 172.8515625 325.68359375 172.8515625 325.68359375 151.85546875 342.7734375 c 0,91,92
 130.859375 359.86328125 130.859375 359.86328125 118.896484375 378.173828125 c 0,93,94
 106.93359375 396.484375 106.93359375 396.484375 102.05078125 415.283203125 c 0,95,96
 97.16796875 434.08203125 97.16796875 434.08203125 97.16796875 453.125 c 0,97,98
 97.16796875 485.3515625 97.16796875 485.3515625 112.548828125 517.08984375 c 0,99,100
 127.9296875 548.828125 127.9296875 548.828125 156.25 573.73046875 c 0,101,102
 184.5703125 598.6328125 184.5703125 598.6328125 224.365234375 614.2578125 c 0,103,104
 264.16015625 629.8828125 264.16015625 629.8828125 313.4765625 629.8828125 c 0,105,106
 352.5390625 629.8828125 352.5390625 629.8828125 384.765625 616.455078125 c 0,107,108
 416.9921875 603.02734375 416.9921875 603.02734375 440.4296875 584.9609375 c 0,0,1
EndSplineSet
EndChar

StartChar: T
Encoding: 55 84 55
Width: 527
VWidth: 488
Flags: W
LayerCount: 2
Fore
SplineSet
346.19140625 0 m 0,0,-1
 116.2109375 0 l 0,1,-1
 119.62890625 25.87890625 l 0,2,3
 140.625 30.2734375 140.625 30.2734375 155.029296875 35.15625 c 0,4,5
 169.43359375 40.0390625 169.43359375 40.0390625 178.466796875 44.677734375 c 0,6,7
 187.5 49.31640625 187.5 49.31640625 191.650390625 53.466796875 c 0,8,9
 195.80078125 57.6171875 195.80078125 57.6171875 196.2890625 61.03515625 c 0,10,-1
 266.6015625 565.91796875 l 0,11,-1
 140.13671875 565.91796875 l 0,12,13
 133.30078125 565.91796875 133.30078125 565.91796875 127.44140625 562.5 c 0,14,15
 121.58203125 559.08203125 121.58203125 559.08203125 114.2578125 549.31640625 c 0,16,17
 106.93359375 539.55078125 106.93359375 539.55078125 97.65625 521.728515625 c 0,18,19
 88.37890625 503.90625 88.37890625 503.90625 74.70703125 475.5859375 c 0,20,-1
 52.24609375 485.83984375 l 0,21,22
 54.19921875 499.0234375 54.19921875 499.0234375 57.861328125 516.357421875 c 0,23,24
 61.5234375 533.69140625 61.5234375 533.69140625 66.162109375 551.513671875 c 0,25,26
 70.80078125 569.3359375 70.80078125 569.3359375 75.68359375 586.181640625 c 0,27,28
 80.56640625 603.02734375 80.56640625 603.02734375 84.9609375 615.234375 c 0,29,-1
 546.38671875 615.234375 l 0,30,-1
 558.10546875 602.05078125 l 0,31,32
 556.15234375 590.33203125 556.15234375 590.33203125 552.734375 574.21875 c 0,33,34
 549.31640625 558.10546875 549.31640625 558.10546875 545.166015625 541.015625 c 0,35,36
 541.015625 523.92578125 541.015625 523.92578125 536.62109375 507.568359375 c 0,37,38
 532.2265625 491.2109375 532.2265625 491.2109375 527.83203125 478.02734375 c 0,39,-1
 502.9296875 478.02734375 l 0,40,41
 501.953125 501.953125 501.953125 501.953125 500.48828125 518.798828125 c 0,42,43
 499.0234375 535.64453125 499.0234375 535.64453125 495.849609375 546.142578125 c 0,44,45
 492.67578125 556.640625 492.67578125 556.640625 486.81640625 561.279296875 c 0,46,47
 480.95703125 565.91796875 480.95703125 565.91796875 471.19140625 565.91796875 c 0,48,-1
 350.5859375 565.91796875 l 0,49,-1
 281.73828125 61.03515625 l 0,50,51
 281.25 58.10546875 281.25 58.10546875 284.423828125 53.955078125 c 0,52,53
 287.59765625 49.8046875 287.59765625 49.8046875 295.41015625 44.921875 c 0,54,55
 303.22265625 40.0390625 303.22265625 40.0390625 316.40625 35.15625 c 0,56,57
 329.58984375 30.2734375 329.58984375 30.2734375 349.609375 25.87890625 c 0,58,-1
 346.19140625 0 l 0,0,-1
EndSplineSet
EndChar

StartChar: U
Encoding: 56 85 56
Width: 605
VWidth: 488
Flags: W
LayerCount: 2
Fore
SplineSet
632.32421875 589.35546875 m 0,0,1
 601.5625 582.51953125 601.5625 582.51953125 585.205078125 574.21875 c 0,2,3
 568.84765625 565.91796875 568.84765625 565.91796875 567.87109375 559.08203125 c 0,4,-1
 524.4140625 250 l 0,5,6
 515.625 186.03515625 515.625 186.03515625 493.896484375 136.474609375 c 0,7,8
 472.16796875 86.9140625 472.16796875 86.9140625 439.94140625 53.22265625 c 0,9,10
 407.71484375 19.53125 407.71484375 19.53125 366.2109375 2.197265625 c 0,11,12
 324.70703125 -15.13671875 324.70703125 -15.13671875 276.3671875 -15.13671875 c 0,13,14
 236.328125 -15.13671875 236.328125 -15.13671875 201.904296875 -2.9296875 c 0,15,16
 167.48046875 9.27734375 167.48046875 9.27734375 142.333984375 32.71484375 c 0,17,18
 117.1875 56.15234375 117.1875 56.15234375 103.02734375 90.576171875 c 0,19,20
 88.8671875 125 88.8671875 125 88.8671875 169.921875 c 0,21,22
 88.8671875 195.80078125 88.8671875 195.80078125 93.26171875 226.07421875 c 0,23,-1
 140.625 559.08203125 l 0,24,25
 141.6015625 564.94140625 141.6015625 564.94140625 127.197265625 573.73046875 c 0,26,27
 112.79296875 582.51953125 112.79296875 582.51953125 81.0546875 589.35546875 c 0,28,-1
 84.47265625 615.234375 l 0,29,-1
 296.38671875 615.234375 l 0,30,-1
 292.48046875 589.35546875 l 0,31,32
 261.71875 582.51953125 261.71875 582.51953125 243.65234375 574.21875 c 0,33,34
 225.5859375 565.91796875 225.5859375 565.91796875 224.609375 559.08203125 c 0,35,-1
 181.640625 249.0234375 l 0,36,37
 179.6875 234.86328125 179.6875 234.86328125 178.955078125 220.703125 c 0,38,39
 178.22265625 206.54296875 178.22265625 206.54296875 178.22265625 193.84765625 c 0,40,41
 178.22265625 159.66796875 178.22265625 159.66796875 186.279296875 132.568359375 c 0,42,43
 194.3359375 105.46875 194.3359375 105.46875 210.205078125 86.42578125 c 0,44,45
 226.07421875 67.3828125 226.07421875 67.3828125 249.755859375 57.12890625 c 0,46,47
 273.4375 46.875 273.4375 46.875 304.6875 46.875 c 0,48,49
 336.42578125 46.875 336.42578125 46.875 362.3046875 61.767578125 c 0,50,51
 388.18359375 76.66015625 388.18359375 76.66015625 407.71484375 101.5625 c 0,52,53
 427.24609375 126.46484375 427.24609375 126.46484375 439.697265625 159.423828125 c 0,54,55
 452.1484375 192.3828125 452.1484375 192.3828125 457.03125 229.00390625 c 0,56,-1
 501.953125 559.08203125 l 0,57,58
 502.9296875 564.94140625 502.9296875 564.94140625 489.74609375 573.73046875 c 0,59,60
 476.5625 582.51953125 476.5625 582.51953125 444.82421875 589.35546875 c 0,61,-1
 448.2421875 615.234375 l 0,62,-1
 635.7421875 615.234375 l 0,63,-1
 632.32421875 589.35546875 l 0,0,1
EndSplineSet
EndChar

StartChar: V
Encoding: 57 86 57
Width: 598
VWidth: 488
Flags: W
LayerCount: 2
Fore
SplineSet
641.11328125 589.35546875 m 0,0,1
 609.86328125 583.0078125 609.86328125 583.0078125 591.552734375 576.904296875 c 0,2,3
 573.2421875 570.80078125 573.2421875 570.80078125 566.89453125 557.12890625 c 0,4,-1
 324.21875 32.71484375 l 0,5,6
 319.3359375 21.97265625 319.3359375 21.97265625 309.08203125 13.916015625 c 0,7,8
 298.828125 5.859375 298.828125 5.859375 286.62109375 0 c 0,9,10
 274.4140625 -5.859375 274.4140625 -5.859375 262.6953125 -9.521484375 c 0,11,12
 250.9765625 -13.18359375 250.9765625 -13.18359375 243.1640625 -15.13671875 c 0,13,-1
 122.0703125 557.12890625 l 0,14,15
 119.62890625 569.82421875 119.62890625 569.82421875 106.93359375 577.63671875 c 0,16,17
 94.23828125 585.44921875 94.23828125 585.44921875 65.4296875 589.35546875 c 0,18,-1
 68.84765625 615.234375 l 0,19,-1
 275.390625 615.234375 l 0,20,-1
 271.97265625 589.35546875 l 0,21,22
 236.81640625 586.9140625 236.81640625 586.9140625 222.65625 579.58984375 c 0,23,24
 208.49609375 572.265625 208.49609375 572.265625 211.9140625 557.6171875 c 0,25,-1
 303.7109375 109.86328125 l 0,26,-1
 510.25390625 557.12890625 l 0,27,28
 517.08984375 571.2890625 517.08984375 571.2890625 502.9296875 577.880859375 c 0,29,30
 488.76953125 584.47265625 488.76953125 584.47265625 453.125 589.35546875 c 0,31,-1
 456.54296875 615.234375 l 0,32,-1
 645.01953125 615.234375 l 0,33,-1
 641.11328125 589.35546875 l 0,0,1
EndSplineSet
EndChar

StartChar: W
Encoding: 58 87 58
Width: 770
VWidth: 488
Flags: W
LayerCount: 2
Fore
SplineSet
818.359375 589.35546875 m 0,0,1
 786.1328125 582.03125 786.1328125 582.03125 767.333984375 576.171875 c 0,2,3
 748.53515625 570.3125 748.53515625 570.3125 744.62890625 559.08203125 c 0,4,-1
 569.3359375 28.80859375 l 0,5,6
 565.4296875 18.06640625 565.4296875 18.06640625 556.640625 10.498046875 c 0,7,8
 547.8515625 2.9296875 547.8515625 2.9296875 537.59765625 -2.197265625 c 0,9,10
 527.34375 -7.32421875 527.34375 -7.32421875 517.08984375 -10.498046875 c 0,11,12
 506.8359375 -13.671875 506.8359375 -13.671875 500.48828125 -15.13671875 c 0,13,-1
 415.52734375 450.68359375 l 0,14,-1
 229.00390625 28.80859375 l 0,15,16
 224.12109375 17.578125 224.12109375 17.578125 214.599609375 10.009765625 c 0,17,18
 205.078125 2.44140625 205.078125 2.44140625 194.091796875 -2.685546875 c 0,19,20
 183.10546875 -7.8125 183.10546875 -7.8125 172.607421875 -10.7421875 c 0,21,22
 162.109375 -13.671875 162.109375 -13.671875 155.2734375 -15.13671875 c 0,23,-1
 117.67578125 555.17578125 l 0,24,25
 116.69921875 567.3828125 116.69921875 567.3828125 104.4921875 575.1953125 c 0,26,27
 92.28515625 583.0078125 92.28515625 583.0078125 60.546875 589.35546875 c 0,28,-1
 63.96484375 615.234375 l 0,29,-1
 265.13671875 615.234375 l 0,30,-1
 261.71875 589.35546875 l 0,31,32
 239.74609375 586.9140625 239.74609375 586.9140625 226.806640625 583.251953125 c 0,33,34
 213.8671875 579.58984375 213.8671875 579.58984375 207.03125 575.1953125 c 0,35,36
 200.1953125 570.80078125 200.1953125 570.80078125 198.2421875 565.673828125 c 0,37,38
 196.2890625 560.546875 196.2890625 560.546875 196.77734375 555.17578125 c 0,39,-1
 225.09765625 145.5078125 l 0,40,-1
 431.15234375 615.234375 l 0,41,-1
 464.35546875 615.234375 l 0,42,-1
 553.7109375 145.5078125 l 0,43,-1
 689.453125 559.08203125 l 0,44,45
 691.40625 564.94140625 691.40625 564.94140625 687.255859375 569.3359375 c 0,46,47
 683.10546875 573.73046875 683.10546875 573.73046875 674.31640625 577.1484375 c 0,48,49
 665.52734375 580.56640625 665.52734375 580.56640625 653.076171875 583.49609375 c 0,50,51
 640.625 586.42578125 640.625 586.42578125 625.48828125 589.35546875 c 0,52,-1
 628.90625 615.234375 l 0,53,-1
 821.2890625 615.234375 l 0,54,-1
 818.359375 589.35546875 l 0,0,1
EndSplineSet
EndChar

StartChar: X
Encoding: 59 88 59
Width: 578
VWidth: 488
Flags: W
LayerCount: 2
Fore
SplineSet
535.15625 0 m 0,0,-1
 321.2890625 0 l 0,1,-1
 324.70703125 25.87890625 l 0,2,3
 344.7265625 27.83203125 344.7265625 27.83203125 357.177734375 31.005859375 c 0,4,5
 369.62890625 34.1796875 369.62890625 34.1796875 375.9765625 38.818359375 c 0,6,7
 382.32421875 43.45703125 382.32421875 43.45703125 382.32421875 50.29296875 c 0,8,9
 382.32421875 57.12890625 382.32421875 57.12890625 377.44140625 66.89453125 c 0,10,-1
 281.73828125 260.25390625 l 0,11,-1
 144.04296875 66.89453125 l 0,12,13
 128.41796875 45.41015625 128.41796875 45.41015625 140.380859375 37.109375 c 0,14,15
 152.34375 28.80859375 152.34375 28.80859375 192.87109375 25.87890625 c 0,16,-1
 189.453125 0 l 0,17,-1
 -12.20703125 0 l 0,18,-1
 -8.7890625 25.87890625 l 0,19,20
 20.99609375 28.3203125 20.99609375 28.3203125 42.724609375 37.59765625 c 0,21,22
 64.453125 46.875 64.453125 46.875 78.61328125 66.89453125 c 0,23,-1
 254.39453125 315.91796875 l 0,24,-1
 139.6484375 548.33984375 l 0,25,26
 133.7890625 559.08203125 133.7890625 559.08203125 128.41796875 565.91796875 c 0,27,28
 123.046875 572.75390625 123.046875 572.75390625 115.72265625 577.1484375 c 0,29,30
 108.3984375 581.54296875 108.3984375 581.54296875 98.388671875 584.228515625 c 0,31,32
 88.37890625 586.9140625 88.37890625 586.9140625 73.73046875 589.35546875 c 0,33,-1
 77.1484375 615.234375 l 0,34,-1
 292.48046875 615.234375 l 0,35,-1
 289.0625 589.35546875 l 0,36,37
 250.48828125 585.44921875 250.48828125 585.44921875 237.548828125 577.63671875 c 0,38,39
 224.609375 569.82421875 224.609375 569.82421875 235.3515625 548.33984375 c 0,40,-1
 318.359375 380.37109375 l 0,41,-1
 437.01171875 548.33984375 l 0,42,43
 444.82421875 559.5703125 444.82421875 559.5703125 445.556640625 566.650390625 c 0,44,45
 446.2890625 573.73046875 446.2890625 573.73046875 439.94140625 578.369140625 c 0,46,47
 433.59375 583.0078125 433.59375 583.0078125 420.41015625 585.44921875 c 0,48,49
 407.2265625 587.890625 407.2265625 587.890625 387.6953125 589.35546875 c 0,50,-1
 391.6015625 615.234375 l 0,51,-1
 593.75 615.234375 l 0,52,-1
 589.84375 589.35546875 l 0,53,54
 573.73046875 587.40234375 573.73046875 587.40234375 560.791015625 584.716796875 c 0,55,56
 547.8515625 582.03125 547.8515625 582.03125 537.353515625 577.392578125 c 0,57,58
 526.85546875 572.75390625 526.85546875 572.75390625 518.310546875 565.673828125 c 0,59,60
 509.765625 558.59375 509.765625 558.59375 502.44140625 548.33984375 c 0,61,-1
 344.7265625 327.1484375 l 0,62,-1
 474.12109375 66.89453125 l 0,63,64
 479.00390625 56.640625 479.00390625 56.640625 485.107421875 49.560546875 c 0,65,66
 491.2109375 42.48046875 491.2109375 42.48046875 498.779296875 37.841796875 c 0,67,68
 506.34765625 33.203125 506.34765625 33.203125 516.357421875 30.517578125 c 0,69,70
 526.3671875 27.83203125 526.3671875 27.83203125 539.0625 25.87890625 c 0,71,-1
 535.15625 0 l 0,0,-1
EndSplineSet
EndChar

StartChar: Y
Encoding: 60 89 60
Width: 562
VWidth: 488
Flags: W
LayerCount: 2
Fore
SplineSet
369.140625 0 m 0,0,-1
 138.671875 0 l 0,1,-1
 142.578125 25.87890625 l 0,2,3
 163.57421875 30.2734375 163.57421875 30.2734375 178.22265625 35.15625 c 0,4,5
 192.87109375 40.0390625 192.87109375 40.0390625 201.904296875 44.677734375 c 0,6,7
 210.9375 49.31640625 210.9375 49.31640625 215.087890625 53.466796875 c 0,8,9
 219.23828125 57.6171875 219.23828125 57.6171875 219.7265625 61.03515625 c 0,10,-1
 247.55859375 265.625 l 0,11,12
 238.28125 301.7578125 238.28125 301.7578125 224.12109375 343.017578125 c 0,13,14
 209.9609375 384.27734375 209.9609375 384.27734375 193.359375 424.072265625 c 0,15,16
 176.7578125 463.8671875 176.7578125 463.8671875 159.423828125 499.0234375 c 0,17,18
 142.08984375 534.1796875 142.08984375 534.1796875 126.953125 558.59375 c 0,19,20
 122.55859375 565.4296875 122.55859375 565.4296875 117.431640625 569.82421875 c 0,21,22
 112.3046875 574.21875 112.3046875 574.21875 104.4921875 576.416015625 c 0,23,24
 96.6796875 578.61328125 96.6796875 578.61328125 84.9609375 578.857421875 c 0,25,26
 73.2421875 579.1015625 73.2421875 579.1015625 55.6640625 577.63671875 c 0,27,-1
 53.22265625 603.515625 l 0,28,29
 66.40625 606.4453125 66.40625 606.4453125 83.0078125 609.86328125 c 0,30,31
 99.609375 613.28125 99.609375 613.28125 115.966796875 615.966796875 c 0,32,33
 132.32421875 618.65234375 132.32421875 618.65234375 146.728515625 620.60546875 c 0,34,35
 161.1328125 622.55859375 161.1328125 622.55859375 170.41015625 622.55859375 c 0,36,37
 178.22265625 622.55859375 178.22265625 622.55859375 186.279296875 617.1875 c 0,38,39
 194.3359375 611.81640625 194.3359375 611.81640625 200.68359375 602.05078125 c 0,40,41
 210.9375 585.9375 210.9375 585.9375 222.16796875 564.453125 c 0,42,43
 233.3984375 542.96875 233.3984375 542.96875 244.384765625 519.04296875 c 0,44,45
 255.37109375 495.1171875 255.37109375 495.1171875 265.869140625 469.482421875 c 0,46,47
 276.3671875 443.84765625 276.3671875 443.84765625 285.64453125 419.189453125 c 0,48,49
 294.921875 394.53125 294.921875 394.53125 302.24609375 371.826171875 c 0,50,51
 309.5703125 349.12109375 309.5703125 349.12109375 314.453125 331.0546875 c 0,52,-1
 460.44921875 557.12890625 l 0,53,54
 468.75 570.80078125 468.75 570.80078125 458.0078125 577.63671875 c 0,55,56
 447.265625 584.47265625 447.265625 584.47265625 413.57421875 589.35546875 c 0,57,-1
 416.9921875 615.234375 l 0,58,-1
 597.16796875 615.234375 l 0,59,-1
 593.75 589.35546875 l 0,60,61
 562.5 583.0078125 562.5 583.0078125 545.8984375 576.416015625 c 0,62,63
 529.296875 569.82421875 529.296875 569.82421875 520.99609375 557.12890625 c 0,64,-1
 332.03125 261.23046875 l 0,65,-1
 304.6875 61.03515625 l 0,66,67
 304.19921875 58.10546875 304.19921875 58.10546875 307.373046875 53.955078125 c 0,68,69
 310.546875 49.8046875 310.546875 49.8046875 318.115234375 44.921875 c 0,70,71
 325.68359375 40.0390625 325.68359375 40.0390625 339.111328125 35.15625 c 0,72,73
 352.5390625 30.2734375 352.5390625 30.2734375 372.55859375 25.87890625 c 0,74,-1
 369.140625 0 l 0,0,-1
EndSplineSet
EndChar

StartChar: Z
Encoding: 61 90 61
Width: 505
VWidth: 488
Flags: W
LayerCount: 2
Fore
SplineSet
130.859375 53.7109375 m 0,0,-1
 357.421875 53.7109375 l 0,1,2
 367.1875 53.7109375 367.1875 53.7109375 375.9765625 59.326171875 c 0,3,4
 384.765625 64.94140625 384.765625 64.94140625 393.798828125 77.880859375 c 0,5,6
 402.83203125 90.8203125 402.83203125 90.8203125 413.0859375 112.060546875 c 0,7,8
 423.33984375 133.30078125 423.33984375 133.30078125 436.03515625 164.55078125 c 0,9,-1
 464.35546875 156.73828125 l 0,10,11
 461.42578125 140.625 461.42578125 140.625 457.763671875 119.384765625 c 0,12,13
 454.1015625 98.14453125 454.1015625 98.14453125 450.439453125 76.416015625 c 0,14,15
 446.77734375 54.6875 446.77734375 54.6875 443.359375 34.423828125 c 0,16,17
 439.94140625 14.16015625 439.94140625 14.16015625 437.5 0 c 0,18,-1
 22.94921875 0 l 0,19,-1
 12.6953125 23.4375 l 0,20,-1
 395.01953125 563.96484375 l 0,21,-1
 198.2421875 563.96484375 l 0,22,23
 190.91796875 563.96484375 190.91796875 563.96484375 181.15234375 557.6171875 c 0,24,25
 171.38671875 551.26953125 171.38671875 551.26953125 160.888671875 538.330078125 c 0,26,27
 150.390625 525.390625 150.390625 525.390625 139.892578125 505.859375 c 0,28,29
 129.39453125 486.328125 129.39453125 486.328125 120.60546875 459.47265625 c 0,30,-1
 90.8203125 466.30859375 l 0,31,-1
 127.9296875 626.953125 l 0,32,33
 139.6484375 622.55859375 139.6484375 622.55859375 149.658203125 620.1171875 c 0,34,35
 159.66796875 617.67578125 159.66796875 617.67578125 169.189453125 616.69921875 c 0,36,37
 178.7109375 615.72265625 178.7109375 615.72265625 189.208984375 615.478515625 c 0,38,39
 199.70703125 615.234375 199.70703125 615.234375 212.40234375 615.234375 c 0,40,-1
 499.51171875 615.234375 l 0,41,-1
 509.27734375 591.796875 l 0,42,-1
 130.859375 53.7109375 l 0,0,-1
EndSplineSet
EndChar

StartChar: bracketleft
Encoding: 62 91 62
Width: 308
VWidth: 488
Flags: W
LayerCount: 2
Fore
SplineSet
357.421875 767.08984375 m 0,0,1
 355.95703125 761.23046875 355.95703125 761.23046875 353.271484375 754.39453125 c 0,2,3
 350.5859375 747.55859375 350.5859375 747.55859375 347.65625 741.2109375 c 0,4,5
 344.7265625 734.86328125 344.7265625 734.86328125 341.796875 729.4921875 c 0,6,7
 338.8671875 724.12109375 338.8671875 724.12109375 336.9140625 721.19140625 c 0,8,-1
 208.984375 721.19140625 l 0,9,-1
 94.23828125 -103.02734375 l 0,10,-1
 219.23828125 -103.02734375 l 0,11,-1
 234.375 -118.65234375 l 0,12,13
 232.91015625 -123.53515625 232.91015625 -123.53515625 230.46875 -129.638671875 c 0,14,15
 228.02734375 -135.7421875 228.02734375 -135.7421875 225.341796875 -141.845703125 c 0,16,17
 222.65625 -147.94921875 222.65625 -147.94921875 219.7265625 -153.80859375 c 0,18,19
 216.796875 -159.66796875 216.796875 -159.66796875 214.35546875 -164.0625 c 0,20,-1
 8.7890625 -164.0625 l 0,21,-1
 141.6015625 780.76171875 l 0,22,-1
 343.26171875 780.76171875 l 0,23,-1
 357.421875 767.08984375 l 0,0,1
EndSplineSet
EndChar

StartChar: backslash
Encoding: 63 92 63
Width: 406
VWidth: 488
Flags: W
LayerCount: 2
Fore
SplineSet
322.265625 -164.0625 m 0,0,1
 316.89453125 -162.109375 316.89453125 -162.109375 307.861328125 -158.935546875 c 0,2,3
 298.828125 -155.76171875 298.828125 -155.76171875 289.306640625 -151.85546875 c 0,4,5
 279.78515625 -147.94921875 279.78515625 -147.94921875 271.484375 -144.04296875 c 0,6,7
 263.18359375 -140.13671875 263.18359375 -140.13671875 259.765625 -136.71875 c 0,8,-1
 69.82421875 769.04296875 l 0,9,-1
 88.8671875 780.76171875 l 0,10,11
 95.703125 778.80859375 95.703125 778.80859375 104.00390625 776.123046875 c 0,12,13
 112.3046875 773.4375 112.3046875 773.4375 121.09375 770.01953125 c 0,14,15
 129.8828125 766.6015625 129.8828125 766.6015625 137.939453125 762.6953125 c 0,16,17
 145.99609375 758.7890625 145.99609375 758.7890625 151.85546875 754.39453125 c 0,18,-1
 340.33203125 -150.87890625 l 0,19,-1
 322.265625 -164.0625 l 0,0,1
EndSplineSet
EndChar

StartChar: bracketright
Encoding: 64 93 64
Width: 300
VWidth: 488
Flags: W
LayerCount: 2
Fore
SplineSet
174.8046875 -164.0625 m 0,0,-1
 -26.85546875 -164.0625 l 0,1,-1
 -41.9921875 -148.92578125 l 0,2,3
 -40.0390625 -143.06640625 -40.0390625 -143.06640625 -37.353515625 -136.474609375 c 0,4,5
 -34.66796875 -129.8828125 -34.66796875 -129.8828125 -31.982421875 -123.53515625 c 0,6,7
 -29.296875 -117.1875 -29.296875 -117.1875 -26.611328125 -111.572265625 c 0,8,9
 -23.92578125 -105.95703125 -23.92578125 -105.95703125 -21.97265625 -103.02734375 c 0,10,-1
 105.95703125 -103.02734375 l 0,11,-1
 222.16796875 721.19140625 l 0,12,-1
 98.14453125 721.19140625 l 0,13,-1
 82.51953125 735.3515625 l 0,14,15
 85.44921875 746.09375 85.44921875 746.09375 91.796875 759.27734375 c 0,16,17
 98.14453125 772.4609375 98.14453125 772.4609375 102.5390625 780.76171875 c 0,18,-1
 306.640625 780.76171875 l 0,19,-1
 174.8046875 -164.0625 l 0,0,-1
EndSplineSet
EndChar

StartChar: asciicircum
Encoding: 65 94 65
Width: 458
VWidth: 488
Flags: W
LayerCount: 2
Fore
SplineSet
416.9921875 310.05859375 m 0,0,1
 403.3203125 298.828125 403.3203125 298.828125 391.357421875 291.259765625 c 0,2,3
 379.39453125 283.69140625 379.39453125 283.69140625 362.79296875 275.87890625 c 0,4,-1
 348.14453125 289.0625 l 0,5,-1
 270.01953125 642.08984375 l 0,6,-1
 108.88671875 310.05859375 l 0,7,8
 103.515625 305.17578125 103.515625 305.17578125 96.19140625 300.048828125 c 0,9,10
 88.8671875 294.921875 88.8671875 294.921875 81.298828125 290.283203125 c 0,11,12
 73.73046875 285.64453125 73.73046875 285.64453125 66.89453125 281.982421875 c 0,13,14
 60.05859375 278.3203125 60.05859375 278.3203125 55.17578125 275.87890625 c 0,15,-1
 45.8984375 289.0625 l 0,16,-1
 251.953125 713.8671875 l 0,17,18
 258.30078125 719.7265625 258.30078125 719.7265625 267.08984375 725.830078125 c 0,19,20
 275.87890625 731.93359375 275.87890625 731.93359375 285.15625 737.79296875 c 0,21,22
 294.43359375 743.65234375 294.43359375 743.65234375 303.22265625 748.53515625 c 0,23,24
 312.01171875 753.41796875 312.01171875 753.41796875 318.84765625 756.8359375 c 0,25,-1
 416.9921875 310.05859375 l 0,0,1
EndSplineSet
EndChar

StartChar: underscore
Encoding: 66 95 66
Width: 440
VWidth: 488
Flags: W
LayerCount: 2
Fore
SplineSet
366.69921875 -77.63671875 m 0,0,1
 365.234375 -83.0078125 365.234375 -83.0078125 362.548828125 -89.111328125 c 0,2,3
 359.86328125 -95.21484375 359.86328125 -95.21484375 356.93359375 -101.806640625 c 0,4,5
 354.00390625 -108.3984375 354.00390625 -108.3984375 350.830078125 -114.501953125 c 0,6,7
 347.65625 -120.60546875 347.65625 -120.60546875 345.21484375 -125 c 0,8,-1
 -13.18359375 -125 l 0,9,-1
 -22.4609375 -110.83984375 l 0,10,11
 -19.53125 -101.07421875 -19.53125 -101.07421875 -12.939453125 -87.40234375 c 0,12,13
 -6.34765625 -73.73046875 -6.34765625 -73.73046875 0.48828125 -63.96484375 c 0,14,-1
 356.93359375 -63.96484375 l 0,15,-1
 366.69921875 -77.63671875 l 0,0,1
EndSplineSet
EndChar

StartChar: grave
Encoding: 67 96 67
Width: 295
VWidth: 488
Flags: W
LayerCount: 2
Fore
SplineSet
277.83203125 512.6953125 m 0,0,1
 268.06640625 506.8359375 268.06640625 506.8359375 260.498046875 503.90625 c 0,2,3
 252.9296875 500.9765625 252.9296875 500.9765625 244.140625 500 c 0,4,-1
 115.72265625 684.5703125 l 0,5,-1
 132.8125 704.58984375 l 0,6,7
 138.671875 705.56640625 138.671875 705.56640625 149.4140625 707.275390625 c 0,8,9
 160.15625 708.984375 160.15625 708.984375 172.119140625 710.44921875 c 0,10,11
 184.08203125 711.9140625 184.08203125 711.9140625 195.068359375 712.890625 c 0,12,13
 206.0546875 713.8671875 206.0546875 713.8671875 212.40234375 713.8671875 c 0,14,-1
 277.83203125 512.6953125 l 0,0,1
EndSplineSet
EndChar

StartChar: a
Encoding: 68 97 68
Width: 460
VWidth: 488
Flags: W
LayerCount: 2
Fore
SplineSet
452.63671875 39.55078125 m 0,0,1
 410.64453125 10.7421875 410.64453125 10.7421875 381.103515625 -4.638671875 c 0,2,3
 351.5625 -20.01953125 351.5625 -20.01953125 335.9375 -20.01953125 c 0,4,5
 327.1484375 -20.01953125 327.1484375 -20.01953125 318.359375 -14.16015625 c 0,6,7
 309.5703125 -8.30078125 309.5703125 -8.30078125 302.001953125 7.32421875 c 0,8,9
 294.43359375 22.94921875 294.43359375 22.94921875 289.306640625 50.29296875 c 0,10,11
 284.1796875 77.63671875 284.1796875 77.63671875 283.69140625 120.1171875 c 0,12,13
 270.5078125 97.65625 270.5078125 97.65625 252.197265625 72.998046875 c 0,14,15
 233.88671875 48.33984375 233.88671875 48.33984375 213.37890625 27.587890625 c 0,16,17
 192.87109375 6.8359375 192.87109375 6.8359375 171.38671875 -6.591796875 c 0,18,19
 149.90234375 -20.01953125 149.90234375 -20.01953125 129.8828125 -20.01953125 c 0,20,21
 113.28125 -20.01953125 113.28125 -20.01953125 94.7265625 -10.7421875 c 0,22,23
 76.171875 -1.46484375 76.171875 -1.46484375 60.302734375 18.798828125 c 0,24,25
 44.43359375 39.0625 44.43359375 39.0625 33.935546875 71.044921875 c 0,26,27
 23.4375 103.02734375 23.4375 103.02734375 23.4375 148.92578125 c 0,28,29
 23.4375 187.5 23.4375 187.5 32.71484375 224.365234375 c 0,30,31
 41.9921875 261.23046875 41.9921875 261.23046875 60.302734375 294.921875 c 0,32,33
 78.61328125 328.61328125 78.61328125 328.61328125 104.98046875 358.154296875 c 0,34,35
 131.34765625 387.6953125 131.34765625 387.6953125 166.015625 411.1328125 c 0,36,37
 179.19921875 419.921875 179.19921875 419.921875 195.068359375 428.22265625 c 0,38,39
 210.9375 436.5234375 210.9375 436.5234375 228.271484375 442.87109375 c 0,40,41
 245.60546875 449.21875 245.60546875 449.21875 263.18359375 453.125 c 0,42,43
 280.76171875 457.03125 280.76171875 457.03125 297.8515625 457.03125 c 0,44,45
 308.10546875 457.03125 308.10546875 457.03125 317.87109375 454.345703125 c 0,46,47
 327.63671875 451.66015625 327.63671875 451.66015625 336.9140625 447.265625 c 0,48,49
 346.19140625 442.87109375 346.19140625 442.87109375 354.98046875 437.744140625 c 0,50,51
 363.76953125 432.6171875 363.76953125 432.6171875 371.58203125 427.734375 c 0,52,53
 384.27734375 436.03515625 384.27734375 436.03515625 398.4375 443.115234375 c 0,54,55
 412.59765625 450.1953125 412.59765625 450.1953125 425.78125 457.03125 c 0,56,-1
 437.5 435.05859375 l 0,57,58
 429.19921875 428.22265625 429.19921875 428.22265625 423.828125 422.8515625 c 0,59,60
 418.45703125 417.48046875 418.45703125 417.48046875 414.306640625 410.400390625 c 0,61,62
 410.15625 403.3203125 410.15625 403.3203125 407.2265625 393.06640625 c 0,63,64
 404.296875 382.8125 404.296875 382.8125 400.87890625 366.2109375 c 0,65,66
 393.5546875 331.0546875 393.5546875 331.0546875 387.20703125 295.41015625 c 0,67,68
 380.859375 259.765625 380.859375 259.765625 376.220703125 229.00390625 c 0,69,70
 371.58203125 198.2421875 371.58203125 198.2421875 369.140625 174.560546875 c 0,71,72
 366.69921875 150.87890625 366.69921875 150.87890625 366.69921875 140.13671875 c 0,73,74
 366.69921875 91.30859375 366.69921875 91.30859375 373.53515625 69.82421875 c 0,75,76
 380.37109375 48.33984375 380.37109375 48.33984375 391.6015625 48.33984375 c 0,77,78
 401.3671875 48.33984375 401.3671875 48.33984375 414.0625 51.025390625 c 0,79,80
 426.7578125 53.7109375 426.7578125 53.7109375 446.2890625 62.01171875 c 0,81,-1
 452.63671875 39.55078125 l 0,0,1
291.50390625 202.1484375 m 0,82,83
 294.43359375 223.14453125 294.43359375 223.14453125 298.33984375 246.58203125 c 0,84,85
 302.24609375 270.01953125 302.24609375 270.01953125 306.15234375 292.236328125 c 0,86,87
 310.05859375 314.453125 310.05859375 314.453125 313.4765625 333.251953125 c 0,88,89
 316.89453125 352.05078125 316.89453125 352.05078125 319.3359375 364.74609375 c 0,90,91
 312.01171875 371.09375 312.01171875 371.09375 303.466796875 377.197265625 c 0,92,93
 294.921875 383.30078125 294.921875 383.30078125 285.64453125 388.427734375 c 0,94,95
 276.3671875 393.5546875 276.3671875 393.5546875 266.6015625 396.728515625 c 0,96,97
 256.8359375 399.90234375 256.8359375 399.90234375 246.58203125 399.90234375 c 0,98,99
 224.609375 399.90234375 224.609375 399.90234375 205.810546875 389.16015625 c 0,100,101
 187.01171875 378.41796875 187.01171875 378.41796875 171.142578125 361.083984375 c 0,102,103
 155.2734375 343.75 155.2734375 343.75 143.06640625 321.2890625 c 0,104,105
 130.859375 298.828125 130.859375 298.828125 122.314453125 274.90234375 c 0,106,107
 113.76953125 250.9765625 113.76953125 250.9765625 109.375 227.5390625 c 0,108,109
 104.98046875 204.1015625 104.98046875 204.1015625 104.98046875 185.05859375 c 0,110,111
 104.98046875 154.78515625 104.98046875 154.78515625 109.86328125 131.103515625 c 0,112,113
 114.74609375 107.421875 114.74609375 107.421875 123.046875 90.8203125 c 0,114,115
 131.34765625 74.21875 131.34765625 74.21875 142.822265625 65.4296875 c 0,116,117
 154.296875 56.640625 154.296875 56.640625 166.9921875 56.640625 c 0,118,119
 177.24609375 56.640625 177.24609375 56.640625 192.3828125 68.84765625 c 0,120,121
 207.51953125 81.0546875 207.51953125 81.0546875 224.365234375 101.5625 c 0,122,123
 241.2109375 122.0703125 241.2109375 122.0703125 258.544921875 148.193359375 c 0,124,125
 275.87890625 174.31640625 275.87890625 174.31640625 291.50390625 202.1484375 c 0,82,83
EndSplineSet
EndChar

StartChar: b
Encoding: 69 98 69
Width: 477
VWidth: 488
Flags: W
LayerCount: 2
Fore
SplineSet
444.82421875 297.8515625 m 0,0,1
 443.84765625 246.09375 443.84765625 246.09375 427.490234375 193.359375 c 0,2,3
 411.1328125 140.625 411.1328125 140.625 375 91.796875 c 0,4,5
 358.3984375 69.82421875 358.3984375 69.82421875 337.890625 49.560546875 c 0,6,7
 317.3828125 29.296875 317.3828125 29.296875 292.96875 13.916015625 c 0,8,9
 268.5546875 -1.46484375 268.5546875 -1.46484375 240.72265625 -10.7421875 c 0,10,11
 212.890625 -20.01953125 212.890625 -20.01953125 182.12890625 -20.01953125 c 0,12,13
 171.875 -20.01953125 171.875 -20.01953125 158.69140625 -14.892578125 c 0,14,15
 145.5078125 -9.765625 145.5078125 -9.765625 131.8359375 -0.48828125 c 0,16,17
 118.1640625 8.7890625 118.1640625 8.7890625 104.98046875 21.240234375 c 0,18,19
 91.796875 33.69140625 91.796875 33.69140625 81.54296875 48.095703125 c 0,20,21
 71.2890625 62.5 71.2890625 62.5 64.94140625 78.369140625 c 0,22,23
 58.59375 94.23828125 58.59375 94.23828125 58.59375 109.86328125 c 0,24,25
 58.59375 122.55859375 58.59375 122.55859375 61.767578125 149.4140625 c 0,26,27
 64.94140625 176.26953125 64.94140625 176.26953125 69.82421875 211.669921875 c 0,28,29
 74.70703125 247.0703125 74.70703125 247.0703125 81.0546875 289.0625 c 0,30,31
 87.40234375 331.0546875 87.40234375 331.0546875 94.23828125 374.51171875 c 0,32,33
 101.07421875 417.96875 101.07421875 417.96875 107.421875 460.44921875 c 0,34,35
 113.76953125 502.9296875 113.76953125 502.9296875 118.65234375 539.55078125 c 0,36,37
 123.53515625 576.171875 123.53515625 576.171875 126.708984375 604.248046875 c 0,38,39
 129.8828125 632.32421875 129.8828125 632.32421875 129.8828125 647.4609375 c 0,40,41
 129.8828125 658.69140625 129.8828125 658.69140625 127.44140625 665.283203125 c 0,42,43
 125 671.875 125 671.875 121.09375 675.048828125 c 0,44,45
 117.1875 678.22265625 117.1875 678.22265625 112.79296875 679.19921875 c 0,46,47
 108.3984375 680.17578125 108.3984375 680.17578125 104.00390625 680.17578125 c 0,48,49
 99.609375 680.17578125 99.609375 680.17578125 91.552734375 677.978515625 c 0,50,51
 83.49609375 675.78125 83.49609375 675.78125 75.68359375 673.33984375 c 0,52,53
 66.40625 670.41015625 66.40625 670.41015625 56.15234375 666.9921875 c 0,54,-1
 49.31640625 690.91796875 l 0,55,56
 70.3125 700.68359375 70.3125 700.68359375 93.75 709.9609375 c 0,57,58
 117.1875 719.23828125 117.1875 719.23828125 138.18359375 726.318359375 c 0,59,60
 159.1796875 733.3984375 159.1796875 733.3984375 175.537109375 737.79296875 c 0,61,62
 191.89453125 742.1875 191.89453125 742.1875 198.73046875 742.1875 c 0,63,64
 212.890625 742.1875 212.890625 742.1875 218.26171875 733.3984375 c 0,65,66
 223.6328125 724.609375 223.6328125 724.609375 223.6328125 702.1484375 c 0,67,68
 223.6328125 687.5 223.6328125 687.5 221.19140625 663.818359375 c 0,69,70
 218.75 640.13671875 218.75 640.13671875 214.84375 609.86328125 c 0,71,72
 210.9375 579.58984375 210.9375 579.58984375 205.810546875 544.43359375 c 0,73,74
 200.68359375 509.27734375 200.68359375 509.27734375 194.82421875 471.923828125 c 0,75,76
 188.96484375 434.5703125 188.96484375 434.5703125 182.861328125 396.484375 c 0,77,78
 176.7578125 358.3984375 176.7578125 358.3984375 171.38671875 322.265625 c 0,79,80
 196.2890625 360.83984375 196.2890625 360.83984375 221.6796875 386.71875 c 0,81,82
 247.0703125 412.59765625 247.0703125 412.59765625 270.263671875 428.22265625 c 0,83,84
 293.45703125 443.84765625 293.45703125 443.84765625 313.4765625 450.439453125 c 0,85,86
 333.49609375 457.03125 333.49609375 457.03125 348.14453125 457.03125 c 0,87,88
 368.65234375 457.03125 368.65234375 457.03125 386.474609375 446.77734375 c 0,89,90
 404.296875 436.5234375 404.296875 436.5234375 417.48046875 416.259765625 c 0,91,92
 430.6640625 395.99609375 430.6640625 395.99609375 437.98828125 366.2109375 c 0,93,94
 445.3125 336.42578125 445.3125 336.42578125 444.82421875 297.8515625 c 0,0,1
297.8515625 384.765625 m 0,95,96
 289.55078125 384.765625 289.55078125 384.765625 273.92578125 374.51171875 c 0,97,98
 258.30078125 364.2578125 258.30078125 364.2578125 239.013671875 344.970703125 c 0,99,100
 219.7265625 325.68359375 219.7265625 325.68359375 198.974609375 298.33984375 c 0,101,102
 178.22265625 270.99609375 178.22265625 270.99609375 159.1796875 236.81640625 c 0,103,104
 154.296875 201.66015625 154.296875 201.66015625 151.3671875 174.560546875 c 0,105,106
 148.4375 147.4609375 148.4375 147.4609375 148.4375 132.32421875 c 0,107,108
 148.4375 119.62890625 148.4375 119.62890625 156.005859375 105.46875 c 0,109,110
 163.57421875 91.30859375 163.57421875 91.30859375 175.537109375 79.345703125 c 0,111,112
 187.5 67.3828125 187.5 67.3828125 202.392578125 59.5703125 c 0,113,114
 217.28515625 51.7578125 217.28515625 51.7578125 231.93359375 51.7578125 c 0,115,116
 247.55859375 51.7578125 247.55859375 51.7578125 261.23046875 56.884765625 c 0,117,118
 274.90234375 62.01171875 274.90234375 62.01171875 286.376953125 70.80078125 c 0,119,120
 297.8515625 79.58984375 297.8515625 79.58984375 307.373046875 90.576171875 c 0,121,122
 316.89453125 101.5625 316.89453125 101.5625 324.21875 113.28125 c 0,123,124
 334.9609375 129.8828125 334.9609375 129.8828125 341.796875 148.4375 c 0,125,126
 348.6328125 166.9921875 348.6328125 166.9921875 352.783203125 186.03515625 c 0,127,128
 356.93359375 205.078125 356.93359375 205.078125 358.3984375 223.6328125 c 0,129,130
 359.86328125 242.1875 359.86328125 242.1875 359.86328125 258.7890625 c 0,131,132
 359.86328125 289.55078125 359.86328125 289.55078125 354.4921875 313.232421875 c 0,133,134
 349.12109375 336.9140625 349.12109375 336.9140625 340.576171875 352.783203125 c 0,135,136
 332.03125 368.65234375 332.03125 368.65234375 320.80078125 376.708984375 c 0,137,138
 309.5703125 384.765625 309.5703125 384.765625 297.8515625 384.765625 c 0,95,96
EndSplineSet
EndChar

StartChar: c
Encoding: 70 99 70
Width: 400
VWidth: 488
Flags: W
LayerCount: 2
Fore
SplineSet
412.109375 399.4140625 m 0,0,1
 401.85546875 391.11328125 401.85546875 391.11328125 389.404296875 381.34765625 c 0,2,3
 376.953125 371.58203125 376.953125 371.58203125 364.990234375 363.28125 c 0,4,5
 353.02734375 354.98046875 353.02734375 354.98046875 342.28515625 349.365234375 c 0,6,7
 331.54296875 343.75 331.54296875 343.75 324.70703125 343.75 c 0,8,9
 318.84765625 343.75 318.84765625 343.75 310.791015625 352.5390625 c 0,10,11
 302.734375 361.328125 302.734375 361.328125 292.48046875 371.826171875 c 0,12,13
 282.2265625 382.32421875 282.2265625 382.32421875 269.775390625 391.11328125 c 0,14,15
 257.32421875 399.90234375 257.32421875 399.90234375 242.1875 399.90234375 c 0,16,17
 221.19140625 399.90234375 221.19140625 399.90234375 203.857421875 389.892578125 c 0,18,19
 186.5234375 379.8828125 186.5234375 379.8828125 172.36328125 363.037109375 c 0,20,21
 158.203125 346.19140625 158.203125 346.19140625 147.4609375 323.974609375 c 0,22,23
 136.71875 301.7578125 136.71875 301.7578125 129.39453125 277.34375 c 0,24,25
 122.0703125 252.9296875 122.0703125 252.9296875 118.408203125 227.783203125 c 0,26,27
 114.74609375 202.63671875 114.74609375 202.63671875 114.74609375 179.6875 c 0,28,29
 114.74609375 147.94921875 114.74609375 147.94921875 121.337890625 122.802734375 c 0,30,31
 127.9296875 97.65625 127.9296875 97.65625 139.404296875 80.078125 c 0,32,33
 150.87890625 62.5 150.87890625 62.5 166.9921875 52.978515625 c 0,34,35
 183.10546875 43.45703125 183.10546875 43.45703125 202.1484375 43.45703125 c 0,36,37
 212.40234375 43.45703125 212.40234375 43.45703125 226.5625 47.119140625 c 0,38,39
 240.72265625 50.78125 240.72265625 50.78125 259.033203125 59.326171875 c 0,40,41
 277.34375 67.87109375 277.34375 67.87109375 299.31640625 82.03125 c 0,42,43
 321.2890625 96.19140625 321.2890625 96.19140625 347.65625 117.67578125 c 0,44,45
 351.5625 112.3046875 351.5625 112.3046875 357.421875 104.4921875 c 0,46,47
 363.28125 96.6796875 363.28125 96.6796875 365.72265625 92.7734375 c 0,48,49
 327.63671875 58.10546875 327.63671875 58.10546875 296.875 36.1328125 c 0,50,51
 266.11328125 14.16015625 266.11328125 14.16015625 240.72265625 1.708984375 c 0,52,53
 215.33203125 -10.7421875 215.33203125 -10.7421875 194.3359375 -15.380859375 c 0,54,55
 173.33984375 -20.01953125 173.33984375 -20.01953125 154.296875 -20.01953125 c 0,56,57
 136.23046875 -20.01953125 136.23046875 -20.01953125 114.501953125 -11.71875 c 0,58,59
 92.7734375 -3.41796875 92.7734375 -3.41796875 73.73046875 17.08984375 c 0,60,61
 54.6875 37.59765625 54.6875 37.59765625 41.748046875 71.77734375 c 0,62,63
 28.80859375 105.95703125 28.80859375 105.95703125 28.80859375 157.2265625 c 0,64,65
 28.80859375 189.94140625 28.80859375 189.94140625 35.64453125 224.365234375 c 0,66,67
 42.48046875 258.7890625 42.48046875 258.7890625 57.861328125 291.748046875 c 0,68,69
 73.2421875 324.70703125 73.2421875 324.70703125 97.900390625 354.736328125 c 0,70,71
 122.55859375 384.765625 122.55859375 384.765625 158.69140625 408.69140625 c 0,72,73
 172.36328125 417.48046875 172.36328125 417.48046875 189.453125 426.26953125 c 0,74,75
 206.54296875 435.05859375 206.54296875 435.05859375 225.09765625 441.89453125 c 0,76,77
 243.65234375 448.73046875 243.65234375 448.73046875 262.451171875 452.880859375 c 0,78,79
 281.25 457.03125 281.25 457.03125 298.33984375 457.03125 c 0,80,81
 319.82421875 457.03125 319.82421875 457.03125 336.669921875 449.21875 c 0,82,83
 353.515625 441.40625 353.515625 441.40625 367.1875 431.396484375 c 0,84,85
 380.859375 421.38671875 380.859375 421.38671875 391.845703125 411.865234375 c 0,86,87
 402.83203125 402.34375 402.83203125 402.34375 412.109375 399.4140625 c 0,0,1
EndSplineSet
EndChar

StartChar: d
Encoding: 71 100 71
Width: 480
VWidth: 488
Flags: W
LayerCount: 2
Fore
SplineSet
461.42578125 39.0625 m 0,0,1
 419.921875 11.23046875 419.921875 11.23046875 389.892578125 -4.39453125 c 0,2,3
 359.86328125 -20.01953125 359.86328125 -20.01953125 342.28515625 -20.01953125 c 0,4,5
 333.49609375 -20.01953125 333.49609375 -20.01953125 324.70703125 -12.939453125 c 0,6,7
 315.91796875 -5.859375 315.91796875 -5.859375 309.08203125 10.986328125 c 0,8,9
 302.24609375 27.83203125 302.24609375 27.83203125 297.607421875 55.17578125 c 0,10,11
 292.96875 82.51953125 292.96875 82.51953125 291.9921875 123.53515625 c 0,12,13
 274.4140625 93.26171875 274.4140625 93.26171875 254.8828125 67.138671875 c 0,14,15
 235.3515625 41.015625 235.3515625 41.015625 215.087890625 21.728515625 c 0,16,17
 194.82421875 2.44140625 194.82421875 2.44140625 174.072265625 -8.7890625 c 0,18,19
 153.3203125 -20.01953125 153.3203125 -20.01953125 133.7890625 -20.01953125 c 0,20,21
 116.2109375 -20.01953125 116.2109375 -20.01953125 96.923828125 -10.009765625 c 0,22,23
 77.63671875 0 77.63671875 0 61.279296875 21.240234375 c 0,24,25
 44.921875 42.48046875 44.921875 42.48046875 34.1796875 75.439453125 c 0,26,27
 23.4375 108.3984375 23.4375 108.3984375 23.4375 153.80859375 c 0,28,29
 23.4375 192.3828125 23.4375 192.3828125 32.2265625 228.759765625 c 0,30,31
 41.015625 265.13671875 41.015625 265.13671875 58.349609375 298.095703125 c 0,32,33
 75.68359375 331.0546875 75.68359375 331.0546875 101.5625 359.619140625 c 0,34,35
 127.44140625 388.18359375 127.44140625 388.18359375 162.109375 411.1328125 c 0,36,37
 175.78125 419.921875 175.78125 419.921875 191.89453125 427.978515625 c 0,38,39
 208.0078125 436.03515625 208.0078125 436.03515625 225.09765625 442.626953125 c 0,40,41
 242.1875 449.21875 242.1875 449.21875 259.521484375 453.125 c 0,42,43
 276.85546875 457.03125 276.85546875 457.03125 292.96875 457.03125 c 0,44,45
 302.734375 457.03125 302.734375 457.03125 313.720703125 451.171875 c 0,46,47
 324.70703125 445.3125 324.70703125 445.3125 335.9375 437.01171875 c 0,48,49
 341.30859375 470.21484375 341.30859375 470.21484375 345.947265625 501.953125 c 0,50,51
 350.5859375 533.69140625 350.5859375 533.69140625 354.248046875 561.279296875 c 0,52,53
 357.91015625 588.8671875 357.91015625 588.8671875 360.107421875 611.083984375 c 0,54,55
 362.3046875 633.30078125 362.3046875 633.30078125 362.3046875 647.4609375 c 0,56,57
 362.3046875 658.69140625 362.3046875 658.69140625 360.595703125 665.283203125 c 0,58,59
 358.88671875 671.875 358.88671875 671.875 355.712890625 675.048828125 c 0,60,61
 352.5390625 678.22265625 352.5390625 678.22265625 348.6328125 679.19921875 c 0,62,63
 344.7265625 680.17578125 344.7265625 680.17578125 340.33203125 680.17578125 c 0,64,65
 335.9375 680.17578125 335.9375 680.17578125 327.392578125 677.978515625 c 0,66,67
 318.84765625 675.78125 318.84765625 675.78125 310.546875 673.33984375 c 0,68,69
 300.78125 670.41015625 300.78125 670.41015625 289.0625 666.9921875 c 0,70,-1
 282.71484375 690.91796875 l 0,71,72
 304.6875 701.171875 304.6875 701.171875 327.1484375 710.44921875 c 0,73,74
 349.609375 719.7265625 349.609375 719.7265625 369.384765625 726.806640625 c 0,75,76
 389.16015625 733.88671875 389.16015625 733.88671875 404.296875 738.037109375 c 0,77,78
 419.43359375 742.1875 419.43359375 742.1875 426.26953125 742.1875 c 0,79,80
 440.91796875 742.1875 440.91796875 742.1875 448.2421875 733.3984375 c 0,81,82
 455.56640625 724.609375 455.56640625 724.609375 455.56640625 702.1484375 c 0,83,84
 455.56640625 683.10546875 455.56640625 683.10546875 452.1484375 652.83203125 c 0,85,86
 448.73046875 622.55859375 448.73046875 622.55859375 443.115234375 585.205078125 c 0,87,88
 437.5 547.8515625 437.5 547.8515625 430.419921875 505.615234375 c 0,89,90
 423.33984375 463.37890625 423.33984375 463.37890625 415.771484375 420.41015625 c 0,91,92
 408.203125 377.44140625 408.203125 377.44140625 401.123046875 335.693359375 c 0,93,94
 394.04296875 293.9453125 394.04296875 293.9453125 388.427734375 257.8125 c 0,95,96
 382.8125 221.6796875 382.8125 221.6796875 379.39453125 193.359375 c 0,97,98
 375.9765625 165.0390625 375.9765625 165.0390625 375.9765625 148.4375 c 0,99,100
 375.9765625 96.6796875 375.9765625 96.6796875 382.080078125 72.998046875 c 0,101,102
 388.18359375 49.31640625 388.18359375 49.31640625 399.4140625 49.31640625 c 0,103,104
 412.109375 49.31640625 412.109375 49.31640625 424.8046875 52.001953125 c 0,105,106
 437.5 54.6875 437.5 54.6875 454.58984375 62.01171875 c 0,107,-1
 461.42578125 39.0625 l 0,0,1
298.33984375 200.68359375 m 0,108,109
 302.24609375 230.95703125 302.24609375 230.95703125 308.837890625 269.53125 c 0,110,111
 315.4296875 308.10546875 315.4296875 308.10546875 322.265625 351.07421875 c 0,112,113
 313.96484375 359.86328125 313.96484375 359.86328125 305.17578125 368.408203125 c 0,114,115
 296.38671875 376.953125 296.38671875 376.953125 286.376953125 384.033203125 c 0,116,117
 276.3671875 391.11328125 276.3671875 391.11328125 265.380859375 395.5078125 c 0,118,119
 254.39453125 399.90234375 254.39453125 399.90234375 242.67578125 399.90234375 c 0,120,121
 221.19140625 399.90234375 221.19140625 399.90234375 202.63671875 389.404296875 c 0,122,123
 184.08203125 378.90625 184.08203125 378.90625 168.701171875 361.328125 c 0,124,125
 153.3203125 343.75 153.3203125 343.75 141.357421875 321.2890625 c 0,126,127
 129.39453125 298.828125 129.39453125 298.828125 121.337890625 274.90234375 c 0,128,129
 113.28125 250.9765625 113.28125 250.9765625 109.130859375 227.5390625 c 0,130,131
 104.98046875 204.1015625 104.98046875 204.1015625 104.98046875 185.05859375 c 0,132,133
 104.98046875 154.78515625 104.98046875 154.78515625 110.595703125 131.103515625 c 0,134,135
 116.2109375 107.421875 116.2109375 107.421875 125.732421875 90.8203125 c 0,136,137
 135.25390625 74.21875 135.25390625 74.21875 147.4609375 65.4296875 c 0,138,139
 159.66796875 56.640625 159.66796875 56.640625 172.8515625 56.640625 c 0,140,141
 184.08203125 56.640625 184.08203125 56.640625 198.2421875 66.89453125 c 0,142,143
 212.40234375 77.1484375 212.40234375 77.1484375 228.515625 95.947265625 c 0,144,145
 244.62890625 114.74609375 244.62890625 114.74609375 262.20703125 141.357421875 c 0,146,147
 279.78515625 167.96875 279.78515625 167.96875 298.33984375 200.68359375 c 0,108,109
EndSplineSet
EndChar

